<svg width="188" height="157" viewBox="0 0 188 157" fill="none" xmlns="http://www.w3.org/2000/svg">
<path d="M173.426 40.404C173.57 36.8594 170.349 34.1313 166.874 34.848C156.687 36.9514 144.569 36.9179 131.985 34.2693C119.403 31.6206 108.298 26.7661 99.8244 20.7348C96.9323 18.6774 92.8856 19.8762 91.5881 23.1784C89.3659 28.8369 87.5376 34.9027 86.195 41.2808C78.1399 79.5518 90.6069 114.574 114.043 119.507C137.479 124.44 163.007 97.4156 171.062 59.1447C172.405 52.7665 173.177 46.4784 173.424 40.404H173.426ZM94.806 53.8954C94.1131 52.64 95.4116 51.218 96.7254 51.7929C99.993 53.2265 103.853 53.9634 107.951 53.7612C112.051 53.559 115.82 52.4446 118.931 50.6976C120.181 49.9952 121.614 51.2831 121.047 52.5998C118.851 57.7044 114.061 61.3592 108.34 61.641C102.622 61.9236 97.4939 58.7576 94.806 53.8934V53.8954ZM137.898 102.012C133.477 97.4722 127.157 93.9515 119.751 92.3924C112.346 90.8334 105.142 91.508 99.2667 93.8806C98.6371 94.1346 98.0257 93.4695 98.3352 92.8658C102.823 84.093 112.438 79.0008 122.14 81.0428C131.842 83.0849 138.589 91.6211 139.159 101.459C139.199 102.136 138.37 102.498 137.898 102.011V102.012ZM158.099 67.218C153.679 70.5854 147.71 71.4162 142.59 68.8519C137.47 66.2876 134.558 61.0123 134.607 55.4554C134.62 54.0219 136.451 53.421 137.31 54.5671C139.453 57.4208 142.453 59.9592 146.123 61.7962C149.793 63.6322 153.622 64.5148 157.191 64.5205C158.624 64.5234 159.239 66.3479 158.099 67.218Z" fill="#C5C5C5"/>
<path d="M154.085 81.6015C153.351 82.8865 151.715 83.334 150.43 82.6C149.145 81.8669 148.697 80.2302 149.431 78.9452C150.164 77.6602 154.672 75.1668 154.672 75.1668C154.672 75.1668 154.818 80.3165 154.085 81.6015Z" fill="white"/>
<path d="M134.364 88.6888C131.511 85.7 127.801 83.5295 123.516 82.6278C114.164 80.6595 104.892 85.3195 100.218 93.5165C99.8978 93.6324 99.5816 93.7541 99.2682 93.8797C98.6396 94.1346 98.0273 93.4686 98.3368 92.8649C102.824 84.092 112.439 78.9998 122.142 81.0419C127.152 82.0969 131.375 84.8835 134.364 88.6878V88.6888Z" fill="#897979"/>
<path d="M121.171 52.0919C120.89 52.0651 120.593 52.1216 120.305 52.2835C117.193 54.0314 113.425 55.1459 109.325 55.348C105.228 55.5493 101.368 54.8124 98.0991 53.3788C96.7862 52.8039 95.4878 54.2269 96.1806 55.4812C96.5381 56.1271 96.9377 56.7442 97.3775 57.3259C96.3752 56.3197 95.5089 55.165 94.8065 53.8963C94.1127 52.6419 95.4121 51.2189 96.7249 51.7939C99.9926 53.2274 103.853 53.9634 107.951 53.7631C112.051 53.5609 115.819 52.4474 118.931 50.6986C120.017 50.0872 121.243 50.9832 121.171 52.0928V52.0919Z" fill="#897979"/>
<path d="M138.935 66.2243C136.111 63.4138 134.571 59.5098 134.606 55.4564C134.619 54.0219 136.45 53.422 137.309 54.5681C137.619 54.9811 137.948 55.3874 138.293 55.786C137.367 55.1823 135.991 55.7985 135.98 57.0413C135.951 60.3789 136.989 63.6159 138.935 66.2243Z" fill="#897979"/>
<path d="M134.195 48.9824C141.91 40.657 162.669 43.8825 163.047 64.3174C155.457 49.8841 147.36 47.8142 134.195 48.9824Z" fill="#897979"/>
<path d="M124.034 46.8445C120.329 36.1158 100.031 30.6988 91.4492 49.2478C104.213 39.0989 112.458 40.4682 124.034 46.8445Z" fill="#897979"/>
<path d="M90.7336 41.6613C88.8238 38.6715 84.6218 38.2757 82.1811 40.8525C75.0287 48.4045 65.0695 55.3088 53.2331 60.3339C41.3967 65.359 29.5123 67.7288 19.1114 67.6291C15.563 67.5956 12.9287 70.8939 13.7538 74.3446C15.1672 80.257 17.1383 86.2778 19.6854 92.2784C34.9696 128.277 65.2295 149.873 87.2743 140.513C109.319 131.154 114.8 94.3847 99.516 58.3848C96.969 52.3851 94.006 46.7851 90.7336 41.6613ZM33.9635 97.6993C32.6775 97.0659 32.9285 95.157 34.3353 94.8772C37.8358 94.1834 41.4235 92.5803 44.6691 90.0706C47.9157 87.5599 50.3698 84.4906 51.9222 81.2776C52.5451 79.9868 54.4577 80.2226 54.7462 81.6274C55.8645 87.0712 54.0265 92.8083 49.4959 96.3117C44.9662 99.8151 38.9493 100.151 33.9635 97.6993ZM96.8329 112.518C90.61 111.322 83.4115 112.05 76.4459 115.007C69.4804 117.965 63.957 122.639 60.4948 127.946C60.1239 128.514 59.2414 128.319 59.1503 127.646C57.8126 117.883 62.7869 108.206 71.9134 104.331C81.0389 100.457 91.4561 103.599 97.5516 111.342C97.9713 111.875 97.4989 112.646 96.8339 112.517L96.8329 112.518ZM93.5001 72.4223C91.8011 77.7129 87.3797 81.8085 81.7135 82.6335C76.0464 83.4596 70.6408 80.7975 67.5016 76.2122C66.6918 75.0288 67.8494 73.4889 69.2111 73.9373C72.6005 75.0518 76.514 75.4188 80.5741 74.8266C84.6352 74.2334 88.2804 72.7663 91.2108 70.73C92.3885 69.9117 93.937 71.0578 93.4991 72.4223H93.5001Z" fill="#7D0B15"/>
<path d="M98.432 86.5183C98.5652 87.9921 97.4795 89.2944 96.0057 89.4285C94.5319 89.5617 93.2296 88.476 93.0955 87.0022C92.9623 85.5284 95.2334 80.9048 95.2334 80.9048C95.2334 80.9048 98.2988 85.0455 98.432 86.5183Z" fill="white"/>
<path d="M86.3144 103.611C82.2638 102.791 77.9804 103.134 73.949 104.845C65.1522 108.58 60.2133 117.706 61.0671 127.103C60.8707 127.382 60.6809 127.662 60.497 127.945C60.1271 128.513 59.2436 128.318 59.1525 127.645C57.8158 117.882 62.7891 108.205 71.9156 104.33C76.6283 102.33 81.686 102.2 86.3144 103.611Z" fill="#AD382D"/>
<path d="M54.5573 81.1396C54.312 81.2785 54.1002 81.4941 53.9555 81.7922C52.4031 85.0062 49.95 88.0755 46.7024 90.5861C43.4559 93.0948 39.8681 94.6989 36.3676 95.3927C34.9618 95.6716 34.7098 97.5824 35.9968 98.2148C36.6589 98.5406 37.3402 98.8175 38.0331 99.0437C36.6359 98.7917 35.2647 98.3403 33.9624 97.7012C32.6764 97.0687 32.9275 95.1589 34.3332 94.8791C37.8337 94.1853 41.4215 92.5812 44.668 90.0725C47.9156 87.5618 50.3687 84.4925 51.9211 81.2785C52.4625 80.1555 53.9804 80.189 54.5563 81.1405L54.5573 81.1396Z" fill="#AD382D"/>
<path d="M77.2124 82.5693C73.2883 81.8794 69.7916 79.5575 67.5023 76.2122C66.6926 75.0288 67.8502 73.4889 69.2119 73.9373C69.7025 74.0993 70.2037 74.244 70.7154 74.3733C69.6095 74.4088 68.8334 75.7015 69.5358 76.7268C71.4207 79.4818 74.1239 81.5421 77.2114 82.5693H77.2124Z" fill="#AD382D"/>
<path d="M63.4609 71.1402C65.0267 59.8979 83.8987 50.6689 95.898 67.2152C81.4158 59.7177 73.5907 62.6519 63.4609 71.1402Z" fill="#2D0400"/>
<path d="M53.9043 75.1974C44.729 68.5165 24.9812 75.6833 28.5517 95.8077C33.2155 80.1814 40.7618 76.5888 53.9043 75.1974Z" fill="#2D0400"/>
<path d="M31.6359 33.4892L30.1008 34.1006C28.9921 34.5423 28.1133 35.4211 27.6716 36.5298L27.0602 38.0649C26.7516 38.8392 25.6564 38.8392 25.3478 38.0649L24.7364 36.5298C24.2947 35.4211 23.4159 34.5423 22.3072 34.1006L20.7721 33.4892C19.9978 33.1807 19.9978 32.0854 20.7721 31.7768L22.3072 31.1654C23.4159 30.7237 24.2947 29.845 24.7364 28.7363L25.3478 27.2011C25.6564 26.4269 26.7516 26.4269 27.0602 27.2011L27.6716 28.7363C28.1133 29.845 28.9921 30.7237 30.1008 31.1654L31.6359 31.7768C32.4102 32.0854 32.4102 33.1807 31.6359 33.4892Z" fill="#E6E6E6"/>
<path d="M154.226 122.593L152.691 123.204C151.582 123.646 150.703 124.525 150.261 125.633L149.65 127.169C149.341 127.943 148.246 127.943 147.938 127.169L147.326 125.633C146.885 124.525 146.006 123.646 144.897 123.204L143.362 122.593C142.588 122.284 142.588 121.189 143.362 120.881L144.897 120.269C146.006 119.827 146.885 118.949 147.326 117.84L147.938 116.305C148.246 115.531 149.341 115.531 149.65 116.305L150.261 117.84C150.703 118.949 151.582 119.827 152.691 120.269L154.226 120.881C155 121.189 155 122.284 154.226 122.593Z" fill="#545454"/>
<path d="M89.6851 5.8128L88.3857 6.33026C87.4476 6.70398 86.704 7.44759 86.3303 8.38572L85.8128 9.68512C85.5522 10.3406 84.6246 10.3406 84.3639 9.68512L83.8465 8.38572C83.4727 7.44759 82.7291 6.70398 81.791 6.33026L80.4916 5.8128C79.8361 5.55215 79.8361 4.62456 80.4916 4.36391L81.791 3.84645C82.7291 3.47273 83.4727 2.72912 83.8465 1.79099L84.3639 0.491587C84.6246 -0.163862 85.5522 -0.163862 85.8128 0.491587L86.3303 1.79099C86.704 2.72912 87.4476 3.47273 88.3857 3.84645L89.6851 4.36391C90.3406 4.62456 90.3406 5.55215 89.6851 5.8128Z" fill="#545454"/>
<path d="M23.0903 125.906C25.3925 125.906 27.2587 124.039 27.2587 121.737C27.2587 119.435 25.3925 117.569 23.0903 117.569C20.7881 117.569 18.9219 119.435 18.9219 121.737C18.9219 124.039 20.7881 125.906 23.0903 125.906Z" fill="#E6E6E6"/>
<path d="M175.04 23.4085C175.569 21.1679 174.181 18.9229 171.941 18.394C169.7 17.8652 167.455 19.2529 166.926 21.4935C166.397 23.7341 167.785 25.9791 170.026 26.5079C172.266 27.0368 174.511 25.6491 175.04 23.4085Z" fill="#545454"/>
<path d="M58.3012 34.9583C60.6034 34.9583 62.4697 33.092 62.4697 30.7898C62.4697 28.4877 60.6034 26.6214 58.3012 26.6214C55.9991 26.6214 54.1328 28.4877 54.1328 30.7898C54.1328 33.092 55.9991 34.9583 58.3012 34.9583Z" fill="#D9D9D9"/>
<path d="M118.6 150.144C120.727 149.263 121.737 146.825 120.856 144.698C119.975 142.571 117.537 141.561 115.41 142.442C113.283 143.323 112.273 145.762 113.154 147.889C114.035 150.015 116.473 151.025 118.6 150.144Z" fill="#D9D9D9"/>
<path d="M137.772 15.1558C137.772 16.0997 137.006 16.8654 136.062 16.8654H135.262C134.318 16.8654 133.552 17.631 133.552 18.5749V19.375C133.552 20.3189 132.787 21.0846 131.843 21.0846C130.899 21.0846 130.133 20.3189 130.133 19.375V18.5749C130.133 17.631 129.368 16.8654 128.424 16.8654H127.624C126.68 16.8654 125.914 16.0997 125.914 15.1558C125.914 14.2119 126.68 13.4463 127.624 13.4463H128.424C129.368 13.4463 130.133 12.6806 130.133 11.7368V10.9366C130.133 9.99273 130.899 9.22708 131.843 9.22708C132.787 9.22708 133.552 9.99273 133.552 10.9366V11.7368C133.552 12.6806 134.318 13.4463 135.262 13.4463H136.062C137.006 13.4463 137.772 14.2119 137.772 15.1558Z" fill="#D9D9D9"/>
<path d="M72.0372 150.462C72.0372 151.406 71.2715 152.171 70.3276 152.171H69.5275C68.5836 152.171 67.818 152.937 67.818 153.881V154.681C67.818 155.625 67.0523 156.391 66.1084 156.391C65.1645 156.391 64.3989 155.625 64.3989 154.681V153.881C64.3989 152.937 63.6333 152.171 62.6894 152.171H61.8892C60.9453 152.171 60.1797 151.406 60.1797 150.462C60.1797 149.518 60.9453 148.752 61.8892 148.752H62.6894C63.6333 148.752 64.3989 147.987 64.3989 147.043V146.243C64.3989 145.299 65.1645 144.533 66.1084 144.533C67.0523 144.533 67.818 145.299 67.818 146.243V147.043C67.818 147.987 68.5836 148.752 69.5275 148.752H70.3276C71.2715 148.752 72.0372 149.518 72.0372 150.462Z" fill="#545454"/>
<path d="M11.8575 84.8212C11.8575 85.7651 11.0918 86.5308 10.148 86.5308H9.34781C8.40393 86.5308 7.63828 87.2964 7.63828 88.2403V89.0405C7.63828 89.9843 6.87263 90.75 5.92875 90.75C4.98486 90.75 4.21921 89.9843 4.21921 89.0405V88.2403C4.21921 87.2964 3.45356 86.5308 2.50968 86.5308H1.70953C0.765649 86.5308 0 85.7651 0 84.8212C0 83.8773 0.765649 83.1117 1.70953 83.1117H2.50968C3.45356 83.1117 4.21921 82.3461 4.21921 81.4022V80.602C4.21921 79.6581 4.98486 78.8925 5.92875 78.8925C6.87263 78.8925 7.63828 79.6581 7.63828 80.602V81.4022C7.63828 82.3461 8.40393 83.1117 9.34781 83.1117H10.148C11.0918 83.1117 11.8575 83.8773 11.8575 84.8212Z" fill="#D9D9D9"/>
<path d="M187.014 72.5076C187.014 73.4515 186.248 74.2171 185.304 74.2171H184.504C183.56 74.2171 182.795 74.9828 182.795 75.9267V76.7268C182.795 77.6707 182.029 78.4364 181.085 78.4364C180.141 78.4364 179.375 77.6707 179.375 76.7268V75.9267C179.375 74.9828 178.61 74.2171 177.666 74.2171H176.866C175.922 74.2171 175.156 73.4515 175.156 72.5076C175.156 71.5637 175.922 70.7981 176.866 70.7981H177.666C178.61 70.7981 179.375 70.0324 179.375 69.0885V68.2884C179.375 67.3445 180.141 66.5789 181.085 66.5789C182.029 66.5789 182.795 67.3445 182.795 68.2884V69.0885C182.795 70.0324 183.56 70.7981 184.504 70.7981H185.304C186.248 70.7981 187.014 71.5637 187.014 72.5076Z" fill="#E6E6E6"/>
</svg>
