<svg width="68" height="64" viewBox="0 0 68 64" fill="none" xmlns="http://www.w3.org/2000/svg">
<g clip-path="url(#clip0_1991_748)">
<path d="M13.0395 6.61523C12.6346 6.63604 12.2609 6.94808 12.2505 7.38494C12.2505 7.43695 12.1259 13.0537 8.48194 17.9112C8.22239 18.2544 8.29507 18.7433 8.63766 19.0033C8.98026 19.2634 9.4682 19.1906 9.72774 18.8473C13.6832 13.5946 13.8077 7.65538 13.8181 7.40574C13.8181 6.97928 13.4755 6.62564 13.0499 6.61523H13.0395Z" fill="#A4895D"/>
<path d="M9.73803 46.9624C10.0391 46.9624 10.3298 46.7856 10.4544 46.4839C12.3023 42.0113 8.94902 35.9057 8.80368 35.6457C8.59604 35.2712 8.11849 35.136 7.74475 35.344C7.37101 35.552 7.23605 36.0305 7.44368 36.405C7.47482 36.457 10.5686 42.1153 9.01131 45.8807C8.80368 46.3903 9.17742 46.9624 9.72765 46.9624H9.73803Z" fill="#A4895D"/>
<path d="M63.3076 48.5747C63.7332 48.5747 64.0862 48.221 64.0862 47.7946V33.9919C65.467 33.0557 65.467 31.0275 64.0862 30.0913V5.46075C64.5949 5.17991 64.9375 4.69104 64.9375 4.12937V1.58102C64.9375 0.707297 64.1277 0 63.1207 0H4.44345C3.42605 0 2.62666 0.696896 2.62666 1.58102V4.11897C2.62666 4.69104 2.96925 5.17991 3.47796 5.46075V30.0809C2.09719 31.0171 2.09719 33.0453 3.47796 33.9815V47.7842C3.47796 48.2106 3.83093 48.5643 4.25658 48.5643C4.68223 48.5643 5.03521 48.2106 5.03521 47.7842V34.3871H10.6413C11.6483 35.7809 15.8218 41.8866 15.9983 47.7946C16.0086 48.221 16.3616 48.5539 16.7769 48.5539H16.7977C17.2233 48.5435 17.5659 48.1794 17.5555 47.753C17.3894 42.0634 13.9635 36.4466 12.4062 34.1791C13.8596 33.5238 14.2853 31.6516 13.1744 30.445C18.9155 27.0229 21.0749 18.785 21.8847 12.6377C28.6016 17.152 38.9937 17.1208 45.6691 12.6377C46.4789 18.785 48.6486 27.0229 54.3793 30.445C53.2789 31.6516 53.6941 33.5238 55.1476 34.1791C53.5903 36.4466 50.1644 42.0634 49.9983 47.753C49.9879 48.1794 50.3201 48.5435 50.7561 48.5539H50.7769C51.1922 48.5539 51.5451 48.221 51.5555 47.7946C51.7216 41.8762 55.9054 35.7705 56.9125 34.3871H62.5186V47.7842C62.5186 48.2106 62.8715 48.5643 63.2972 48.5643L63.3076 48.5747ZM56.1235 32.8373C55.6874 32.8373 55.3241 32.4837 55.3241 32.0364C55.3241 31.5891 55.677 31.2355 56.1235 31.2355H62.7677C63.2038 31.2355 63.5671 31.5891 63.5671 32.0364C63.5671 32.4837 63.2141 32.8373 62.7677 32.8373H56.1235ZM63.1311 1.56021C63.2557 1.56021 63.3491 1.60182 63.3906 1.63302L63.4114 4.05656C63.3076 4.20218 65.4462 4.18138 4.20467 4.11897L4.18391 1.64343C4.28773 1.50821 0.353069 1.56021 63.1415 1.56021H63.1311ZM44.797 5.69998C40.717 11.8784 26.7641 11.816 22.7671 5.69998H44.797ZM11.4511 31.2459C11.8871 31.2459 12.2505 31.5995 12.2505 32.0468C12.2505 32.4941 11.8975 32.8477 11.4511 32.8477H4.80681C4.37078 32.8477 4.00742 32.4941 4.00742 32.0468C4.00742 31.5995 4.3604 31.2459 4.80681 31.2459H11.4511ZM11.285 29.6857H5.04559V5.69998H20.8154C20.7946 8.68519 20.2859 25.8059 11.285 29.6753V29.6857ZM22.1027 10.8695C22.2273 9.64213 22.2896 8.53957 22.3311 7.64505C27.5738 13.293 39.9799 13.3138 45.2538 7.62425C45.2954 8.51877 45.3577 9.62132 45.4822 10.8591C39.1806 15.6438 28.4251 15.6542 22.1027 10.8591V10.8695ZM46.7696 5.69998H62.5393V29.6753H56.2999C47.299 25.7955 46.7903 8.67479 46.7696 5.69998Z" fill="#A4895D"/>
<path d="M58.48 19.1595C59.1133 19.1595 59.487 18.4314 59.1029 17.9113C55.4693 13.0747 55.3344 7.43711 55.3344 7.3851C55.3344 6.95864 55.0021 6.57379 54.5453 6.6154C54.1197 6.6154 53.7771 6.97945 53.7771 7.4059C53.7771 7.65554 53.9121 13.5948 57.8675 18.8475C58.0232 19.0555 58.2516 19.1595 58.4904 19.1595H58.48Z" fill="#A4895D"/>
<path d="M59.8295 35.344C59.4558 35.136 58.9782 35.2712 58.7706 35.6457C58.6252 35.9057 55.2719 42.0113 57.1199 46.4839C57.2445 46.7856 57.5352 46.9624 57.8362 46.9624C58.3968 46.9624 58.7706 46.4007 58.5526 45.8807C56.9953 42.1153 60.089 36.457 60.1202 36.405C60.3278 36.0305 60.1929 35.552 59.8191 35.344H59.8295Z" fill="#A4895D"/>
<path d="M23.1096 28.6351V43.4155C23.1096 43.842 23.4626 44.1956 23.8882 44.1956C24.3139 44.1956 24.6669 43.842 24.6669 43.4155V28.6351C24.6669 28.2086 24.3139 27.855 23.8882 27.855C23.4626 27.855 23.1096 28.2086 23.1096 28.6351Z" fill="#A4895D"/>
<path d="M33.0034 28.6351V43.4155C33.0034 43.842 33.3564 44.1956 33.782 44.1956C34.2077 44.1956 34.5607 43.842 34.5607 43.4155V28.6351C34.5607 28.2086 34.2077 27.855 33.782 27.855C33.3564 27.855 33.0034 28.2086 33.0034 28.6351Z" fill="#A4895D"/>
<path d="M42.9075 28.6351V43.4155C42.9075 43.842 43.2604 44.1956 43.6861 44.1956C44.1117 44.1956 44.4647 43.842 44.4647 43.4155V28.6351C44.4647 28.2086 44.1117 27.855 43.6861 27.855C43.2604 27.855 42.9075 28.2086 42.9075 28.6351Z" fill="#A4895D"/>
<path d="M0.778626 64H67.2214C67.647 64 68 63.6464 68 63.2199C68 62.7934 67.647 62.4398 67.2214 62.4398H63.4113V53.6298C63.4113 51.4767 61.6672 49.7292 59.5182 49.7292H54.0159C51.8669 49.7292 50.1227 51.4767 50.1227 53.6298V62.4398H48.2333V53.6298C48.2333 51.4767 46.4892 49.7292 44.3402 49.7292H38.8379C36.6889 49.7292 34.9447 51.4767 34.9447 53.6298V62.4398H33.0553V53.6298C33.0553 51.4767 31.3111 49.7292 29.1621 49.7292H23.6702C21.5212 49.7292 19.7771 51.4767 19.7771 53.6298V62.4398H17.8876V53.6298C17.8876 51.4767 16.1435 49.7292 13.9945 49.7292H8.49221C6.34321 49.7292 4.59908 51.4767 4.59908 53.6298V62.4398H0.778626C0.352977 62.4398 0 62.7934 0 63.2199C0 63.6464 0.352977 64 0.778626 64ZM51.68 53.6298C51.68 52.34 52.7285 51.2895 54.0159 51.2895H59.5182C60.8055 51.2895 61.854 52.34 61.854 53.6298V62.4398H51.68V53.6298ZM36.502 53.6298C36.502 52.34 37.5505 51.2895 38.8379 51.2895H44.3402C45.6275 51.2895 46.676 52.34 46.676 53.6298V62.4398H36.502V53.6298ZM21.324 53.6298C21.324 52.34 22.3725 51.2895 23.6598 51.2895H29.1518C30.4391 51.2895 31.4876 52.34 31.4876 53.6298V62.4398H21.324V53.6298ZM6.14595 53.6298C6.14595 52.34 7.1945 51.2895 8.48183 51.2895H13.9841C15.2715 51.2895 16.32 52.34 16.32 53.6298V62.4398H6.14595V53.6298Z" fill="#A4895D"/>
</g>
<defs>
<clipPath id="clip0_1991_748">
<rect width="68" height="64" fill="white"/>
</clipPath>
</defs>
</svg>
