<svg width="68" height="63" viewBox="0 0 68 63" fill="none" xmlns="http://www.w3.org/2000/svg">
<path d="M34.7242 57.1329C33.2306 57.1329 29.2878 56.7597 27.4059 52.9081C27.2715 52.6244 27.152 52.3258 27.0774 52.0273H0.896107C0.403248 52.0273 0 51.6242 0 51.1315V0.895735C0 0.403081 0.403248 0 0.896107 0H67.1035C67.5964 0 67.9996 0.403081 67.9996 0.895735V7.89739C67.9996 8.39005 67.5964 8.79313 67.1035 8.79313H23.4183V28.6187H67.1035C67.5964 28.6187 67.9996 29.0218 67.9996 29.5145V51.1315C67.9996 51.6242 67.5964 52.0273 67.1035 52.0273H43.3567C43.282 52.3408 43.1625 52.6244 43.0281 52.9081C40.8625 57.327 35.9638 57.1628 35.217 57.118C35.1125 57.1329 34.9482 57.1329 34.7242 57.1329ZM35.217 55.3265C35.2469 55.3265 35.2768 55.3265 35.3066 55.3265C35.4858 55.3415 39.6677 55.6848 41.4151 52.1168C41.5794 51.7884 41.669 51.4301 41.7138 51.0419C41.7586 50.5791 42.1469 50.2358 42.6099 50.2358H66.2223V30.4102H22.5222C22.0293 30.4102 21.6261 30.0071 21.6261 29.5145V7.89739C21.6261 7.40474 22.0293 7.00166 22.5222 7.00166H66.2074V1.79147H1.79221V50.2358H27.8241C28.2871 50.2358 28.6754 50.5941 28.7202 51.0419C28.7501 51.4301 28.8547 51.7884 29.0189 52.1168C30.7663 55.6848 34.9631 55.3415 35.1274 55.3265C35.1573 55.3265 35.1871 55.3265 35.217 55.3265ZM35.217 46.5334C33.6787 46.5334 32.4241 45.2794 32.4241 43.7417C32.4241 42.204 33.6787 40.95 35.217 40.95C36.7553 40.95 38.0099 42.204 38.0099 43.7417C37.9949 45.2794 36.7553 46.5334 35.217 46.5334ZM35.217 42.7415C34.6644 42.7415 34.2164 43.1893 34.2164 43.7417C34.2164 44.2941 34.6644 44.7419 35.217 44.7419C35.7696 44.7419 36.2177 44.2941 36.2177 43.7417C36.2027 43.1893 35.7696 42.7415 35.217 42.7415Z" fill="#A4895D"/>
<path d="M35.217 46.5334C33.6787 46.5334 32.4241 45.2794 32.4241 43.7417C32.4241 42.204 33.6787 40.95 35.217 40.95C36.7553 40.95 38.0099 42.204 38.0099 43.7417C37.9949 45.2794 36.7553 46.5334 35.217 46.5334ZM35.217 42.7415C34.6644 42.7415 34.2164 43.1893 34.2164 43.7417C34.2164 44.2941 34.6644 44.7419 35.217 44.7419C35.7696 44.7419 36.2177 44.2941 36.2177 43.7417C36.2027 43.1893 35.7696 42.7415 35.217 42.7415Z" fill="#A4895D"/>
<path d="M67.1184 30.4102L22.5222 30.4102C22.0293 30.4102 21.6261 30.0071 21.6261 29.5145V7.89739C21.6261 7.40474 22.0293 7.00166 22.5222 7.00166H67.1035C67.5964 7.00166 67.9996 7.40474 67.9996 7.89739V29.5145C68.0145 30.0071 67.6113 30.4102 67.1184 30.4102ZM23.4183 28.6187L66.2074 28.6187V8.79313H23.4183V28.6187Z" fill="#A4895D"/>
<path d="M28.3319 17.4071C28.1079 17.4071 27.8689 17.3175 27.7046 17.1384C27.3611 16.795 27.3611 16.2277 27.7046 15.8694L32.5138 11.0623C32.8573 10.719 33.4248 10.719 33.7832 11.0623C34.1267 11.4057 34.1267 11.973 33.7832 12.3313L28.9741 17.1384C28.7949 17.3175 28.5559 17.4071 28.3319 17.4071Z" fill="#A4895D"/>
<path d="M56.1112 29.6339C55.6184 29.6339 55.2151 29.2308 55.2151 28.7382V8.53934C55.2151 8.04668 55.6184 7.6436 56.1112 7.6436C56.6041 7.6436 57.0074 8.04668 57.0074 8.53934V28.7382C57.0074 29.2308 56.619 29.6339 56.1112 29.6339Z" fill="#A4895D"/>
<path d="M6.36236 63C6.04872 63 5.73509 62.8358 5.5708 62.5372C5.33184 62.1043 5.48119 61.5519 5.91431 61.313L11.1267 58.4318V29.5145C11.1267 29.0218 11.5299 28.6187 12.0228 28.6187C12.5156 28.6187 12.9189 29.0218 12.9189 29.5145V58.9692C12.9189 59.2976 12.7397 59.5962 12.4559 59.7455L6.78054 62.8806C6.66106 62.9701 6.51171 63 6.36236 63Z" fill="#A4895D"/>
<path d="M17.728 63C17.5786 63 17.4293 62.9701 17.2949 62.8806L11.6195 59.7455C11.3358 59.5813 11.1565 59.2827 11.1565 58.9692V29.5145C11.1565 29.0218 11.5598 28.6187 12.0526 28.6187C12.5455 28.6187 12.9487 29.0218 12.9487 29.5145V58.4467L18.1611 61.328C18.5942 61.5668 18.7436 62.1192 18.5046 62.5521C18.3403 62.8358 18.0416 63 17.728 63Z" fill="#A4895D"/>
<path d="M6.04872 32.3509C5.80976 32.3509 5.55586 32.2464 5.39158 32.0524C5.06301 31.6791 5.09288 31.1118 5.45132 30.7834L8.43834 28.0813C8.81172 27.7528 9.37926 27.7827 9.70783 28.141C10.0364 28.5142 10.0065 29.0815 9.64809 29.41L6.66106 32.1121C6.48184 32.2763 6.25782 32.3509 6.04872 32.3509Z" fill="#A4895D"/>
<path d="M10.2754 30.9924C9.99159 30.9924 9.70783 30.8581 9.54354 30.6043L7.33314 27.4393C7.10912 27.1109 7.12405 26.678 7.36301 26.3645L11.0819 21.6469C11.3955 21.2588 11.9481 21.1991 12.3364 21.4976C12.7247 21.8111 12.7845 22.3635 12.4858 22.7517L9.17016 26.9318L10.4994 28.8277L15.0098 25.827C15.428 25.5583 15.9806 25.6628 16.2494 26.0808C16.5182 26.4988 16.4137 27.0512 15.9955 27.3199L10.7533 30.7983C10.6189 30.9476 10.4396 30.9924 10.2754 30.9924Z" fill="#A4895D"/>
<path d="M16.5929 28.4097C16.354 28.4097 16.115 28.3201 15.9358 28.1261L10.2903 22.05C9.94679 21.6917 9.97666 21.1244 10.3351 20.781C10.6935 20.4377 11.2611 20.4675 11.6046 20.8258L17.2501 26.9019C17.5936 27.2602 17.5637 27.8275 17.2053 28.1709C17.041 28.3201 16.8169 28.4097 16.5929 28.4097Z" fill="#A4895D"/>
<path d="M15.9955 27.3199C15.7117 27.3199 15.4429 27.1855 15.2637 26.9467C14.9799 26.5436 15.0546 25.9912 15.4578 25.6927C16.1598 25.1851 16.6228 24.4088 16.7124 23.5727C16.7871 22.9457 16.6377 22.3635 16.3241 22.0052C15.9955 21.632 15.3981 21.423 14.741 21.423C13.8747 21.4379 13.0384 21.841 12.4708 22.5427C12.1572 22.9308 11.5897 22.9756 11.2163 22.6621C10.828 22.3486 10.7832 21.7813 11.0968 21.4081C12.0078 20.3033 13.3221 19.6614 14.726 19.6315C15.9208 19.6166 16.9962 20.0495 17.6832 20.8109C18.3403 21.5424 18.639 22.6173 18.5196 23.7519C18.3702 25.0806 17.6533 26.3047 16.5332 27.1258C16.354 27.2602 16.1747 27.3199 15.9955 27.3199Z" fill="#A4895D"/>
<path d="M36.2625 25.2597H34.1566C33.3053 25.2597 32.6332 24.573 32.6332 23.737V19.4524C32.6332 18.6014 33.3203 17.9296 34.1566 17.9296H36.2625C37.1138 17.9296 37.7859 18.6164 37.7859 19.4524V23.737C37.8008 24.573 37.1138 25.2597 36.2625 25.2597ZM34.4254 23.4682H36.0086V19.7062H34.4254V23.4682Z" fill="#A4895D"/>
<path d="M35.217 42.7863C34.7242 42.7863 34.3209 42.3832 34.3209 41.8905V24.364C34.3209 23.8713 34.7242 23.4682 35.217 23.4682C35.7099 23.4682 36.1131 23.8713 36.1131 24.364V41.8905C36.1131 42.3832 35.7099 42.7863 35.217 42.7863Z" fill="#A4895D"/>
<path d="M35.217 46.5334C33.6787 46.5334 32.4241 45.2794 32.4241 43.7417C32.4241 42.204 33.6787 40.95 35.217 40.95C36.7553 40.95 38.0099 42.204 38.0099 43.7417C37.9949 45.2794 36.7553 46.5334 35.217 46.5334ZM35.217 42.7415C34.6644 42.7415 34.2164 43.1893 34.2164 43.7417C34.2164 44.2941 34.6644 44.7419 35.217 44.7419C35.7696 44.7419 36.2177 44.2941 36.2177 43.7417C36.2027 43.1893 35.7696 42.7415 35.217 42.7415Z" fill="#A4895D"/>
<path d="M35.217 61.4623C34.7242 61.4623 34.3209 61.0592 34.3209 60.5666V56.2223C34.3209 55.7296 34.7242 55.3265 35.217 55.3265C35.7099 55.3265 36.1131 55.7296 36.1131 56.2223V60.5666C36.1131 61.0592 35.7099 61.4623 35.217 61.4623Z" fill="#A4895D"/>
<path d="M42.6099 52.0273C42.58 52.0273 42.5502 52.0273 42.5203 52.0273C42.0274 51.9825 41.669 51.5495 41.7138 51.0569C41.8333 49.7282 41.1911 48.086 40.0261 46.7573C38.4579 44.9808 38.8612 43.7118 39.354 42.1294C39.4586 41.786 39.593 41.3829 39.6975 40.95C39.9365 40.0841 39.7573 39.2182 39.2346 38.5166C38.5027 37.5611 37.1735 37.0386 35.5008 37.0386C35.0079 37.0386 34.6047 36.6355 34.6047 36.1429C34.6047 35.6502 35.0079 35.2472 35.5008 35.2472C37.756 35.2472 39.5781 36.0235 40.6683 37.4118C41.5346 38.5464 41.8183 39.9945 41.445 41.3979C41.3255 41.8756 41.1911 42.2787 41.0716 42.6519C40.6086 44.1448 40.4742 44.5479 41.3852 45.563C42.8787 47.2799 43.6703 49.3848 43.506 51.2062C43.4463 51.6839 43.0579 52.0273 42.6099 52.0273Z" fill="#A4895D"/>
<path d="M41.9378 60.701C41.6989 60.701 41.4599 60.5964 41.2807 60.4024L37.8157 56.6254C37.4871 56.2671 37.5021 55.6998 37.8755 55.3564C38.2339 55.028 38.8014 55.0429 39.1449 55.4161L42.6099 59.1931C42.9385 59.5514 42.9235 60.1187 42.5502 60.4621C42.3709 60.6263 42.1469 60.701 41.9378 60.701Z" fill="#A4895D"/>
<path d="M35.217 61.4623C34.7242 61.4623 34.3209 61.0592 34.3209 60.5666V56.2223C34.3209 55.7296 34.7242 55.3265 35.217 55.3265C35.7099 55.3265 36.1131 55.7296 36.1131 56.2223V60.5666C36.1131 61.0592 35.7099 61.4623 35.217 61.4623Z" fill="#A4895D"/>
<path d="M27.8241 52.0273C27.3611 52.0273 26.9728 51.6839 26.928 51.2211C26.7637 49.3998 27.5553 47.2799 29.0488 45.578C29.9449 44.5479 29.8254 44.1448 29.3624 42.6519C29.243 42.2936 29.1235 41.8756 28.9891 41.3979C28.6157 39.9945 28.8995 38.5464 29.7657 37.4118C30.841 36.0085 32.678 35.2472 34.9332 35.2472C35.4261 35.2472 35.8294 35.6502 35.8294 36.1429C35.8294 36.6355 35.4261 37.0386 34.9332 37.0386C33.2456 37.0386 31.9163 37.5611 31.1995 38.5166C30.6618 39.2182 30.4975 40.0841 30.7365 40.95C30.856 41.3829 30.9754 41.786 31.08 42.1294C31.5728 43.7268 31.9761 44.9808 30.4079 46.7723C29.243 48.1009 28.6008 49.7431 28.7202 51.0718C28.765 51.5645 28.4066 51.9974 27.9137 52.0422C27.8839 52.0273 27.854 52.0273 27.8241 52.0273Z" fill="#A4895D"/>
<path d="M28.4962 60.701C28.2871 60.701 28.0631 60.6263 27.8988 60.4621C27.5404 60.1337 27.5105 59.5664 27.8391 59.1931L31.304 55.4161C31.6326 55.0578 32.2001 55.028 32.5735 55.3564C32.9319 55.6848 32.9618 56.2521 32.6332 56.6254L29.1683 60.4024C28.9741 60.5964 28.7352 60.701 28.4962 60.701Z" fill="#A4895D"/>
<path d="M37.0988 49.9969H33.4696C32.9767 49.9969 32.5735 49.5938 32.5735 49.1012C32.5735 48.6085 32.9767 48.2054 33.4696 48.2054H37.0988C37.5917 48.2054 37.9949 48.6085 37.9949 49.1012C37.9949 49.5938 37.6066 49.9969 37.0988 49.9969Z" fill="#A4895D"/>
</svg>
