<svg width="66" height="62" viewBox="0 0 66 62" fill="none" xmlns="http://www.w3.org/2000/svg">
<g clip-path="url(#clip0_1717_2395)">
<path d="M12.56 6.36C12.17 6.38 11.81 6.68 11.8 7.1C11.8 7.15 11.68 12.55 8.17005 17.22C7.92005 17.55 7.99005 18.02 8.32005 18.27C8.65005 18.52 9.12005 18.45 9.37005 18.12C13.18 13.07 13.3 7.36 13.31 7.12C13.31 6.71 12.98 6.37 12.57 6.36H12.56Z" fill="white"/>
<path d="M9.38007 45.15C9.67007 45.15 9.95007 44.98 10.0701 44.69C11.8501 40.39 8.62007 34.52 8.48007 34.27C8.28007 33.91 7.82007 33.78 7.46007 33.98C7.10007 34.18 6.97008 34.64 7.17008 35C7.20008 35.05 10.1801 40.49 8.68008 44.11C8.48008 44.6 8.84007 45.15 9.37007 45.15H9.38007Z" fill="white"/>
<path d="M60.98 46.7C61.39 46.7 61.73 46.36 61.73 45.95V32.68C63.06 31.78 63.06 29.83 61.73 28.93V5.25C62.22 4.98 62.55 4.51 62.55 3.97V1.52C62.55 0.68 61.77 0 60.8 0H4.28004C3.30004 0 2.53004 0.67 2.53004 1.52V3.96C2.53004 4.51 2.86004 4.98 3.35004 5.25V28.92C2.02004 29.82 2.02004 31.77 3.35004 32.67V45.94C3.35004 46.35 3.69004 46.69 4.10004 46.69C4.51004 46.69 4.85004 46.35 4.85004 45.94V33.06H10.25C11.22 34.4 15.24 40.27 15.41 45.95C15.42 46.36 15.76 46.68 16.16 46.68H16.18C16.59 46.67 16.92 46.32 16.91 45.91C16.75 40.44 13.45 35.04 11.95 32.86C13.35 32.23 13.76 30.43 12.69 29.27C18.22 25.98 20.3 18.06 21.08 12.15C27.55 16.49 37.56 16.46 43.99 12.15C44.77 18.06 46.86 25.98 52.38 29.27C51.32 30.43 51.72 32.23 53.12 32.86C51.62 35.04 48.32 40.44 48.16 45.91C48.15 46.32 48.47 46.67 48.89 46.68H48.91C49.31 46.68 49.65 46.36 49.66 45.95C49.82 40.26 53.85 34.39 54.82 33.06H60.22V45.94C60.22 46.35 60.56 46.69 60.97 46.69L60.98 46.7ZM54.06 31.57C53.64 31.57 53.29 31.23 53.29 30.8C53.29 30.37 53.63 30.03 54.06 30.03H60.46C60.88 30.03 61.23 30.37 61.23 30.8C61.23 31.23 60.89 31.57 60.46 31.57H54.06ZM60.81 1.5C60.93 1.5 61.02 1.54 61.06 1.57L61.08 3.9C60.98 4.04 63.04 4.02 4.05004 3.96L4.03004 1.58C4.13004 1.45 0.340038 1.5 60.82 1.5H60.81ZM43.15 5.48C39.22 11.42 25.78 11.36 21.93 5.48H43.15ZM11.03 30.04C11.45 30.04 11.8 30.38 11.8 30.81C11.8 31.24 11.46 31.58 11.03 31.58H4.63004C4.21004 31.58 3.86004 31.24 3.86004 30.81C3.86004 30.38 4.20004 30.04 4.63004 30.04H11.03ZM10.87 28.54H4.86004V5.48H20.05C20.03 8.35 19.54 24.81 10.87 28.53V28.54ZM21.29 10.45C21.41 9.27 21.47 8.21 21.51 7.35C26.56 12.78 38.51 12.8 43.59 7.33C43.63 8.19 43.69 9.25 43.81 10.44C37.74 15.04 27.38 15.05 21.29 10.44V10.45ZM45.05 5.48H60.24V28.53H54.23C45.56 24.8 45.07 8.34 45.05 5.48Z" fill="white"/>
<path d="M56.3301 18.42C56.9401 18.42 57.3 17.72 56.93 17.22C53.43 12.57 53.3 7.15 53.3 7.1C53.3 6.69 52.9801 6.32 52.5401 6.36C52.1301 6.36 51.8 6.71 51.8 7.12C51.8 7.36 51.9301 13.07 55.7401 18.12C55.8901 18.32 56.11 18.42 56.34 18.42H56.3301Z" fill="white"/>
<path d="M57.6299 33.98C57.2699 33.78 56.8099 33.91 56.6099 34.27C56.4699 34.52 53.2399 40.39 55.0199 44.69C55.1399 44.98 55.4199 45.15 55.7099 45.15C56.2499 45.15 56.6099 44.61 56.3999 44.11C54.8999 40.49 57.8799 35.05 57.9099 35C58.1099 34.64 57.9799 34.18 57.6199 33.98H57.6299Z" fill="white"/>
<path d="M22.26 27.53V41.74C22.26 42.15 22.6 42.49 23.01 42.49C23.42 42.49 23.76 42.15 23.76 41.74V27.53C23.76 27.12 23.42 26.78 23.01 26.78C22.6 26.78 22.26 27.12 22.26 27.53Z" fill="white"/>
<path d="M31.79 27.53V41.74C31.79 42.15 32.13 42.49 32.54 42.49C32.95 42.49 33.29 42.15 33.29 41.74V27.53C33.29 27.12 32.95 26.78 32.54 26.78C32.13 26.78 31.79 27.12 31.79 27.53Z" fill="white"/>
<path d="M41.3301 27.53V41.74C41.3301 42.15 41.6701 42.49 42.0801 42.49C42.4901 42.49 42.8301 42.15 42.8301 41.74V27.53C42.8301 27.12 42.4901 26.78 42.0801 26.78C41.6701 26.78 41.3301 27.12 41.3301 27.53Z" fill="white"/>
<path d="M0.75 61.53H64.75C65.16 61.53 65.5 61.19 65.5 60.78C65.5 60.37 65.16 60.03 64.75 60.03H61.08V51.56C61.08 49.49 59.4 47.81 57.33 47.81H52.03C49.96 47.81 48.28 49.49 48.28 51.56V60.03H46.46V51.56C46.46 49.49 44.78 47.81 42.71 47.81H37.41C35.34 47.81 33.66 49.49 33.66 51.56V60.03H31.84V51.56C31.84 49.49 30.16 47.81 28.09 47.81H22.8C20.73 47.81 19.05 49.49 19.05 51.56V60.03H17.23V51.56C17.23 49.49 15.55 47.81 13.48 47.81H8.18C6.11 47.81 4.43 49.49 4.43 51.56V60.03H0.75C0.34 60.03 0 60.37 0 60.78C0 61.19 0.34 61.53 0.75 61.53ZM49.78 51.56C49.78 50.32 50.79 49.31 52.03 49.31H57.33C58.57 49.31 59.58 50.32 59.58 51.56V60.03H49.78V51.56ZM35.16 51.56C35.16 50.32 36.17 49.31 37.41 49.31H42.71C43.95 49.31 44.96 50.32 44.96 51.56V60.03H35.16V51.56ZM20.54 51.56C20.54 50.32 21.55 49.31 22.79 49.31H28.08C29.32 49.31 30.33 50.32 30.33 51.56V60.03H20.54V51.56ZM5.92 51.56C5.92 50.32 6.93 49.31 8.17 49.31H13.47C14.71 49.31 15.72 50.32 15.72 51.56V60.03H5.92V51.56Z" fill="white"/>
</g>
<defs>
<clipPath id="clip0_1717_2395">
<rect width="65.5" height="61.53" fill="white"/>
</clipPath>
</defs>
</svg>
