<svg width="65" height="65" viewBox="0 0 65 65" fill="none" xmlns="http://www.w3.org/2000/svg">
<path d="M30.6182 17.4218C30.795 17.5984 31.0347 17.6977 31.2847 17.6977C31.5346 17.6977 31.7744 17.5984 31.9512 17.4218L39.0521 10.3221C39.2281 10.1452 39.3268 9.90579 39.3268 9.65626C39.3268 9.40672 39.2281 9.16733 39.0521 8.99039L36.6861 6.62436C36.5986 6.53682 36.4947 6.46738 36.3803 6.42C36.2659 6.37263 36.1434 6.34824 36.0196 6.34824C35.8958 6.34824 35.7732 6.37263 35.6589 6.42C35.5445 6.46738 35.4406 6.53682 35.3531 6.62436L31.2848 10.6905L29.5823 8.99013C29.4949 8.90266 29.3911 8.83327 29.2768 8.78594C29.1626 8.7386 29.0401 8.71423 28.9164 8.71423C28.7928 8.71423 28.6703 8.7386 28.5561 8.78594C28.4418 8.83327 28.338 8.90266 28.2506 8.99013L25.8846 11.3562C25.7082 11.5329 25.6092 11.7725 25.6092 12.0222C25.6092 12.2719 25.7082 12.5114 25.8846 12.6882L30.6182 17.4218ZM28.9172 10.988L30.6197 12.6884C30.7071 12.7758 30.8109 12.8452 30.9252 12.8925C31.0394 12.9398 31.1618 12.9642 31.2855 12.9642C31.4091 12.9642 31.5315 12.9398 31.6458 12.8925C31.76 12.8452 31.8638 12.7758 31.9512 12.6884L36.0184 8.62066L37.0527 9.65522L31.2848 15.4239L27.8827 12.0223L28.9172 10.988Z" fill="#A4895D"/>
<path d="M32.5032 23.9741C39.1127 23.9741 44.4893 18.597 44.4893 11.988C44.4893 5.37894 39.1127 0 32.5032 0C25.8937 0 20.5171 5.37712 20.5171 11.9861C20.5171 18.5952 25.896 23.9741 32.5032 23.9741ZM32.5032 1.88372C38.074 1.88372 42.6058 6.41636 42.6058 11.9869C42.6058 17.5575 38.074 22.0904 32.5032 22.0904C26.9324 22.0904 22.4016 17.5578 22.4016 11.9861C22.4016 6.41454 26.9337 1.88372 32.5032 1.88372Z" fill="#A4895D"/>
<path d="M64.8662 41.8972L52.041 20.4622C51.9128 20.2479 51.7046 20.0932 51.4623 20.0323C51.22 19.9714 50.9635 20.0092 50.7491 20.1375L44.6263 23.802C44.5202 23.8655 44.4277 23.9493 44.354 24.0486C44.2803 24.1478 44.2269 24.2607 44.1968 24.3806C44.1667 24.5006 44.1606 24.6252 44.1788 24.7475C44.1969 24.8699 44.239 24.9874 44.3026 25.0934L44.3941 25.2463H20.6039L20.6954 25.0934C20.759 24.9874 20.8011 24.8699 20.8193 24.7476C20.8375 24.6253 20.8314 24.5006 20.8013 24.3807C20.7713 24.2607 20.7179 24.1479 20.6443 24.0486C20.5706 23.9493 20.4781 23.8655 20.372 23.802L14.2497 20.1375C14.0353 20.0092 13.7788 19.9714 13.5365 20.0323C13.2942 20.0932 13.086 20.2479 12.9578 20.4622L0.133927 41.8972C0.0703618 42.0032 0.0283114 42.1207 0.0101783 42.243C-0.00795486 42.3653 -0.00181537 42.4899 0.028246 42.6098C0.0583073 42.7297 0.111701 42.8425 0.185377 42.9418C0.259052 43.0411 0.351565 43.1248 0.45763 43.1883L6.58042 46.8526C6.68655 46.9161 6.80416 46.9581 6.92654 46.9762C7.04891 46.9943 7.17365 46.9881 7.29362 46.958C7.4136 46.9278 7.52646 46.8744 7.62577 46.8006C7.72507 46.7268 7.80887 46.6342 7.87238 46.5281L8.20778 45.9673L8.4488 46.449C7.65098 46.8853 7.02104 47.5746 6.65826 48.4084C6.29549 49.2422 6.22053 50.173 6.44519 51.0541C6.66986 51.9352 7.18137 52.7165 7.89909 53.2748C8.61681 53.8331 9.49993 54.1366 10.4092 54.1376C10.7782 54.137 11.1455 54.087 11.5012 53.9889C11.5116 54.1168 11.5272 54.2452 11.5498 54.3731C11.7164 55.3211 12.2118 56.18 12.9488 56.799C13.6858 57.4181 14.6174 57.7575 15.5799 57.7579C15.9489 57.7574 16.3162 57.7073 16.6719 57.6089C16.6823 57.7371 16.6979 57.8653 16.7205 57.9934C16.8879 58.9404 17.3828 59.7985 18.1187 60.4176C18.8546 61.0367 19.7847 61.3776 20.7464 61.3805C20.9877 61.3805 21.2285 61.3592 21.4661 61.3171C21.5932 61.2947 21.7183 61.2651 21.8413 61.232C21.8519 61.3592 21.8673 61.4863 21.8896 61.6137C22.0306 62.4116 22.405 63.1497 22.9654 63.7348C23.5258 64.32 24.2471 64.7258 25.0381 64.9011C25.8291 65.0765 26.6544 65.0133 27.4095 64.7197C28.1647 64.4262 28.8158 63.9153 29.2807 63.2517L29.7934 62.5196L32.2767 64.2577C32.9614 64.7407 33.7788 65 34.6167 65C34.8579 65.0001 35.0987 64.9789 35.3362 64.9368C36.2576 64.7745 37.0956 64.3016 37.7109 63.5968C38.3261 62.8919 38.6814 61.9977 38.7178 61.0628L38.9206 61.205C39.6053 61.688 40.4227 61.9473 41.2606 61.9473C41.5019 61.9474 41.7427 61.9262 41.9803 61.8841C42.9017 61.7218 43.7397 61.2489 44.355 60.5441C44.9702 59.8392 45.3255 58.945 45.3619 58.0101L45.6294 58.1975C46.314 58.6807 47.1315 58.9401 47.9694 58.9401C48.2106 58.9401 48.4514 58.9188 48.6888 58.8767C49.6097 58.7142 50.4472 58.2414 51.0621 57.537C51.6771 56.8325 52.0323 55.9388 52.0689 55.0044L52.2366 55.122C52.9213 55.6049 53.7387 55.8642 54.5766 55.8643C54.8184 55.8643 55.0597 55.8432 55.2978 55.8011C55.8282 55.7092 56.335 55.5129 56.7889 55.2236C57.2428 54.9344 57.6348 54.5579 57.9421 54.116C59.2369 52.2648 58.785 49.7048 56.9442 48.4157L55.932 47.6877L56.79 45.9717L57.1218 46.5263C57.1851 46.6334 57.269 46.7269 57.3688 46.8014C57.4685 46.8759 57.5819 46.9298 57.7026 46.9602C57.8233 46.9905 57.9489 46.9967 58.0719 46.9782C58.195 46.9597 58.3132 46.917 58.4197 46.8526L64.5425 43.1881C64.6485 43.1246 64.741 43.0408 64.8146 42.9416C64.8883 42.8423 64.9417 42.7295 64.9717 42.6097C65.0018 42.4898 65.008 42.3652 64.9898 42.2429C64.9717 42.1207 64.9297 42.0032 64.8662 41.8972ZM6.73929 44.7528L2.23371 42.056L14.0919 22.2375L18.5964 24.9343L6.73929 44.7528ZM9.14509 51.8548C8.66459 51.5178 8.33752 51.0039 8.23572 50.426C8.13393 49.848 8.26574 49.2533 8.6022 48.7724C8.76832 48.5338 8.98013 48.3305 9.22538 48.1743C9.47062 48.0181 9.74442 47.9121 10.0309 47.8624C10.1591 47.8395 10.2891 47.8279 10.4194 47.8276C10.7671 47.8281 11.1098 47.9105 11.4198 48.0681C11.7297 48.2257 11.9982 48.454 12.2035 48.7347C12.4088 49.0154 12.5451 49.3404 12.6014 49.6836C12.6577 50.0267 12.6323 50.3783 12.5275 50.7098C12.4226 51.0414 12.2412 51.3435 11.9978 51.5919C11.7544 51.8403 11.456 52.0278 11.1266 52.1394C10.7973 52.251 10.4463 52.2834 10.1021 52.2341C9.75788 52.1848 9.43012 52.0551 9.14535 51.8555L9.14509 51.8548ZM14.3145 55.475C13.834 55.1379 13.5069 54.6239 13.4051 54.0458C13.3033 53.4678 13.435 52.873 13.7713 52.3919L15.4725 49.9617C15.8108 49.4866 16.3229 49.1642 16.8975 49.0644C17.4721 48.9646 18.0629 49.0956 18.5416 49.4288C19.0202 49.762 19.3481 50.2706 19.454 50.8442C19.5598 51.4177 19.4352 52.0099 19.1071 52.492L17.3983 54.9319C16.6997 55.9319 15.3139 56.1747 14.3145 55.475ZM21.138 59.4627C20.7068 59.5387 20.2627 59.4851 19.862 59.3087C19.4613 59.1324 19.1218 58.8412 18.8865 58.472C18.6512 58.1027 18.5307 57.672 18.5402 57.2343C18.5496 56.7966 18.6886 56.3715 18.9396 56.0127L20.6439 53.5817C20.6463 53.5783 20.6481 53.5747 20.6504 53.5713L22.7437 50.5813C22.9098 50.3426 23.1217 50.1393 23.3669 49.9831C23.6121 49.8269 23.8859 49.7209 24.1724 49.6713C24.3007 49.6484 24.4306 49.6367 24.5609 49.6364C24.9654 49.6375 25.362 49.7494 25.7075 49.9599C26.053 50.1703 26.3342 50.4714 26.5207 50.8304C26.7072 51.1895 26.7918 51.5927 26.7654 51.9964C26.739 52.4001 26.6025 52.7888 26.3708 53.1205L22.568 58.5527C22.4017 58.7915 22.1897 58.9949 21.9443 59.1512C21.6988 59.3074 21.4247 59.4133 21.138 59.4627ZM24.6532 62.7159C24.1722 62.3792 23.8446 61.8653 23.7425 61.2871C23.6404 60.7089 23.7721 60.1138 24.1087 59.6328L25.8112 57.2025C25.9775 56.9637 26.1895 56.7603 26.435 56.604C26.6804 56.4478 26.9545 56.3419 27.2412 56.2925C27.8193 56.191 28.4141 56.3231 28.8949 56.6597C29.3757 56.9963 29.7034 57.5099 29.8059 58.0878C29.8571 58.3742 29.851 58.6679 29.7882 58.9519C29.7253 59.2359 29.6068 59.5047 29.4396 59.7427L28.7927 60.6665C28.7919 60.6673 28.7912 60.6682 28.7906 60.6691C28.7899 60.67 28.7894 60.671 28.789 60.672L27.7384 62.1725C27.401 62.653 26.8868 62.98 26.3086 63.0818C25.7304 63.1836 25.1354 63.0518 24.6542 62.7154L24.6532 62.7159ZM56.4041 53.0391C56.2373 53.2773 56.0253 53.4803 55.78 53.6365C55.5347 53.7927 55.2611 53.899 54.9747 53.9495C54.6883 53.9999 54.3948 53.9934 54.111 53.9304C53.8271 53.8674 53.5584 53.7491 53.3203 53.5822L50.3362 51.4905L50.3323 51.4876L40.3987 44.5313C40.1939 44.3892 39.9413 44.3341 39.696 44.3779C39.4507 44.4218 39.2327 44.561 39.0899 44.7652C38.947 44.9694 38.8909 45.2218 38.9338 45.4673C38.9766 45.7127 39.115 45.9312 39.3186 46.0749L49.2525 53.0315C49.4938 53.197 49.6999 53.4086 49.8588 53.6542C50.0178 53.8998 50.1265 54.1745 50.1787 54.4623C50.2309 54.7502 50.2255 55.0455 50.1628 55.3313C50.1001 55.6171 49.9815 55.8876 49.8136 56.1272C49.6458 56.3668 49.4321 56.5708 49.1849 56.7273C48.9378 56.8838 48.6621 56.9898 48.3737 57.0391C48.0853 57.0884 47.7901 57.0801 47.5049 57.0146C47.2198 56.9491 46.9505 56.8278 46.7126 56.6575L36.7789 49.7012C36.5733 49.5614 36.3212 49.5075 36.0764 49.5507C35.8316 49.594 35.6133 49.7311 35.468 49.9328C35.4312 49.9849 35.3999 50.0407 35.3746 50.0992C35.2884 50.2983 35.2735 50.521 35.3326 50.7298C35.3917 50.9385 35.5211 51.1205 35.6989 51.2448L42.5426 56.038C42.7839 56.2034 42.99 56.4151 43.149 56.6606C43.3079 56.9062 43.4166 57.1809 43.4688 57.4688C43.521 57.7566 43.5156 58.052 43.4529 58.3377C43.3903 58.6235 43.2716 58.894 43.1037 59.1336C42.9359 59.3732 42.7222 59.5772 42.4751 59.7337C42.2279 59.8902 41.9522 59.9962 41.6638 60.0455C41.3755 60.0948 41.0802 60.0865 40.7951 60.021C40.5099 59.9555 40.2406 59.8342 40.0027 59.664L33.1579 54.8718C32.9531 54.7298 32.7005 54.6747 32.4552 54.7185C32.2099 54.7624 31.9919 54.9016 31.8491 55.1058C31.7062 55.3099 31.6501 55.5624 31.693 55.8079C31.7358 56.0533 31.8742 56.2718 32.0778 56.4155L35.8962 59.0893C36.377 59.4261 36.7044 59.9401 36.8063 60.5183C36.9081 61.0964 36.7761 61.6914 36.4394 62.1722C36.2726 62.4103 36.0606 62.6132 35.8154 62.7693C35.5702 62.9255 35.2967 63.0318 35.0104 63.0823C34.4323 63.1841 33.8373 63.0521 33.3565 62.7154L30.8732 60.9767L30.9816 60.8223C31.4037 60.2197 31.6557 59.5145 31.7111 58.7809C31.7665 58.0473 31.6234 57.3123 31.2966 56.6531C30.9699 55.9939 30.4717 55.4349 29.8543 55.0348C29.2369 54.6346 28.5232 54.4082 27.788 54.3791L27.9121 54.2021C28.2256 53.7616 28.4489 53.2635 28.569 52.7363C28.6891 52.2092 28.7037 51.6635 28.6119 51.1306C28.5202 50.5978 28.3238 50.0885 28.0343 49.6319C27.7447 49.1753 27.3676 48.7805 26.9248 48.4704C26.4819 48.1602 25.9821 47.9408 25.454 47.8247C24.926 47.7087 24.3802 47.6983 23.8481 47.7941C23.316 47.89 22.8081 48.0903 22.3538 48.3833C21.8995 48.6764 21.5076 49.0565 21.2009 49.5017L21.0745 49.6822C20.7798 48.9534 20.2804 48.3254 19.6367 47.8741C17.9139 46.6706 15.5762 46.9768 14.2159 48.5205C13.9065 47.7421 13.3651 47.0779 12.665 46.618C11.965 46.158 11.1404 45.9248 10.3031 45.9498L9.35413 44.0518L19.4776 27.1303H24.6345C24.4233 27.3713 24.2339 27.6305 24.0687 27.9051L17.8312 38.3286C17.7039 38.5416 17.6657 38.7961 17.7249 39.0371C17.7841 39.278 17.9359 39.4859 18.1474 39.6156C19.2312 40.2825 20.4785 40.636 21.751 40.6369C22.314 40.6363 22.8748 40.5679 23.4213 40.4331C24.3115 40.2165 25.1495 39.8243 25.8862 39.2796C26.6228 38.7349 27.2433 38.0487 27.7113 37.261L29.9965 33.4421H31.6194C32.0841 36.9984 35.1326 39.7545 38.8127 39.7545H41.6683L55.8607 49.9549C56.3407 50.2926 56.6674 50.8065 56.7694 51.3844C56.8714 51.9622 56.7405 52.557 56.4052 53.0386L56.4041 53.0391ZM54.3878 46.5785L42.5182 38.0478C42.5153 38.0463 42.5126 38.0447 42.5099 38.0429C42.4727 38.0179 42.4339 37.9956 42.3937 37.9761C42.3775 37.9677 42.3622 37.9571 42.3456 37.9501C42.3126 37.9371 42.2791 37.9259 42.2449 37.9165C42.2189 37.9087 42.1942 37.8983 42.1682 37.8926C42.1422 37.8869 42.1162 37.8861 42.0902 37.8827C42.0549 37.8772 42.0193 37.8737 41.9836 37.8721C41.9792 37.8721 41.9751 37.8721 41.9704 37.8721H38.8127C35.852 37.8721 33.4433 35.4631 33.4433 32.5014C33.4429 32.2518 33.3436 32.0125 33.1671 31.836C32.9905 31.6595 32.7513 31.5601 32.5016 31.5597H29.463C29.3002 31.5597 29.1402 31.602 28.9986 31.6823C28.857 31.7627 28.7387 31.8784 28.6551 32.0181L26.0962 36.2938C25.4869 37.3111 24.5393 38.0816 23.4192 38.4706C22.2991 38.8596 21.0779 38.8423 19.9692 38.4217L25.6844 28.8718C26.0033 28.342 26.4535 27.9033 26.9914 27.5982C27.5293 27.293 28.1368 27.1317 28.7552 27.1298H45.5212L55.6494 44.056L54.3878 46.5785ZM58.2598 44.7533L46.4024 24.9343L50.9082 22.2375L62.7667 42.056L58.2598 44.7533Z" fill="#A4895D"/>
<path d="M57.7486 41.7794C57.9187 41.7793 58.0856 41.7331 58.2314 41.6455L59.8838 40.6575C60.098 40.5291 60.2525 40.3208 60.3132 40.0785C60.3739 39.8362 60.3359 39.5798 60.2075 39.3655C60.0791 39.1513 59.8708 38.9968 59.6285 38.9361C59.3862 38.8754 59.1298 38.9134 58.9155 39.0418L57.2632 40.0298C57.0865 40.1358 56.9494 40.2969 56.8729 40.4883C56.7965 40.6797 56.7849 40.8909 56.84 41.0895C56.8951 41.2881 57.0138 41.4631 57.1779 41.5878C57.342 41.7124 57.5425 41.7798 57.7486 41.7796V41.7794Z" fill="#A4895D"/>
<path d="M7.73561 40.0296L6.08304 39.0415C5.86879 38.9131 5.61231 38.8751 5.37002 38.9358C5.12774 38.9965 4.91949 39.151 4.79109 39.3653C4.66269 39.5795 4.62466 39.836 4.68537 40.0783C4.74607 40.3206 4.90054 40.5288 5.11479 40.6572L6.76737 41.6452C6.98147 41.7695 7.2359 41.8045 7.47562 41.7427C7.71533 41.6808 7.92106 41.5271 8.04831 41.3147C8.17556 41.1023 8.21409 40.8484 8.15557 40.6079C8.09705 40.3673 7.94619 40.1595 7.73561 40.0293V40.0296Z" fill="#A4895D"/>
</svg>
