<svg width="20" height="20" viewBox="0 0 20 20" fill="none" xmlns="http://www.w3.org/2000/svg">
<g clip-path="url(#clip0_2345_2852)">
<path d="M19.9986 10.0612C19.9986 4.50373 15.5211 -0.00126648 9.99859 -0.00126648C4.47359 -1.64793e-05 -0.00390625 4.50373 -0.00390625 10.0625C-0.00390625 15.0837 3.65359 19.2462 8.43359 20.0012V12.97H5.89609V10.0625H8.43609V7.84373C8.43609 5.32248 9.92984 3.92998 12.2136 3.92998C13.3086 3.92998 14.4523 4.12623 14.4523 4.12623V6.60123H13.1911C11.9498 6.60123 11.5623 7.37748 11.5623 8.17373V10.0612H14.3348L13.8923 12.9687H11.5611V20C16.3411 19.245 19.9986 15.0825 19.9986 10.0612Z" fill="#A4895D"/>
</g>
<defs>
<clipPath id="clip0_2345_2852">
<rect width="20" height="20" fill="white"/>
</clipPath>
</defs>
</svg>
