<svg width="57" height="57" viewBox="0 0 57 57" fill="none" xmlns="http://www.w3.org/2000/svg">
<path d="M28.7827 27.721L50.047 6.45957M14.9762 7.1746C18.4935 5.33593 22.4924 4.29986 26.7322 4.29986C30.1838 4.29986 33.4749 4.98571 36.4741 6.23338M50.2732 20.0307C51.5211 23.0368 52.207 26.3274 52.207 29.7713C52.207 43.8167 40.7795 55.25 26.7249 55.25C12.6703 55.25 1.25 43.824 1.25 29.7713C1.25 22.2342 4.54108 15.4559 9.75865 10.7863M44.9973 22.0445C46.0043 24.4231 46.5662 27.0352 46.5662 29.7713C46.5662 40.7085 37.6708 49.6027 26.7322 49.6027C15.7935 49.6027 6.89811 40.7085 6.89811 29.7713C6.89811 18.8341 15.7935 9.93991 26.7322 9.93991C29.4686 9.93991 32.0811 10.5017 34.46 11.5086M26.7322 43.9626C18.9095 43.9626 12.5389 37.6002 12.5389 29.7713C12.5389 21.9423 18.9022 15.58 26.7322 15.58C29.1768 15.58 31.4754 16.2001 33.4822 17.2946M39.2032 23.0149C40.2978 25.0287 40.9181 27.327 40.9181 29.7713C40.9181 35.3238 37.7146 40.1393 33.0589 42.4669M34.9197 27.3124C35.1532 28.0931 35.2773 28.9176 35.2773 29.7713C35.2773 34.4847 31.4462 38.3153 26.7322 38.3153C22.0181 38.3153 18.187 34.4847 18.187 29.7713C18.187 25.0579 22.0181 21.2273 26.7322 21.2273C27.5859 21.2273 28.4105 21.3513 29.1914 21.5848M46.8143 9.69183L46.8362 1.27189L46.8143 1.25L40.9108 7.1819C39.2981 8.80168 38.3932 10.9906 38.3859 13.2743L38.3713 18.1264L43.2241 18.1118C45.5081 18.1118 47.6973 17.1997 49.3173 15.5873L55.25 9.68454L55.2281 9.66265L46.807 9.68454L46.8143 9.69183ZM29.6365 29.7713C29.6365 31.3751 28.3362 32.6752 26.7322 32.6752C25.1281 32.6752 23.8278 31.3751 23.8278 29.7713C23.8278 28.1675 25.1281 26.8673 26.7322 26.8673C28.3362 26.8673 29.6365 28.1675 29.6365 29.7713Z" stroke="#A4895D" stroke-width="2.5" stroke-linecap="round" stroke-linejoin="round"/>
</svg>
