<svg width="21" height="20" viewBox="0 0 21 20" fill="none" xmlns="http://www.w3.org/2000/svg">
<g clip-path="url(#clip0_2345_2854)">
<path d="M10.5 0C7.65056 0 7.29225 0.0125 6.17269 0.06C5.05312 0.11 4.29056 0.2775 3.6225 0.525C2.92142 0.775407 2.28656 1.16925 1.76269 1.67875C1.22771 2.17768 0.814177 2.78231 0.55125 3.45C0.291375 4.085 0.114188 4.8125 0.063 5.875C0.013125 6.94375 0 7.28375 0 10.0013C0 12.7163 0.013125 13.0563 0.063 14.1225C0.1155 15.1875 0.291375 15.9137 0.55125 16.55C0.820312 17.2075 1.17863 17.765 1.76269 18.3212C2.34544 18.8775 2.93081 19.22 3.62119 19.475C4.29056 19.7225 5.05181 19.8912 6.17006 19.94C7.29094 19.9875 7.64794 20 10.5 20C13.3521 20 13.7078 19.9875 14.8286 19.94C15.9456 19.89 16.7108 19.7225 17.3788 19.475C18.0794 19.2244 18.7138 18.8306 19.2373 18.3212C19.8214 17.765 20.1797 17.2075 20.4487 16.55C20.7073 15.9137 20.8845 15.1875 20.937 14.1225C20.9869 13.0563 21 12.7163 21 10C21 7.28375 20.9869 6.94375 20.937 5.87625C20.8845 4.8125 20.7073 4.085 20.4487 3.45C20.1858 2.78231 19.7723 2.17768 19.2373 1.67875C18.7134 1.16925 18.0786 0.775407 17.3775 0.525C16.7081 0.2775 15.9443 0.10875 14.8273 0.06C13.7064 0.0125 13.3507 0 10.4974 0H10.5ZM9.55894 1.8025H10.5013C13.3048 1.8025 13.6369 1.81125 14.7433 1.86C15.7671 1.90375 16.3236 2.0675 16.6937 2.20375C17.1833 2.385 17.5337 2.6025 17.9012 2.9525C18.2687 3.3025 18.4958 3.635 18.6861 4.1025C18.8304 4.45375 19.0011 4.98375 19.047 5.95875C19.0982 7.0125 19.1087 7.32875 19.1087 9.9975C19.1087 12.6663 19.0982 12.9837 19.047 14.0375C19.0011 15.0125 18.8291 15.5413 18.6861 15.8938C18.5165 16.3274 18.248 16.7197 17.8999 17.0425C17.5324 17.3925 17.1833 17.6088 16.6924 17.79C16.3249 17.9275 15.7684 18.09 14.7433 18.135C13.6369 18.1825 13.3048 18.1938 10.5013 18.1938C7.69781 18.1938 7.36444 18.1825 6.258 18.135C5.23425 18.09 4.67906 17.9275 4.30894 17.79C3.85328 17.6291 3.44085 17.3738 3.10144 17.0425C2.75267 16.7195 2.48368 16.3267 2.31394 15.8925C2.17088 15.5412 1.99894 15.0113 1.953 14.0363C1.90313 12.9825 1.89263 12.6663 1.89263 9.995C1.89263 7.32375 1.90313 7.01 1.953 5.95625C2.00025 4.98125 2.17088 4.45125 2.31525 4.09875C2.50556 3.6325 2.73394 3.29875 3.10144 2.94875C3.46894 2.59875 3.81806 2.3825 4.30894 2.20125C4.67906 2.06375 5.23425 1.90125 6.258 1.85625C7.22662 1.81375 7.602 1.80125 9.55894 1.8V1.8025ZM16.1057 3.4625C15.9402 3.4625 15.7764 3.49354 15.6235 3.55384C15.4706 3.61415 15.3317 3.70254 15.2147 3.81397C15.0977 3.9254 15.0049 4.05769 14.9416 4.20328C14.8783 4.34887 14.8457 4.50491 14.8457 4.6625C14.8457 4.82009 14.8783 4.97613 14.9416 5.12172C15.0049 5.26731 15.0977 5.3996 15.2147 5.51103C15.3317 5.62246 15.4706 5.71085 15.6235 5.77116C15.7764 5.83146 15.9402 5.8625 16.1057 5.8625C16.4399 5.8625 16.7603 5.73607 16.9966 5.51103C17.2329 5.28598 17.3657 4.98076 17.3657 4.6625C17.3657 4.34424 17.2329 4.03902 16.9966 3.81397C16.7603 3.58893 16.4399 3.4625 16.1057 3.4625ZM10.5013 4.865C9.78609 4.85437 9.0758 4.97936 8.41178 5.23268C7.74777 5.486 7.1433 5.86259 6.63357 6.34053C6.12384 6.81847 5.71904 7.38821 5.44273 8.01657C5.16642 8.64494 5.02412 9.31938 5.02412 10.0006C5.02412 10.6819 5.16642 11.3563 5.44273 11.9847C5.71904 12.613 6.12384 13.1828 6.63357 13.6607C7.1433 14.1387 7.74777 14.5153 8.41178 14.7686C9.0758 15.0219 9.78609 15.1469 10.5013 15.1363C11.9169 15.1152 13.267 14.5649 14.2603 13.6041C15.2535 12.6432 15.8102 11.349 15.8102 10.0006C15.8102 8.65228 15.2535 7.35802 14.2603 6.39719C13.267 5.43636 11.9169 4.88603 10.5013 4.865ZM10.5013 6.66625C10.961 6.66625 11.4162 6.75248 11.8409 6.92002C12.2656 7.08755 12.6515 7.33312 12.9765 7.64268C13.3015 7.95225 13.5594 8.31976 13.7353 8.72423C13.9112 9.1287 14.0017 9.56221 14.0017 10C14.0017 10.4378 13.9112 10.8713 13.7353 11.2758C13.5594 11.6802 13.3015 12.0477 12.9765 12.3573C12.6515 12.6669 12.2656 12.9124 11.8409 13.08C11.4162 13.2475 10.961 13.3337 10.5013 13.3337C9.57294 13.3337 8.68259 12.9825 8.02613 12.3573C7.36967 11.7321 7.00087 10.8842 7.00087 10C7.00087 9.11583 7.36967 8.26788 8.02613 7.64268C8.68259 7.01748 9.57294 6.66625 10.5013 6.66625Z" fill="#A4895D"/>
</g>
<defs>
<clipPath id="clip0_2345_2854">
<rect width="21" height="20" fill="white"/>
</clipPath>
</defs>
</svg>
