<svg width="50" height="60" viewBox="0 0 50 60" fill="none" xmlns="http://www.w3.org/2000/svg">
<path opacity="0.2" d="M24.75 49.1468C18.3848 49.1468 12.2803 46.6768 7.77944 42.28C3.27857 37.8832 0.75 31.92 0.75 25.702L7.16521 26.0488C7.16521 30.6145 9.0219 34.9933 12.3268 38.2217C15.6317 41.4502 20.1142 43.264 24.788 43.264C29.4619 43.264 33.9443 41.4502 37.2493 38.2217C40.5542 34.9933 42.4109 30.6145 42.4109 26.0488L48.75 25.702C48.75 31.92 46.2214 37.8832 41.7206 42.28C37.2197 46.6768 31.1152 49.1468 24.75 49.1468ZM24.75 49.1468V58.75M13.1747 58.75H35.9703M14.9624 12.7597H20.2112M14.9624 21.4292H20.2112M14.9624 30.0987H20.2112M28.9085 12.7597H34.1573M28.9085 21.4292H34.1573M28.9085 30.0987H34.1573M21.479 1.9885V8.34202M27.8181 1.9885V8.34202M22.3031 0.75H26.956C31.0102 0.75 34.2967 3.96053 34.2967 7.92093V31.4734C34.2967 35.4338 31.0102 38.6443 26.956 38.6443H22.3031C18.2489 38.6443 14.9624 35.4338 14.9624 31.4734V7.92093C14.9624 3.96053 18.2489 0.75 22.3031 0.75Z" stroke="#7D0B15" stroke-width="1.5" stroke-linecap="round" stroke-linejoin="round"/>
</svg>
