<svg width="68" height="65" viewBox="0 0 68 65" fill="none" xmlns="http://www.w3.org/2000/svg">
<g opacity="0.2">
<g clip-path="url(#clip0_1446_1400)">
<path d="M19.553 0.809535C19.61 4.9794 19.5815 9.27161 18.7309 13.3712C18.01 16.8409 16.2492 20.0919 14.0345 22.8302C10.4403 27.2734 5.58316 30.488 0.414826 32.802C-0.497995 33.2106 0.292943 34.5563 1.20058 34.1503C6.70344 31.6853 11.8614 28.1792 15.5853 23.3664C17.7558 20.5605 19.5063 17.286 20.2324 13.7877C21.1141 9.55012 21.1685 5.12256 21.1115 0.812137C21.0985 -0.192588 19.5426 -0.195191 19.5555 0.812137L19.553 0.809535Z" fill="#7D0B15"/>
<path d="M9.37205 0.809518C9.73251 6.47867 9.91145 12.3873 8.92083 18.0044C7.92762 23.6475 4.50713 28.4759 0.256804 32.1746C-0.500423 32.8332 0.604299 33.9342 1.35634 33.2783C5.68705 29.5093 9.28647 24.4882 10.3627 18.7462C11.4596 12.8896 11.304 6.73115 10.928 0.809518C10.8658 -0.187399 9.30722 -0.195208 9.37205 0.809518Z" fill="#7D0B15"/>
<path d="M52.3655 38.3644H15.6348C14.6338 38.3644 14.6312 39.9261 15.6348 39.9261H52.3629C53.3639 39.9261 53.3664 38.3644 52.3629 38.3644H52.3655Z" fill="#7D0B15"/>
<path d="M1.58186 50.0514V17.7467C1.58186 14.0063 1.39774 10.2138 1.58705 6.47603C1.75561 3.15732 4.75599 1.59036 7.72007 1.59036H51.6133C54.8159 1.59036 58.0834 1.39775 61.2835 1.60077C64.0194 1.77517 66.3248 3.84188 66.4181 6.64783C66.4285 6.93415 66.4181 7.22307 66.4181 7.50939V50.054C66.4181 51.0588 67.9741 51.0614 67.9741 50.054V9.00607C67.9741 7.43651 68.1115 5.80708 67.5176 4.31822C65.5338 -0.635131 60.0776 0.0286125 55.7884 0.0286125H9.17747C7.82639 0.0286125 6.41048 -0.0676954 5.09571 0.29411C1.94232 1.16348 0.0388848 3.88874 0.0259186 7.09553C0.0181389 8.90716 0.0259186 10.7188 0.0259186 12.5304V50.054C0.0259186 51.0588 1.58186 51.0614 1.58186 50.054V50.0514Z" fill="#7D0B15"/>
<path d="M4.55629 31.373C5.53653 35.0197 6.29117 38.8225 6.58161 42.5941C6.66978 43.7316 7.01987 46.2512 5.93589 47.0738C4.61075 48.0785 2.2509 45.9909 1.35363 45.1606C0.619746 44.4786 -0.484975 45.5823 0.254099 46.2642C1.58184 47.4954 3.37896 48.8984 5.28758 48.862C7.14694 48.8281 7.9301 47.1362 8.12459 45.5094C8.39429 43.2579 7.99493 40.9309 7.65003 38.708C7.24289 36.0947 6.74498 33.5126 6.05777 30.9565C5.79845 29.9882 4.29696 30.3995 4.55629 31.373Z" fill="#7D0B15"/>
<path d="M7.21449 30.1522C9.59249 33.1976 11.5167 36.7479 12.1313 40.6055C12.3517 41.9954 12.3958 43.4609 12.1053 44.843C11.9316 45.6759 11.6282 46.9436 10.6998 47.2481C9.62621 47.5995 8.23623 46.7405 7.40898 46.1627C6.58433 45.5875 5.80636 46.941 6.62323 47.511C8.27772 48.6667 10.8969 49.6636 12.4684 47.852C13.6924 46.4438 13.9025 44.1819 13.8532 42.3885C13.7183 37.4481 11.2911 32.8514 8.31403 29.0459C7.69684 28.2546 6.60249 29.3687 7.21449 30.1496V30.1522Z" fill="#7D0B15"/>
<path d="M67.5877 32.7993C62.4194 30.4853 57.5597 27.2707 53.968 22.8275C51.7534 20.0919 49.99 16.8382 49.2717 13.3686C48.4237 9.26897 48.3926 4.97676 48.4496 0.806889C48.4626 -0.197837 46.9066 -0.197837 46.8937 0.806889C46.8366 5.11732 46.8937 9.54487 47.7728 13.7824C48.4989 17.2807 50.2493 20.5552 52.4199 23.3611C56.1438 28.1739 61.3017 31.6801 66.8046 34.145C67.7122 34.5511 68.5032 33.2054 67.5903 32.7967L67.5877 32.7993Z" fill="#7D0B15"/>
<path d="M67.7458 32.1746C63.4955 28.4785 60.0698 23.6475 59.0818 18.0044C58.0964 12.3847 58.2701 6.48127 58.6306 0.809515C58.6954 -0.19521 57.1369 -0.190004 57.0746 0.809515C56.6986 6.72855 56.5378 12.8922 57.6399 18.7462C58.7213 24.4882 62.313 29.5093 66.6463 33.2783C67.4009 33.9342 68.5056 32.8332 67.7458 32.1746Z" fill="#7D0B15"/>
<path d="M66.6438 45.1632C65.7725 45.9701 63.3375 48.1253 62.0616 47.0763C60.9906 46.1939 61.3251 43.7758 61.4159 42.5967C61.7063 38.8251 62.4609 35.0222 63.4412 31.3755C63.7031 30.4047 62.2016 29.9882 61.9397 30.9591C61.2732 33.4423 60.7805 35.9515 60.3812 38.4893C60.0207 40.7825 59.5902 43.1876 59.8703 45.512C60.0596 47.0815 60.7805 48.7318 62.5569 48.8619C64.5044 49.0025 66.4001 47.511 67.7408 46.2668C68.4773 45.5823 67.3751 44.4812 66.6413 45.1632H66.6438Z" fill="#7D0B15"/>
<path d="M60.5911 46.1653C59.7561 46.7483 58.3739 47.6021 57.3003 47.2507C56.403 46.9566 56.1048 45.7879 55.9233 44.9809C55.6017 43.5572 55.6406 42.0423 55.8688 40.6081C56.4834 36.7505 58.4076 33.1976 60.7856 30.1547C61.3976 29.3739 60.3033 28.2598 59.6861 29.0511C56.7116 32.8566 54.2843 37.4533 54.1469 42.3937C54.0976 44.1402 54.2973 46.3084 55.4202 47.7244C56.9761 49.6844 59.6575 48.7161 61.3743 47.5162C62.1911 46.9462 61.4132 45.5926 60.5885 46.1679L60.5911 46.1653Z" fill="#7D0B15"/>
<path d="M8.85086 64.2452C8.85086 63.191 8.59672 61.7802 9.00126 60.7911C9.65217 59.1981 11.6438 59.5052 13.0312 59.5052C14.4185 59.5052 16.1923 59.2111 16.9729 60.575C17.5201 61.5329 17.2141 63.1806 17.2141 64.2452C17.2141 65.2499 18.77 65.2525 18.77 64.2452C18.77 62.6704 19.076 60.7703 18.0724 59.4298C16.8277 57.7691 14.8646 57.9435 13.0312 57.9435C11.1977 57.9435 9.32283 57.7691 8.05214 59.3517C6.97594 60.6896 7.29491 62.6418 7.29491 64.2452C7.29491 65.2499 8.85086 65.2525 8.85086 64.2452Z" fill="#7D0B15"/>
<path d="M23.6946 64.2452C23.6946 63.191 23.4405 61.7802 23.845 60.7911C24.4959 59.1981 26.4875 59.5052 27.8749 59.5052C29.2623 59.5052 31.0361 59.2111 31.8166 60.575C32.3638 61.5329 32.0578 63.1806 32.0578 64.2452C32.0578 65.2499 33.6138 65.2525 33.6138 64.2452C33.6138 62.6704 33.9198 60.7703 32.9162 59.4298C31.6714 57.7691 29.7083 57.9435 27.8749 57.9435C26.0415 57.9435 24.1666 57.7691 22.8959 59.3517C21.8197 60.6896 22.1387 62.6418 22.1387 64.2452C22.1387 65.2499 23.6946 65.2525 23.6946 64.2452Z" fill="#7D0B15"/>
<path d="M38.5357 64.2452C38.5357 63.191 38.2815 61.7802 38.6861 60.7911C39.337 59.1981 41.3286 59.5052 42.716 59.5052C44.1034 59.5052 45.8771 59.2111 46.6577 60.575C47.2049 61.5329 46.8989 63.1806 46.8989 64.2452C46.8989 65.2499 48.4548 65.2525 48.4548 64.2452C48.4548 62.6704 48.7608 60.7703 47.7572 59.4298C46.5125 57.7691 44.5494 57.9435 42.716 57.9435C40.8826 57.9435 39.0076 57.7691 37.737 59.3517C36.6608 60.6896 36.9797 62.6418 36.9797 64.2452C36.9797 65.2499 38.5357 65.2525 38.5357 64.2452Z" fill="#7D0B15"/>
<path d="M53.3794 64.2452C53.3794 63.191 53.1253 61.7802 53.5298 60.7911C54.1807 59.1981 56.1723 59.5052 57.5597 59.5052C58.9471 59.5052 60.7209 59.2111 61.5015 60.575C62.0486 61.5329 61.7426 63.1806 61.7426 64.2452C61.7426 65.2499 63.2986 65.2525 63.2986 64.2452C63.2986 62.6704 63.6046 60.7703 62.601 59.4298C61.3562 57.7691 59.3932 57.9435 57.5597 57.9435C55.7263 57.9435 53.8514 57.7691 52.5807 59.3517C51.5045 60.6896 51.8235 62.6418 51.8235 64.2452C51.8235 65.2499 53.3794 65.2525 53.3794 64.2452Z" fill="#7D0B15"/>
<path d="M15.8396 55.5488C15.8396 54.4946 15.5855 53.0838 15.99 52.0947C16.6409 50.5017 18.6325 50.8089 20.0199 50.8089C21.4073 50.8089 23.1811 50.5148 23.9617 51.8787C24.5088 52.8366 24.2028 54.4842 24.2028 55.5488C24.2028 56.5535 25.7588 56.5561 25.7588 55.5488C25.7588 53.974 26.0648 52.0739 25.0612 50.7334C23.8164 49.0727 21.8534 49.2471 20.0199 49.2471C18.1865 49.2471 16.3116 49.0727 15.0409 50.6553C13.9647 51.9932 14.2837 53.9454 14.2837 55.5488C14.2837 56.5535 15.8396 56.5561 15.8396 55.5488Z" fill="#7D0B15"/>
<path d="M31.1138 55.5488C31.1138 54.4946 30.8597 53.0838 31.2642 52.0947C31.9151 50.5017 33.9067 50.8089 35.2941 50.8089C36.6815 50.8089 38.4553 50.5148 39.2358 51.8787C39.783 52.8366 39.477 54.4842 39.477 55.5488C39.477 56.5535 41.0329 56.5561 41.0329 55.5488C41.0329 53.974 41.3389 52.0739 40.3354 50.7334C39.0906 49.0727 37.1275 49.2471 35.2941 49.2471C33.4607 49.2471 31.5858 49.0727 30.3151 50.6553C29.2389 51.9932 29.5579 53.9454 29.5579 55.5488C29.5579 56.5535 31.1138 56.5561 31.1138 55.5488Z" fill="#7D0B15"/>
<path d="M46.3907 55.5488C46.3907 54.4946 46.1365 53.0838 46.5411 52.0947C47.192 50.5017 49.1836 50.8089 50.571 50.8089C51.9583 50.8089 53.7321 50.5148 54.5127 51.8787C55.0599 52.8366 54.7539 54.4842 54.7539 55.5488C54.7539 56.5535 56.3098 56.5561 56.3098 55.5488C56.3098 53.974 56.6158 52.0739 55.6122 50.7334C54.3675 49.0727 52.4044 49.2471 50.571 49.2471C48.7375 49.2471 46.8626 49.0727 45.5919 50.6553C44.5157 51.9932 44.8347 53.9454 44.8347 55.5488C44.8347 56.5535 46.3907 56.5561 46.3907 55.5488Z" fill="#7D0B15"/>
<path d="M20.1314 4.28437C28.7721 7.71241 39.2281 7.71241 47.8688 4.28437C48.7894 3.91996 48.3874 2.40767 47.4564 2.77728C39.0362 6.11682 28.9666 6.11943 20.5464 2.77728C19.6154 2.40767 19.2108 3.91736 20.1314 4.28437Z" fill="#7D0B15"/>
<path d="M19.8331 7.81135C28.0278 13.0536 39.9748 13.0536 48.1669 7.81135C49.0097 7.27254 48.2291 5.92163 47.3811 6.46304C39.6325 11.4216 28.3675 11.4216 20.6163 6.46304C19.7683 5.92163 18.9877 7.27254 19.8305 7.81135H19.8331Z" fill="#7D0B15"/>
</g>
</g>
<defs>
<clipPath id="clip0_1446_1400">
<rect width="68" height="65" fill="white"/>
</clipPath>
</defs>
</svg>
