<svg width="60" height="65" viewBox="0 0 60 65" fill="none" xmlns="http://www.w3.org/2000/svg">
<path d="M23.9682 16.9168C33.3004 28.9923 44.5197 28.9074 53.7827 16.9166C54.0579 16.537 54.0579 16.0218 53.7827 15.6419C53.6857 15.5083 52.783 14.2886 51.2983 12.7875L52.5482 11.6718C53.5977 10.7257 52.1722 9.11609 51.1123 10.0531L49.7123 11.3027C48.4634 10.2143 46.9743 9.12224 45.3028 8.25006L46.1752 6.43526C46.4345 5.89621 46.2089 5.24872 45.6723 4.98845C45.1367 4.72977 44.4894 4.95512 44.2311 5.49365L43.3329 7.36193C40.5541 6.26962 37.1959 6.26975 34.4173 7.36226L33.5198 5.49417C33.2626 4.95512 32.6195 4.72977 32.0787 4.98845C31.542 5.24819 31.3164 5.89568 31.5758 6.43473L32.4479 8.25025C30.7764 9.12237 29.2875 10.2144 28.0386 11.3027L26.6387 10.0531C26.1906 9.65527 25.5096 9.69548 25.1142 10.1425C24.7178 10.5895 24.7579 11.2745 25.2028 11.6718L26.4526 12.7875C24.9679 14.2887 24.0652 15.5083 23.9682 15.6419C23.6931 16.0218 23.6931 16.537 23.9682 16.9168ZM38.8755 8.69567C44.792 8.69567 49.9452 14.347 51.534 16.2794C43.1613 26.3098 34.5583 26.2718 26.217 16.2794C27.8057 14.347 32.959 8.69567 38.8755 8.69567Z" fill="#A4895D"/>
<path d="M38.8755 22.7797C42.4473 22.7797 45.3528 19.8639 45.3528 16.2794C45.049 7.67609 32.7007 7.67827 32.3981 16.2794C32.3981 19.8639 35.3036 22.7797 38.8755 22.7797ZM38.8755 11.9458C44.5823 12.1275 44.581 20.432 38.8755 20.6129C33.1686 20.4312 33.1699 12.1267 38.8755 11.9458Z" fill="#A4895D"/>
<path d="M54.6177 55.3856C52.8318 55.3856 51.379 53.4415 51.379 51.052C51.3563 49.6312 49.2438 49.6254 49.2199 51.052C49.2199 53.4415 47.7671 55.3856 45.9812 55.3856C45.3845 55.3856 44.9016 55.8707 44.9016 56.469C44.9016 57.0672 45.3845 57.5523 45.9812 57.5523C47.7671 57.5523 49.2199 59.4964 49.2199 61.8859C49.2425 63.3066 51.355 63.3125 51.379 61.8858C51.379 59.4964 52.8318 57.5523 54.6177 57.5523C56.0342 57.5292 56.0387 55.4096 54.6177 55.3856ZM50.2994 57.9898C49.9294 57.3963 49.4761 56.881 48.9616 56.469C49.4761 56.0569 49.9294 55.5416 50.2994 54.9481C50.6695 55.5416 51.1228 56.0569 51.6373 56.469C51.1228 56.881 50.6695 57.3963 50.2994 57.9898Z" fill="#A4895D"/>
<path d="M5.68526 13.6868C7.47118 13.6868 8.92395 15.6308 8.92395 18.0203C8.94662 19.4411 11.0591 19.4469 11.0831 18.0203C11.0831 15.6308 12.5358 13.6868 14.3218 13.6868C14.9185 13.6868 15.4013 13.2017 15.4013 12.6034C15.4013 12.0051 14.9185 11.52 14.3218 11.52C12.5358 11.52 11.0831 9.57592 11.0831 7.18644C11.0604 5.76562 8.94793 5.7598 8.92395 7.18644C8.92395 9.57592 7.47118 11.52 5.68526 11.52C4.26873 11.5431 4.26425 13.6628 5.68526 13.6868ZM10.0035 11.0825C10.3736 11.676 10.8269 12.1913 11.3414 12.6034C10.8269 13.0155 10.3736 13.5307 10.0035 14.1242C9.63346 13.5307 9.18013 13.0155 8.66565 12.6034C9.18013 12.1913 9.63346 11.676 10.0035 11.0825Z" fill="#A4895D"/>
<path d="M58.9359 28.3257C57.15 28.3257 55.6972 26.3817 55.6972 23.9922C55.6746 22.5714 53.5621 22.5655 53.5381 23.9922C53.5381 26.3817 52.0853 28.3257 50.2994 28.3257C49.7027 28.3257 49.2199 28.8108 49.2199 29.4091C49.2199 30.0074 49.7027 30.4925 50.2994 30.4925C52.0853 30.4925 53.5381 32.4366 53.5381 34.8261C53.5608 36.2468 55.6732 36.2526 55.6972 34.826C55.6972 32.4366 57.15 30.4925 58.9359 30.4925C60.3525 30.4694 60.3569 28.3497 58.9359 28.3257ZM54.6177 30.93C54.2476 30.3364 53.7943 29.8212 53.2798 29.4091C53.7943 28.997 54.2476 28.4818 54.6177 27.8882C54.9877 28.4818 55.441 28.997 55.9555 29.4091C55.441 29.8212 54.9877 30.3364 54.6177 30.93Z" fill="#A4895D"/>
<path d="M17.9505 27.1297C17.4793 26.761 16.8024 26.8461 16.4355 27.3175C5.34658 42.6817 25.2128 60.2865 39.0146 47.341C42.8975 43.4434 44.3682 37.7303 42.8511 32.4302C42.6866 31.8547 42.091 31.523 41.5153 31.688C40.9429 31.8531 40.6118 32.453 40.7763 33.028C42.0762 37.571 40.8164 42.4685 37.4881 45.8091C25.6875 56.9174 8.62111 41.7791 18.1371 28.6504C18.504 28.1787 18.4207 27.4978 17.9505 27.1297Z" fill="#A4895D"/>
<path d="M4.42331 64.998C5.5598 64.998 6.69841 64.5653 7.56712 63.6998L16.4921 54.7432C17.7049 55.1462 19.1521 54.3347 20.2383 53.8717C34.2992 60.6898 50.432 47.8047 46.895 32.494C46.7645 31.9097 46.1899 31.5463 45.6069 31.6716C45.025 31.8012 44.6581 32.38 44.7867 32.964C47.2948 43.2223 38.8502 53.7591 28.34 53.5381C12.4963 53.4595 5.46914 33.5637 17.7219 23.4816C18.8071 22.5716 17.4679 20.9163 16.3554 21.8037C9.83588 26.9675 7.49437 36.5088 10.8428 44.1071C10.2755 45.4328 9.30137 47.172 10.0478 48.6022L1.29005 57.3905C-1.51705 60.0649 0.58818 65.1154 4.42331 64.998ZM12.0287 46.838L12.1363 46.5857C13.55 48.9293 15.5646 51.0346 17.8519 52.5427C17.4144 52.777 16.821 52.6949 16.464 52.3428L12.3187 48.1716C11.9829 47.807 11.8084 47.3205 12.0287 46.838ZM2.81662 58.9224L11.397 50.3123L14.6213 53.5567L6.04371 62.1647C3.8693 64.2544 0.741047 61.088 2.81662 58.9224Z" fill="#A4895D"/>
<path d="M23.516 30.5623H25.5328L28.258 34.7515C28.4573 35.0578 28.7967 35.2424 29.1615 35.2424C29.5263 35.2424 29.8658 35.0578 30.065 34.7515L32.7903 30.5623H47.0607C47.6575 30.5623 48.1403 30.0772 48.1403 29.4789C48.1403 28.8806 47.6575 28.3956 47.0607 28.3956H32.2062C31.8414 28.3956 31.502 28.5802 31.3027 28.8865L29.1615 32.1774L27.0203 28.8865C26.8211 28.5802 26.4816 28.3956 26.1168 28.3956H23.516C22.3257 28.3956 21.3568 27.4238 21.3568 26.2288V4.33355C21.3568 3.13855 22.3257 2.16678 23.516 2.16678H54.2286C55.4189 2.16678 56.3878 3.13855 56.3878 4.33355V22.448C56.3878 23.0463 56.8706 23.5314 57.4673 23.5314C58.064 23.5314 58.5469 23.0463 58.5469 22.448V4.33355C58.5469 1.94407 56.6102 0 54.2286 0H23.516C21.1344 0 19.1977 1.94407 19.1977 4.33355V26.2288C19.1977 28.6183 21.1344 30.5623 23.516 30.5623Z" fill="#A4895D"/>
</svg>
