<svg width="21" height="20" viewBox="0 0 21 20" fill="none" xmlns="http://www.w3.org/2000/svg">
<g clip-path="url(#clip0_2345_2857)">
<path d="M0 1.4325C0 0.64125 0.690375 0 1.54219 0H19.4578C20.3096 0 21 0.64125 21 1.4325V18.5675C21 19.3587 20.3096 20 19.4578 20H1.54219C0.690375 20 0 19.3587 0 18.5675V1.4325ZM6.48769 16.7425V7.71125H3.33637V16.7425H6.48769ZM4.91269 6.4775C6.01125 6.4775 6.69506 5.785 6.69506 4.9175C6.67537 4.03125 6.01256 3.3575 4.93369 3.3575C3.85481 3.3575 3.15 4.0325 3.15 4.9175C3.15 5.785 3.83381 6.4775 4.89169 6.4775H4.91269ZM11.3544 16.7425V11.6988C11.3544 11.4288 11.3754 11.1587 11.4594 10.9662C11.6865 10.4275 12.2049 9.86875 13.0764 9.86875C14.217 9.86875 14.6724 10.6962 14.6724 11.9113V16.7425H17.8237V11.5625C17.8237 8.7875 16.2698 7.4975 14.196 7.4975C12.5239 7.4975 11.7744 8.3725 11.3544 8.98875V9.02H11.3334L11.3544 8.98875V7.71125H8.20444C8.24381 8.55875 8.20444 16.7425 8.20444 16.7425H11.3544Z" fill="#A4895D"/>
</g>
<defs>
<clipPath id="clip0_2345_2857">
<rect width="21" height="20" fill="white"/>
</clipPath>
</defs>
</svg>
