<svg width="206" height="104" viewBox="0 0 206 104" fill="none" xmlns="http://www.w3.org/2000/svg">
<path d="M8.46546 85.3835H4.33928L3.84382 86.9255H0L6.43567 70.0735L12.8261 86.9255H8.98223L8.4628 85.3835H8.46546ZM7.56777 82.6052L6.60082 79.5909C6.5289 79.4488 6.45964 79.1645 6.43567 79.0224C6.41169 79.1645 6.34244 79.4488 6.27051 79.5909L5.25562 82.6052H7.56777Z" fill="#A4895D"/>
<path d="M14.1446 86.8799V70.3363C15.583 70.1459 16.9735 70.0762 17.9165 70.0762C24.211 70.0762 26.0517 74.2543 26.0517 78.6202C26.0517 82.986 24.2137 87.1668 17.9165 87.1668C16.4541 87.1668 15.5591 87.073 14.1446 86.8826M17.7993 84.0828C18.1989 84.1311 18.2948 84.1311 18.6011 84.1311C21.0305 84.1311 22.373 82.042 22.373 78.6228C22.373 75.2036 21.0305 73.1172 18.6011 73.1172C18.364 73.1172 17.9645 73.1172 17.7993 73.1655V84.0855V84.0828Z" fill="#A4895D"/>
<path d="M31.8027 70.3095H28.1481V86.9255H31.8027V70.3095Z" fill="#A4895D"/>
<path d="M36.8 86.9255V73.2782H33.6407V70.3095H43.6379V73.2782H40.4547V86.9255H36.8Z" fill="#A4895D"/>
<path d="M48.8003 86.9255V80.3043L44.0374 70.3095H47.788L50.617 76.3863L53.3979 70.3095H57.1698L52.455 80.3043V86.9255H48.8003Z" fill="#A4895D"/>
<path d="M63.8665 85.3835H59.7404L59.2449 86.9255H55.4011L61.8368 70.0735L68.2271 86.9255H64.3833L63.8639 85.3835H63.8665ZM62.9689 82.6052L62.0019 79.5909C61.93 79.4488 61.8607 79.1645 61.8368 79.0224C61.8128 79.1645 61.7435 79.4488 61.6716 79.5909L60.6567 82.6052H62.9689Z" fill="#A4895D"/>
<path d="M73.3416 70.5723C75.1103 70.2398 76.6899 70.0735 77.9632 70.0735C81.3355 70.0735 83.0563 71.594 83.0563 74.3214C83.0563 75.6273 82.3265 77.1693 80.9333 77.4536C83.2215 77.8103 84.1858 79.6848 84.1858 81.8221C84.1858 86.2845 81.0505 87.1641 78.2216 87.1641C76.9243 87.1641 75.3208 87.022 73.3416 86.6653V70.5723ZM76.9963 76.4104H77.822C78.8582 76.4104 79.4016 75.7212 79.4016 74.6297C79.4016 73.6321 78.9541 73.0153 77.9392 73.0153C77.7261 73.0153 77.2094 73.0395 76.9963 73.0851V76.4104ZM76.9963 84.1257C77.4438 84.1981 77.8913 84.2196 78.1284 84.2196C79.7559 84.2196 80.4858 83.1281 80.4858 81.7283C80.4858 80.3284 79.7799 79.3308 77.9632 79.3308H76.9963V84.1257Z" fill="#A4895D"/>
<path d="M89.7744 70.3095H86.1197V86.9255H89.7744V70.3095Z" fill="#A4895D"/>
<path d="M102.811 75.8178C102.811 77.7647 102.27 79.6875 100.405 80.6824L103.282 86.9255H99.2974L96.7748 81.3957C96.4445 81.3957 96.2793 81.3716 96.2553 81.3475V86.9255H92.6006V70.5938C93.802 70.2371 95.2644 70.0708 96.5137 70.0708C101.748 70.0708 102.808 73.0368 102.808 75.8151M96.2527 78.3305C96.4871 78.3788 96.7242 78.3788 96.8414 78.3788C98.6794 78.3788 99.1056 77.0031 99.1056 75.7668C99.1056 74.4152 98.6101 73.1092 96.8414 73.1092C96.7242 73.1092 96.4871 73.1092 96.2527 73.1575V78.3332V78.3305Z" fill="#A4895D"/>
<path d="M105.096 86.9255V70.3095H108.751V83.9353H112.547V86.9255H105.096Z" fill="#A4895D"/>
<path d="M121.295 85.3835H117.169L116.673 86.9255H112.829L119.265 70.0735L125.655 86.9255H121.812L121.292 85.3835H121.295ZM120.397 82.6052L119.43 79.5909C119.358 79.4488 119.289 79.1645 119.265 79.0224C119.241 79.1645 119.172 79.4488 119.1 79.5909L118.085 82.6052H120.397Z" fill="#A4895D"/>
<path d="M138.857 84.0077C141.286 84.0077 142.512 82.868 143.1 82.3692L144.917 84.7184C143.244 86.2604 141.286 87.1641 138.527 87.1641C133.41 87.1641 130.016 84.0533 130.016 78.6899C130.016 73.3264 133.41 70.0735 138.575 70.0735C141.121 70.0735 143.148 70.8566 144.917 72.4951L143.1 74.8684C142.181 74.2033 141.143 73.2299 138.926 73.2299C135.791 73.2299 133.692 74.8684 133.692 78.6899C133.692 82.2271 135.791 84.0077 138.857 84.0077Z" fill="#A4895D"/>
<path d="M146.542 70.3095H155.431V73.2782H150.197V77.0272H154.722V79.9959H150.197V83.9353H155.431V86.9255H146.542V70.3095Z" fill="#A4895D"/>
<path d="M161.206 77.9068V86.9255H157.788V70.0735L167.548 79.3067V70.3095H170.969V87.1641L161.206 77.9068Z" fill="#A4895D"/>
<path d="M175.963 86.9255V73.2782H172.804V70.3095H182.801V73.2782H179.618V86.9255H175.963Z" fill="#A4895D"/>
<path d="M194.825 75.8178C194.825 77.7647 194.285 79.6875 192.42 80.6824L195.297 86.9255H191.312L188.789 81.3957C188.459 81.3957 188.294 81.3716 188.27 81.3475V86.9255H184.615V70.5938C185.817 70.2371 187.279 70.0708 188.528 70.0708C193.763 70.0708 194.823 73.0368 194.823 75.8151M188.27 78.3305C188.504 78.3788 188.741 78.3788 188.859 78.3788C190.697 78.3788 191.123 77.0031 191.123 75.7668C191.123 74.4152 190.627 73.1092 188.859 73.1092C188.741 73.1092 188.504 73.1092 188.27 73.1575V78.3332V78.3305Z" fill="#A4895D"/>
<path d="M197.111 70.3095H206V73.2782H200.766V77.0272H205.291V79.9959H200.766V83.9353H206V86.9255H197.111V70.3095Z" fill="#A4895D"/>
<path d="M21.8189 91.648H28.0042V93.8068H24.4987V96.5368H27.4528V98.709H24.4987V103.823H21.8189V91.648Z" fill="#A4895D"/>
<path d="M35.5001 91.4763C39.7488 91.4763 42.0982 94.1205 42.0982 97.7382C42.0982 101.356 39.7488 104 35.5001 104C31.2514 104 28.9019 101.356 28.9019 97.7382C28.9019 94.1205 31.2514 91.4763 35.5001 91.4763ZM35.5001 101.616C37.7803 101.616 39.232 100.015 39.232 97.7382C39.232 95.4614 37.7803 93.8604 35.5001 93.8604C33.2199 93.8604 31.7681 95.4614 31.7681 97.7382C31.7681 100.015 33.2359 101.616 35.5001 101.616Z" fill="#A4895D"/>
<path d="M51.0618 95.684C51.0618 97.1106 50.6649 98.5185 49.3011 99.248L51.4081 103.823H48.4886L46.6399 99.7709C46.3975 99.7709 46.2777 99.7548 46.259 99.7361V103.823H43.5819V91.8571C44.4636 91.597 45.5345 91.4737 46.4482 91.4737C50.284 91.4737 51.0618 93.6485 51.0618 95.6813M46.259 97.5263C46.4322 97.5612 46.6053 97.5612 46.6906 97.5612C48.0384 97.5612 48.3501 96.5528 48.3501 95.6464C48.3501 94.6542 47.9878 93.6995 46.6906 93.6995C46.6053 93.6995 46.4322 93.6995 46.259 93.7343V97.5263Z" fill="#A4895D"/>
<path d="M63.3951 95.684C63.3951 97.7703 62.5666 99.7709 59.0771 99.7709C58.7494 99.7709 58.6269 99.7548 58.5923 99.7361V103.823H55.9152V91.8571C56.7969 91.597 57.8677 91.4737 58.7841 91.4737C62.6199 91.4737 63.3977 93.6485 63.3977 95.6813M58.5949 97.5263C58.7681 97.5612 58.9412 97.5612 59.0265 97.5612C60.3743 97.5612 60.686 96.5528 60.686 95.6464C60.686 94.6542 60.3237 93.6995 59.0265 93.6995C58.9412 93.6995 58.7681 93.6995 58.5949 93.7343V97.5263Z" fill="#A4895D"/>
<path d="M64.8095 91.648H71.3224V93.8228H67.4866V96.5716H70.803V98.7438H67.4866V101.632H71.3224V103.823H64.8095V91.648Z" fill="#A4895D"/>
<path d="M80.5284 95.684C80.5284 97.1106 80.1315 98.5185 78.7677 99.248L80.8747 103.823H77.9552L76.1066 99.7709C75.8642 99.7709 75.7443 99.7548 75.7257 99.7361V103.823H73.0486V91.8571C73.9303 91.597 75.0011 91.4737 75.9174 91.4737C79.7533 91.4737 80.5311 93.6485 80.5311 95.6813M75.7283 97.5263C75.9015 97.5612 76.0746 97.5612 76.1599 97.5612C77.5077 97.5612 77.8194 96.5528 77.8194 95.6464C77.8194 94.6542 77.4571 93.6995 76.1599 93.6995C76.0746 93.6995 75.9015 93.6995 75.7283 93.7343V97.5263Z" fill="#A4895D"/>
<path d="M82.2013 91.648H88.3866V93.8068H84.881V96.5368H87.8352V98.709H84.881V103.823H82.2013V91.648Z" fill="#A4895D"/>
<path d="M95.8824 91.4763C100.131 91.4763 102.481 94.1205 102.481 97.7382C102.481 101.356 100.131 104 95.8824 104C91.6337 104 89.2842 101.356 89.2842 97.7382C89.2842 94.1205 91.6337 91.4763 95.8824 91.4763ZM95.8824 101.616C98.1626 101.616 99.6143 100.015 99.6143 97.7382C99.6143 95.4614 98.1626 93.8604 95.8824 93.8604C93.6022 93.8604 92.1505 95.4614 92.1505 97.7382C92.1505 100.015 93.6182 101.616 95.8824 101.616Z" fill="#A4895D"/>
<path d="M111.444 95.684C111.444 97.1106 111.047 98.5185 109.683 99.248L111.79 103.823H108.871L107.022 99.7709C106.78 99.7709 106.66 99.7548 106.641 99.7361V103.823H103.964V91.8571C104.846 91.597 105.917 91.4737 106.833 91.4737C110.669 91.4737 111.447 93.6485 111.447 95.6813M106.644 97.5263C106.817 97.5612 106.99 97.5612 107.076 97.5612C108.423 97.5612 108.735 96.5528 108.735 95.6464C108.735 94.6542 108.373 93.6995 107.076 93.6995C106.99 93.6995 106.817 93.6995 106.644 93.7343V97.5263Z" fill="#A4895D"/>
<path d="M118.975 97.8749L122.102 91.4763L125.091 103.823H122.43L121.255 98.4676L118.666 103.997L116.055 98.4676L114.899 103.823H112.238L115.227 91.4763L118.354 97.8749L118.666 98.5186L118.975 97.8749Z" fill="#A4895D"/>
<path d="M128.956 91.648H126.279V103.823H128.956V91.648Z" fill="#A4895D"/>
<path d="M133.535 97.2152V103.823H131.031V91.4763L138.18 98.2397V91.648H140.687V103.997L133.535 97.2152Z" fill="#A4895D"/>
<path d="M148.7 101.788C149.597 101.788 149.909 101.683 150.444 101.509V99.2829H148.111V97.1267H153.121V102.761C152.12 103.458 150.514 103.995 148.577 103.995C145.106 103.995 142.203 102.238 142.203 97.7167C142.203 93.1953 145.053 91.4898 148.524 91.4898C150.285 91.4898 151.736 91.9403 153.084 93.2624L151.79 94.8982C150.788 94.1152 149.925 93.6968 148.628 93.6968C146.641 93.6968 144.896 94.6891 144.896 97.698C144.896 100.707 146.675 101.785 148.697 101.785" fill="#A4895D"/>
<path d="M162.74 102.694H159.717L159.355 103.823H156.539L161.254 91.4763L165.937 103.823H163.121L162.74 102.694ZM162.082 100.659L161.374 98.4488C161.323 98.3442 161.27 98.1351 161.254 98.0305C161.235 98.1351 161.185 98.3442 161.131 98.4488L160.388 100.659H162.082Z" fill="#A4895D"/>
<path d="M174.384 95.684C174.384 97.1106 173.987 98.5185 172.623 99.248L174.73 103.823H171.811L169.962 99.7709C169.719 99.7709 169.6 99.7548 169.581 99.7361V103.823H166.904V91.8571C167.786 91.597 168.856 91.4737 169.773 91.4737C173.609 91.4737 174.386 93.6485 174.386 95.6813M169.584 97.5263C169.757 97.5612 169.93 97.5612 170.015 97.5612C171.363 97.5612 171.675 96.5528 171.675 95.6464C171.675 94.6542 171.312 93.6995 170.015 93.6995C169.93 93.6995 169.757 93.6995 169.584 93.7343V97.5263Z" fill="#A4895D"/>
<path d="M177.647 103.823V93.8228H175.332V91.648H182.655V93.8228H180.324V103.823H177.647Z" fill="#A4895D"/>
<path d="M186.387 103.997C185.023 103.997 183.848 103.788 182.913 103.179L183.915 101.163C184.642 101.562 185.47 101.788 186.229 101.788C186.989 101.788 187.612 101.493 187.612 100.57C187.612 98.658 183.137 98.9879 183.137 94.9706C183.137 92.6751 184.693 91.4737 186.919 91.4737C188.283 91.4737 189.216 91.8384 190.012 92.3425L188.96 94.1876C188.39 93.8389 187.82 93.6298 187.25 93.6298C186.317 93.6298 185.643 94.0481 185.643 94.8285C185.643 96.9149 190.135 96.5314 190.135 100.482C190.135 102.986 188.217 103.995 186.387 103.995" fill="#A4895D"/>
<path d="M97.9628 49.4886H96.0103V60.7733H97.9628V49.4886Z" fill="#A4895D"/>
<path d="M101.887 53.7927V60.7706H100.062V49.3277L106.785 56.5013V49.4886H108.61V60.9342L101.887 53.7927Z" fill="#A4895D"/>
<path d="M112.163 60.7706V51.0842H109.971V49.4886H116.327V51.0842H114.116V60.7706H112.163Z" fill="#A4895D"/>
<path d="M149.675 65.8042L137.786 50.9608L149.411 45.5732L129.062 27.9704L133.268 20.9416L105.64 0L78.0059 20.9416L82.2226 27.965L61.8661 45.5732L73.4828 50.9689L61.6023 65.8042H81.562V65.7881C81.5327 65.2893 81.5273 64.6457 81.5273 64.1415C81.5273 50.757 92.3423 39.8692 105.637 39.8692C118.932 39.8692 129.75 50.757 129.75 64.1415C129.75 64.6457 129.715 65.3027 129.686 65.7988L149.675 65.8015V65.8042ZM146.888 45.2166L136.894 49.8479L124.92 34.8919L128.343 29.1718L146.888 45.2166ZM123.998 33.7442L106.324 11.6762V2.25533L131.449 21.2956L123.998 33.7442ZM104.95 38.4989C100.363 38.6222 96.0742 39.9631 92.3955 42.2238L88.0483 34.9858L104.947 13.8833V38.4989H104.95ZM106.327 13.8833L123.245 35.0046L118.913 42.2452C115.229 39.9711 110.927 38.6222 106.327 38.4962V13.8833ZM104.95 2.25265V11.6736L87.2917 33.7227L79.8252 21.2929L104.95 2.25533V2.25265ZM64.386 45.2139L82.9445 29.1611L86.3754 34.8705L74.3751 49.856L64.3887 45.2166L64.386 45.2139ZM80.1528 64.1362C80.1528 64.23 80.1608 64.3212 80.1608 64.4124H64.4819L74.772 51.5615L81.879 54.8654C80.7655 57.7429 80.1502 60.8671 80.1502 64.1362M82.4117 53.5862L75.6591 50.4513L87.1266 36.1309L91.2395 42.98C87.4143 45.6242 84.3429 49.2955 82.4117 53.5889M120.061 43.0042L124.161 36.155L135.602 50.4433L128.849 53.5701C126.921 49.2955 123.865 45.643 120.061 43.0015M129.385 54.8467L136.492 51.5535L146.792 64.4124H131.111C131.111 64.3212 131.121 64.23 131.121 64.1362C131.121 60.8618 130.501 57.7295 129.387 54.8467" fill="#A4895D"/>
</svg>
