<svg width="24" height="24" viewBox="0 0 24 24" fill="none" xmlns="http://www.w3.org/2000/svg">
<mask id="mask0_1980_223" style="mask-type:alpha" maskUnits="userSpaceOnUse" x="0" y="0" width="24" height="24">
<rect width="24" height="24" fill="#D9D9D9"/>
</mask>
<g mask="url(#mask0_1980_223)">
<path d="M4.6155 18.9998C4.15517 18.9998 3.77083 18.8456 3.4625 18.5373C3.15417 18.229 3 17.8446 3 17.3843V6.61529C3 6.15496 3.15417 5.77063 3.4625 5.46229C3.77083 5.15396 4.15517 4.99979 4.6155 4.99979H14.5615C14.5333 5.16646 14.516 5.32996 14.5095 5.49029C14.5032 5.65046 14.5077 5.82029 14.523 5.99979H4.30775L12 10.9998L15.573 8.66704C15.691 8.78121 15.8106 8.89179 15.9318 8.99879C16.0529 9.10579 16.1802 9.20488 16.3135 9.29604L12 12.1153L4 6.88429V17.3843C4 17.5638 4.05767 17.7113 4.173 17.8268C4.2885 17.9421 4.436 17.9998 4.6155 17.9998H19.3845C19.564 17.9998 19.7115 17.9421 19.827 17.8268C19.9423 17.7113 20 17.5638 20 17.3843V10.1498C20.191 10.105 20.3667 10.0524 20.527 9.99204C20.6872 9.93188 20.8448 9.85754 21 9.76904V17.3843C21 17.8446 20.8458 18.229 20.5375 18.5373C20.2292 18.8456 19.8448 18.9998 19.3845 18.9998H4.6155ZM19 8.26904C18.3077 8.26904 17.7179 8.02546 17.2308 7.53829C16.7436 7.05113 16.5 6.46138 16.5 5.76904C16.5 5.07671 16.7436 4.48696 17.2308 3.99979C17.7179 3.51263 18.3077 3.26904 19 3.26904C19.6923 3.26904 20.2821 3.51263 20.7693 3.99979C21.2564 4.48696 21.5 5.07671 21.5 5.76904C21.5 6.46138 21.2564 7.05113 20.7693 7.53829C20.2821 8.02546 19.6923 8.26904 19 8.26904Z" fill="#A4895D"/>
</g>
</svg>
