<svg width="76" height="65" viewBox="0 0 76 65" fill="none" xmlns="http://www.w3.org/2000/svg">
<path d="M65.6133 40.0771C74.8599 31.1849 72.1999 19.2871 67.5132 14.1521C63.4599 9.76866 58.7733 7.38913 53.8333 7.38913C48.3867 7.38913 43.4467 10.5201 40.5333 15.7802C37.6199 10.5201 32.6799 7.38913 27.3599 7.38913C22.42 7.38913 17.7333 9.64347 13.68 14.027C8.8666 19.2871 6.20661 31.185 15.58 40.0771C19.8866 44.0848 39.3933 64.3739 39.6465 64.6243C39.8998 64.8747 40.1532 65 40.5332 65C40.9132 65 41.2932 64.7495 41.5465 64.6243C41.7999 64.3737 61.3065 44.21 65.6133 40.0771ZM63.7133 38.1984C59.9133 41.8305 44.4599 57.7361 40.5333 61.869C36.6067 57.7361 21.28 41.8305 17.3533 38.1984C9.11998 30.5586 11.4 20.2889 15.58 15.7802C19.1266 11.8978 23.18 9.89385 27.3599 9.89385C32.4266 9.89385 37.1133 13.5259 39.3933 19.2869C39.5199 19.6627 40.0267 20.0384 40.5333 20.0384C41.0399 20.0384 41.5467 19.6627 41.6733 19.2869C43.9533 13.5259 48.5133 9.89385 53.7067 9.89385C58.0133 9.89385 61.94 11.8977 65.4866 15.7802C69.5399 20.1637 71.8199 30.4334 63.7133 38.1984Z" fill="#A4895D"/>
<path d="M53.8333 12.3987C53.0733 12.3987 52.5667 12.8996 52.5667 13.6511C52.5667 14.4025 53.0733 14.9035 53.8333 14.9035C56.6199 14.9035 59.2799 16.4063 61.8133 19.1616C62.0666 19.4121 62.3199 19.5373 62.6999 19.5373C63.0799 19.5373 63.3333 19.4121 63.5865 19.1616C64.0931 18.6607 64.2199 17.9092 63.7131 17.4082C60.6733 14.1521 57.3799 12.3987 53.8333 12.3987Z" fill="#A4895D"/>
<path d="M15.2 2.50472C15.96 2.50472 16.4666 2.00381 16.4666 1.25236C16.4666 0.500916 15.96 2.3453e-09 15.2 2.3453e-09C6.9666 -0.000146765 0 6.88807 0 15.0288C0 15.7802 0.506616 16.2812 1.26661 16.2812C2.02661 16.2812 2.53323 15.7802 2.53323 15.0288C2.53338 8.39096 8.4866 2.50472 15.2 2.50472Z" fill="#A4895D"/>
<path d="M15.2 7.51432C15.96 7.51432 16.4666 7.0134 16.4666 6.26196C16.4666 5.51051 15.96 5.0096 15.2 5.0096C10.1334 5.0096 5.44661 9.76881 5.44661 15.0289C5.44661 15.7804 5.95322 16.2813 6.71322 16.2813C7.3466 16.2813 7.97984 15.7804 7.97984 15.0289C7.97998 11.1464 11.5266 7.51432 15.2 7.51432Z" fill="#A4895D"/>
<path d="M74.7332 46.339C73.9732 46.339 73.4666 46.8399 73.4666 47.5914C73.4666 54.2292 67.5133 60.1154 60.8 60.1154C60.04 60.1154 59.5334 60.6164 59.5334 61.3678C59.5334 62.1193 60.04 62.6202 60.8 62.6202C69.0334 62.6202 76 55.732 76 47.5912C75.9999 46.8401 75.4932 46.339 74.7332 46.339Z" fill="#A4895D"/>
<path d="M68.3999 47.5915C68.3999 51.3488 64.5999 55.106 60.7999 55.106C60.0399 55.106 59.5333 55.6069 59.5333 56.3584C59.5333 57.1098 60.0399 57.6107 60.7999 57.6107C65.9933 57.6107 70.9332 52.7263 70.9332 47.5914C70.9332 46.8399 70.4266 46.339 69.6666 46.339C68.9066 46.339 68.3999 46.8401 68.3999 47.5915Z" fill="#A4895D"/>
</svg>
