<svg width="68" height="64" viewBox="0 0 68 64" fill="none" xmlns="http://www.w3.org/2000/svg">
<path d="M32.9077 40.2125C30.4443 40.2125 28.4457 38.2003 28.4457 35.7202C28.4457 33.2401 30.4443 31.2279 32.9077 31.2279C35.3712 31.2279 37.3698 33.2401 37.3698 35.7202C37.3698 38.2003 35.3712 40.2125 32.9077 40.2125ZM32.9077 32.7409C31.2809 32.7409 29.9485 34.0824 29.9485 35.7202C29.9485 37.358 31.2809 38.6995 32.9077 38.6995C34.5345 38.6995 35.8669 37.358 35.8669 35.7202C35.8669 34.0824 34.5345 32.7409 32.9077 32.7409Z" fill="#A4895D"/>
<path d="M36.0529 51.3653H29.964C29.5457 51.3653 29.2203 51.0222 29.2203 50.6166V40.8833C29.2203 39.651 30.2274 38.6371 31.4514 38.6371C33.8683 38.6371 36.0064 40.2749 36.6261 42.6303C36.7346 43.0358 36.5022 43.4414 36.0993 43.5506C35.6965 43.6598 35.2937 43.4258 35.1852 43.0202C34.7359 41.32 33.2021 40.1345 31.4514 40.1345C31.0485 40.1345 30.7232 40.4621 30.7232 40.8677V49.8523H35.3247V46.0307C35.3247 45.6096 35.6655 45.282 36.0684 45.282C36.4712 45.282 36.812 45.6252 36.812 46.0307V50.601C36.812 51.0222 36.4712 51.3497 36.0684 51.3497L36.0529 51.3653Z" fill="#A4895D"/>
<path d="M32.2105 63.4697C30.5527 63.4697 29.2048 62.1126 29.2048 60.4436V50.601C29.2048 50.1799 29.5457 49.8523 29.9485 49.8523C30.3513 49.8523 30.6922 50.1955 30.6922 50.601V60.4436C30.6922 61.2859 31.3739 61.9566 32.195 61.9566C33.0162 61.9566 33.6979 61.2703 33.6979 60.4436V50.601C33.6979 50.1799 34.0387 49.8523 34.4416 49.8523C34.8444 49.8523 35.1852 50.1955 35.1852 50.601V60.4436C35.1852 62.1126 33.8373 63.4697 32.1795 63.4697H32.2105Z" fill="#A4895D"/>
<path d="M21.1328 63.9844C20.761 63.9844 20.4511 63.7192 20.3892 63.3449C20.3272 62.9393 20.6061 62.5494 21.0244 62.487C28.802 61.3171 29.2048 53.4867 29.2203 53.1592C29.2358 52.738 29.5922 52.4572 29.995 52.4416C30.4133 52.4572 30.7232 52.816 30.7077 53.2215C30.7077 53.3151 30.2274 62.6273 21.2413 63.9844C21.2103 63.9844 21.1638 63.9844 21.1328 63.9844Z" fill="#A4895D"/>
<path d="M3.98177 63.9844C3.56345 63.9844 3.2381 63.6412 3.2381 63.2357C3.2381 62.8301 3.57895 62.487 3.98177 62.487C21.2723 62.487 29.1893 40.8521 29.2668 40.6337C29.4062 40.2437 29.8401 40.0409 30.2274 40.1813C30.6147 40.3217 30.8161 40.7585 30.6767 41.1484C30.5992 41.3824 22.3103 64 3.98177 64V63.9844Z" fill="#A4895D"/>
<path d="M37.4163 47.185C37.1529 47.185 36.905 47.1382 36.6571 47.0446L32.9232 45.672C32.3655 45.4692 31.9162 45.0636 31.6683 44.5177C31.4204 43.9717 31.3894 43.3634 31.5908 42.8019C32.0091 41.6476 33.2796 41.0392 34.4416 41.4604L37.1064 42.4431L40.0656 40.4153C41.0727 39.7134 42.4671 39.9942 43.1488 41.008C43.8305 42.0219 43.5671 43.4258 42.56 44.1121L38.6557 46.7794C38.2839 47.029 37.8501 47.1694 37.4008 47.1694L37.4163 47.185ZM33.6824 42.8486C33.388 42.8486 33.1091 43.0358 33.0007 43.3322C32.8612 43.7066 33.0627 44.1277 33.4345 44.2681L37.1684 45.6408C37.3853 45.7187 37.6332 45.6875 37.8191 45.5628L41.7234 42.8954C42.0488 42.6771 42.1417 42.2091 41.9093 41.8816C41.8009 41.7256 41.6304 41.6164 41.4445 41.5696C41.2586 41.5384 41.0572 41.5696 40.9023 41.6788L37.8191 43.7845C37.4937 44.0029 37.0909 44.0497 36.7191 43.9249L33.9148 42.8954C33.8373 42.8642 33.7444 42.8486 33.6669 42.8486H33.6824Z" fill="#A4895D"/>
<path d="M3.98177 40.2125C3.71839 40.2125 3.47049 40.0721 3.33105 39.8226C3.12964 39.4638 3.25359 38.9959 3.60993 38.7931L54.4589 9.92055C54.8152 9.71777 55.28 9.84256 55.4814 10.2013C55.6828 10.5601 55.5589 11.028 55.2026 11.2308L4.35361 40.1189C4.22966 40.1813 4.10572 40.2125 3.98177 40.2125Z" fill="#A4895D"/>
<path d="M47.5024 59.5545C47.5024 59.5545 47.3939 59.5545 47.332 59.5389C46.9291 59.4453 46.6812 59.0397 46.7742 58.6342L56.8603 15.3488C56.9533 14.9432 57.3561 14.678 57.7589 14.7872C58.1618 14.8808 58.4097 15.2864 58.3167 15.6919L48.2306 58.9773C48.1531 59.3205 47.8432 59.5545 47.5024 59.5545Z" fill="#A4895D"/>
<path d="M61.2914 14.8808C61.2914 14.8808 61.152 14.8808 61.09 14.8496C60.9041 14.8028 60.7337 14.6624 60.6407 14.4909L57.0927 8.14233C56.8913 7.78357 57.0153 7.31562 57.3716 7.11284L62.0506 4.46113C63.6154 3.57202 65.5985 4.13356 66.4662 5.70899L67.5662 7.67439C68.4493 9.24982 67.8915 11.2464 66.3267 12.1199L61.6478 14.7716C61.5393 14.834 61.4154 14.8652 61.2759 14.8652L61.2914 14.8808ZM58.766 8.06434L61.5703 13.1026L65.5985 10.8253C66.4352 10.3417 66.745 9.26542 66.2648 8.42311L65.1647 6.45771C64.6844 5.6154 63.6154 5.30344 62.7788 5.78699L58.7505 8.06434H58.766Z" fill="#A4895D"/>
<path d="M58.3477 17.6417C58.3477 17.6417 58.2702 17.6417 58.2392 17.6417C58.0068 17.6105 57.8209 17.4701 57.697 17.2674L53.2349 9.26542C53.1265 9.06264 53.111 8.82866 53.1884 8.61029C53.2659 8.39191 53.4518 8.23592 53.6842 8.17353L57.542 7.06605C57.9449 6.95686 58.3477 7.19084 58.4716 7.5808C58.5801 7.98635 58.3477 8.39191 57.9604 8.5167L55.0166 9.35901L58.5491 15.6919L60.7956 13.5862C61.09 13.3054 61.5703 13.321 61.8492 13.633C62.128 13.9449 62.1126 14.4129 61.8027 14.6936L58.859 17.4389C58.7195 17.5637 58.5336 17.6417 58.3477 17.6417Z" fill="#A4895D"/>
<path d="M67.2563 1.51304H59.2618C58.8435 1.51304 58.5181 1.16988 58.5181 0.764319C58.5181 0.358762 58.859 0.0155983 59.2618 0.0155983H67.2563C67.6746 0.0155983 68 0.358762 68 0.764319C68 1.16988 67.6591 1.51304 67.2563 1.51304Z" fill="#A4895D"/>
<path d="M63.2436 9.06264C62.8252 9.06264 62.4999 8.71947 62.4999 8.31392V0.74872C62.4999 0.327565 62.8407 0 63.2436 0C63.6464 0 63.9872 0.343164 63.9872 0.74872V8.29832C63.9872 8.71947 63.6464 9.04704 63.2436 9.04704V9.06264Z" fill="#A4895D"/>
<path d="M52.5377 63.9844H0.743677C0.325359 63.9844 0 63.6412 0 63.2357C0 62.8301 0.340852 62.487 0.743677 62.487H52.5377C52.956 62.487 53.2814 62.8301 53.2814 63.2357C53.2814 63.6412 52.9405 63.9844 52.5377 63.9844Z" fill="#A4895D"/>
</svg>
