<svg width="390" height="545" viewBox="0 0 390 545" fill="none" xmlns="http://www.w3.org/2000/svg">
<g opacity="0.2">
<g clip-path="url(#clip0_2426_1283)">
<path d="M19.553 0.809535C19.6101 4.9794 19.5816 9.27161 18.731 13.3712C18.0101 16.8409 16.2493 20.0919 14.0346 22.8302C10.4404 27.2734 5.58325 30.488 0.414919 32.802C-0.497902 33.2106 0.293037 34.5563 1.20067 34.1503C6.70353 31.6853 11.8615 28.1792 15.5854 23.3664C17.7559 20.5605 19.5064 17.286 20.2325 13.7877C21.1142 9.55012 21.1686 5.12256 21.1116 0.812137C21.0986 -0.192588 19.5427 -0.195191 19.5556 0.812137L19.553 0.809535Z" fill="#7D0B15"/>
<path d="M9.37198 0.809456C9.73244 6.47861 9.91137 12.3872 8.92076 18.0043C7.92754 23.6474 4.50706 28.4758 0.256732 32.1746C-0.500495 32.8331 0.604226 33.9342 1.35627 33.2782C5.68698 29.5092 9.2864 24.4882 10.3626 18.7461C11.4595 12.8896 11.3039 6.73109 10.9279 0.809456C10.8657 -0.18746 9.30715 -0.195269 9.37198 0.809456Z" fill="#7D0B15"/>
<path d="M52.3653 38.3644H15.6347C14.6337 38.3644 14.6311 39.9261 15.6347 39.9261H52.3627C53.3637 39.9261 53.3663 38.3644 52.3627 38.3644H52.3653Z" fill="#7D0B15"/>
<path d="M1.58188 50.0515V17.7467C1.58188 14.0063 1.39776 10.2139 1.58706 6.47609C1.75562 3.15738 4.75601 1.59042 7.72008 1.59042H51.6133C54.816 1.59042 58.0834 1.39781 61.2835 1.60083C64.0194 1.77523 66.3248 3.84194 66.4181 6.64789C66.4285 6.93421 66.4181 7.22313 66.4181 7.50945V50.0541C66.4181 51.0588 67.9741 51.0614 67.9741 50.0541V9.00613C67.9741 7.43657 68.1115 5.80715 67.5177 4.31828C65.5338 -0.63507 60.0777 0.0286735 55.7884 0.0286735H9.17748C7.82641 0.0286735 6.4105 -0.0676343 5.09572 0.294171C1.94234 1.16354 0.0388982 3.8888 0.0259319 7.09559C0.0181522 8.90722 0.0259319 10.7188 0.0259319 12.5305V50.0541C0.0259319 51.0588 1.58188 51.0614 1.58188 50.0541V50.0515Z" fill="#7D0B15"/>
<path d="M4.55633 31.373C5.53657 35.0197 6.29121 38.8225 6.58165 42.5941C6.66982 43.7316 7.01991 46.2512 5.93593 47.0738C4.61079 48.0785 2.25094 45.9909 1.35367 45.1606C0.619786 44.4786 -0.484935 45.5823 0.254139 46.2642C1.58188 47.4954 3.379 48.8984 5.28762 48.862C7.14698 48.8281 7.93014 47.1362 8.12463 45.5094C8.39433 43.2579 7.99497 40.9309 7.65007 38.708C7.24293 36.0947 6.74502 33.5126 6.05781 30.9565C5.79849 29.9882 4.297 30.3995 4.55633 31.373Z" fill="#7D0B15"/>
<path d="M7.2144 30.1522C9.5924 33.1976 11.5166 36.748 12.1312 40.6055C12.3516 41.9955 12.3957 43.4609 12.1053 44.8431C11.9315 45.676 11.6281 46.9436 10.6997 47.2482C9.62611 47.5996 8.23614 46.7406 7.40889 46.1628C6.58424 45.5875 5.80627 46.941 6.62314 47.5111C8.27763 48.6668 10.8968 49.6637 12.4683 47.852C13.6923 46.4439 13.9024 44.1819 13.8531 42.3885C13.7183 37.4482 11.291 32.8514 8.31394 29.046C7.69674 28.2547 6.60239 29.3687 7.2144 30.1496V30.1522Z" fill="#7D0B15"/>
<path d="M67.5877 32.7993C62.4193 30.4853 57.5596 27.2707 53.968 22.8275C51.7533 20.0919 49.9899 16.8382 49.2716 13.3686C48.4236 9.26897 48.3925 4.97676 48.4495 0.806889C48.4625 -0.197837 46.9066 -0.197837 46.8936 0.806889C46.8365 5.11732 46.8936 9.54487 47.7727 13.7824C48.4988 17.2807 50.2492 20.5552 52.4198 23.3611C56.1437 28.1739 61.3016 31.6801 66.8045 34.145C67.7121 34.5511 68.5031 33.2054 67.5903 32.7967L67.5877 32.7993Z" fill="#7D0B15"/>
<path d="M67.7459 32.1746C63.4955 28.4784 60.0699 23.6474 59.0818 18.0043C58.0964 12.3846 58.2702 6.48121 58.6306 0.809454C58.6954 -0.195271 57.1369 -0.190065 57.0747 0.809454C56.6986 6.72848 56.5379 12.8922 57.64 18.7461C58.7214 24.4882 62.313 29.5092 66.6463 33.2782C67.401 33.9342 68.5057 32.8331 67.7459 32.1746Z" fill="#7D0B15"/>
<path d="M66.6437 45.1632C65.7724 45.9701 63.3373 48.1253 62.0615 47.0763C60.9905 46.1939 61.325 43.7758 61.4157 42.5967C61.7062 38.8251 62.4608 35.0222 63.4411 31.3755C63.703 30.4047 62.2015 29.9882 61.9396 30.9591C61.2731 33.4423 60.7804 35.9515 60.381 38.4893C60.0206 40.7825 59.5901 43.1876 59.8702 45.512C60.0595 47.0815 60.7804 48.7318 62.5568 48.8619C64.5043 49.0025 66.4 47.511 67.7407 46.2668C68.4771 45.5823 67.375 44.4812 66.6411 45.1632H66.6437Z" fill="#7D0B15"/>
<path d="M60.5911 46.1653C59.7561 46.7483 58.3739 47.6021 57.3003 47.2507C56.403 46.9566 56.1048 45.7879 55.9233 44.9809C55.6017 43.5572 55.6406 42.0423 55.8688 40.6081C56.4834 36.7505 58.4076 33.1976 60.7856 30.1547C61.3976 29.3739 60.3033 28.2598 59.6861 29.0511C56.7116 32.8566 54.2843 37.4533 54.1469 42.3937C54.0976 44.1402 54.2973 46.3084 55.4202 47.7244C56.9761 49.6844 59.6575 48.7161 61.3743 47.5162C62.1911 46.9462 61.4132 45.5926 60.5885 46.1679L60.5911 46.1653Z" fill="#7D0B15"/>
<path d="M8.85074 64.2451C8.85074 63.1909 8.5966 61.7801 9.00114 60.791C9.65205 59.198 11.6437 59.5052 13.031 59.5052C14.4184 59.5052 16.1922 59.2111 16.9728 60.575C17.5199 61.5329 17.2139 63.1805 17.2139 64.2451C17.2139 65.2498 18.7699 65.2524 18.7699 64.2451C18.7699 62.6703 19.0759 60.7702 18.0723 59.4297C16.8275 57.769 14.8645 57.9434 13.031 57.9434C11.1976 57.9434 9.3227 57.769 8.05202 59.3516C6.97582 60.6895 7.29479 62.6417 7.29479 64.2451C7.29479 65.2498 8.85074 65.2524 8.85074 64.2451Z" fill="#7D0B15"/>
<path d="M23.6945 64.2451C23.6945 63.1909 23.4403 61.7801 23.8449 60.791C24.4958 59.198 26.4874 59.5052 27.8748 59.5052C29.2621 59.5052 31.0359 59.2111 31.8165 60.575C32.3637 61.5329 32.0577 63.1805 32.0577 64.2451C32.0577 65.2498 33.6136 65.2524 33.6136 64.2451C33.6136 62.6703 33.9196 60.7702 32.916 59.4297C31.6713 57.769 29.7082 57.9434 27.8748 57.9434C26.0413 57.9434 24.1664 57.769 22.8957 59.3516C21.8195 60.6895 22.1385 62.6417 22.1385 64.2451C22.1385 65.2498 23.6945 65.2524 23.6945 64.2451Z" fill="#7D0B15"/>
<path d="M38.5356 64.2451C38.5356 63.1909 38.2814 61.7801 38.686 60.791C39.3369 59.198 41.3285 59.5052 42.7159 59.5052C44.1033 59.5052 45.877 59.2111 46.6576 60.575C47.2048 61.5329 46.8988 63.1805 46.8988 64.2451C46.8988 65.2498 48.4547 65.2524 48.4547 64.2451C48.4547 62.6703 48.7607 60.7702 47.7571 59.4297C46.5124 57.769 44.5493 57.9434 42.7159 57.9434C40.8825 57.9434 39.0075 57.769 37.7369 59.3516C36.6607 60.6895 36.9796 62.6417 36.9796 64.2451C36.9796 65.2498 38.5356 65.2524 38.5356 64.2451Z" fill="#7D0B15"/>
<path d="M53.3793 64.2451C53.3793 63.1909 53.1252 61.7801 53.5297 60.791C54.1806 59.198 56.1722 59.5052 57.5596 59.5052C58.947 59.5052 60.7208 59.2111 61.5013 60.575C62.0485 61.5329 61.7425 63.1805 61.7425 64.2451C61.7425 65.2498 63.2985 65.2524 63.2985 64.2451C63.2985 62.6703 63.6045 60.7702 62.6009 59.4297C61.3561 57.769 59.393 57.9434 57.5596 57.9434C55.7262 57.9434 53.8513 57.769 52.5806 59.3516C51.5044 60.6895 51.8234 62.6417 51.8234 64.2451C51.8234 65.2498 53.3793 65.2524 53.3793 64.2451Z" fill="#7D0B15"/>
<path d="M15.8395 55.5488C15.8395 54.4946 15.5854 53.0838 15.9899 52.0947C16.6408 50.5017 18.6324 50.8089 20.0198 50.8089C21.4072 50.8089 23.181 50.5148 23.9616 51.8787C24.5087 52.8366 24.2027 54.4842 24.2027 55.5488C24.2027 56.5535 25.7587 56.5561 25.7587 55.5488C25.7587 53.974 26.0647 52.0739 25.0611 50.7334C23.8163 49.0727 21.8533 49.2471 20.0198 49.2471C18.1864 49.2471 16.3115 49.0727 15.0408 50.6553C13.9646 51.9932 14.2836 53.9454 14.2836 55.5488C14.2836 56.5535 15.8395 56.5561 15.8395 55.5488Z" fill="#7D0B15"/>
<path d="M31.1137 55.5488C31.1137 54.4946 30.8596 53.0838 31.2641 52.0947C31.915 50.5017 33.9066 50.8089 35.294 50.8089C36.6814 50.8089 38.4552 50.5148 39.2358 51.8787C39.7829 52.8366 39.4769 54.4842 39.4769 55.5488C39.4769 56.5535 41.0329 56.5561 41.0329 55.5488C41.0329 53.974 41.3389 52.0739 40.3353 50.7334C39.0905 49.0727 37.1275 49.2471 35.294 49.2471C33.4606 49.2471 31.5857 49.0727 30.315 50.6553C29.2388 51.9932 29.5578 53.9454 29.5578 55.5488C29.5578 56.5535 31.1137 56.5561 31.1137 55.5488Z" fill="#7D0B15"/>
<path d="M46.3905 55.5488C46.3905 54.4946 46.1364 53.0838 46.5409 52.0947C47.1918 50.5017 49.1834 50.8089 50.5708 50.8089C51.9582 50.8089 53.732 50.5148 54.5126 51.8787C55.0597 52.8366 54.7537 54.4842 54.7537 55.5488C54.7537 56.5535 56.3097 56.5561 56.3097 55.5488C56.3097 53.974 56.6157 52.0739 55.6121 50.7334C54.3673 49.0727 52.4042 49.2471 50.5708 49.2471C48.7374 49.2471 46.8625 49.0727 45.5918 50.6553C44.5156 51.9932 44.8346 53.9454 44.8346 55.5488C44.8346 56.5535 46.3905 56.5561 46.3905 55.5488Z" fill="#7D0B15"/>
<path d="M20.1313 4.28437C28.772 7.71241 39.228 7.71241 47.8687 4.28437C48.7893 3.91996 48.3873 2.40767 47.4563 2.77728C39.0361 6.11682 28.9665 6.11943 20.5463 2.77728C19.6153 2.40767 19.2107 3.91736 20.1313 4.28437Z" fill="#7D0B15"/>
<path d="M19.8331 7.81135C28.0278 13.0536 39.9748 13.0536 48.1669 7.81135C49.0097 7.27254 48.2291 5.92163 47.3811 6.46304C39.6325 11.4216 28.3675 11.4216 20.6163 6.46304C19.7683 5.92163 18.9877 7.27254 19.8305 7.81135H19.8331Z" fill="#7D0B15"/>
</g>
</g>
<path opacity="0.2" d="M365 534.397C358.635 534.397 352.53 531.927 348.029 527.53C343.529 523.133 341 517.17 341 510.952L347.415 511.299C347.415 515.865 349.272 520.243 352.577 523.472C355.882 526.7 360.364 528.514 365.038 528.514C369.712 528.514 374.194 526.7 377.499 523.472C380.804 520.243 382.661 515.865 382.661 511.299L389 510.952C389 517.17 386.471 523.133 381.971 527.53C377.47 531.927 371.365 534.397 365 534.397ZM365 534.397V544M353.425 544H376.22M355.212 498.01H360.461M355.212 506.679H360.461M355.212 515.349H360.461M369.158 498.01H374.407M369.158 506.679H374.407M369.158 515.349H374.407M361.729 487.239V493.592M368.068 487.239V493.592M362.553 486H367.206C371.26 486 374.547 489.211 374.547 493.171V516.723C374.547 520.684 371.26 523.894 367.206 523.894H362.553C358.499 523.894 355.212 520.684 355.212 516.723V493.171C355.212 489.211 358.499 486 362.553 486Z" stroke="#7D0B15" stroke-width="1.5" stroke-linecap="round" stroke-linejoin="round"/>
<defs>
<clipPath id="clip0_2426_1283">
<rect width="68" height="65" fill="white"/>
</clipPath>
</defs>
</svg>
