<svg width="1228" height="457" viewBox="0 0 1228 457" fill="none" xmlns="http://www.w3.org/2000/svg">
<g opacity="0.2">
<g clip-path="url(#clip0_1947_2277)">
<path d="M1179.55 0.809535C1179.61 4.9794 1179.58 9.27161 1178.73 13.3712C1178.01 16.8409 1176.25 20.0919 1174.03 22.8302C1170.44 27.2734 1165.58 30.488 1160.41 32.802C1159.5 33.2106 1160.29 34.5563 1161.2 34.1503C1166.7 31.6853 1171.86 28.1792 1175.59 23.3664C1177.76 20.5605 1179.51 17.286 1180.23 13.7877C1181.11 9.55012 1181.17 5.12256 1181.11 0.812137C1181.1 -0.192588 1179.54 -0.195191 1179.56 0.812137L1179.55 0.809535Z" fill="#7D0B15"/>
<path d="M1169.37 0.809518C1169.73 6.47867 1169.91 12.3873 1168.92 18.0044C1167.93 23.6475 1164.51 28.4759 1160.26 32.1746C1159.5 32.8332 1160.6 33.9342 1161.36 33.2783C1165.69 29.5093 1169.29 24.4882 1170.36 18.7462C1171.46 12.8896 1171.3 6.73115 1170.93 0.809518C1170.87 -0.187399 1169.31 -0.195208 1169.37 0.809518Z" fill="#7D0B15"/>
<path d="M1212.37 38.3644H1175.63C1174.63 38.3644 1174.63 39.9261 1175.63 39.9261H1212.36C1213.36 39.9261 1213.37 38.3644 1212.36 38.3644H1212.37Z" fill="#7D0B15"/>
<path d="M1161.58 50.0514V17.7467C1161.58 14.0063 1161.4 10.2138 1161.59 6.47603C1161.76 3.15732 1164.76 1.59036 1167.72 1.59036H1211.61C1214.82 1.59036 1218.08 1.39775 1221.28 1.60077C1224.02 1.77517 1226.32 3.84188 1226.42 6.64783C1226.43 6.93415 1226.42 7.22307 1226.42 7.50939V50.054C1226.42 51.0588 1227.97 51.0614 1227.97 50.054V9.00607C1227.97 7.43651 1228.11 5.80708 1227.52 4.31822C1225.53 -0.635131 1220.08 0.0286125 1215.79 0.0286125H1169.18C1167.83 0.0286125 1166.41 -0.0676954 1165.1 0.29411C1161.94 1.16348 1160.04 3.88874 1160.03 7.09553C1160.02 8.90716 1160.03 10.7188 1160.03 12.5304V50.054C1160.03 51.0588 1161.58 51.0614 1161.58 50.054V50.0514Z" fill="#7D0B15"/>
<path d="M1164.56 31.373C1165.54 35.0197 1166.29 38.8225 1166.58 42.5941C1166.67 43.7316 1167.02 46.2512 1165.94 47.0738C1164.61 48.0785 1162.25 45.9909 1161.35 45.1606C1160.62 44.4786 1159.52 45.5823 1160.25 46.2642C1161.58 47.4954 1163.38 48.8984 1165.29 48.862C1167.15 48.8281 1167.93 47.1362 1168.12 45.5094C1168.39 43.2579 1167.99 40.9309 1167.65 38.708C1167.24 36.0947 1166.74 33.5126 1166.06 30.9565C1165.8 29.9882 1164.3 30.3995 1164.56 31.373Z" fill="#7D0B15"/>
<path d="M1167.21 30.1522C1169.59 33.1976 1171.52 36.7479 1172.13 40.6055C1172.35 41.9954 1172.4 43.4609 1172.11 44.843C1171.93 45.6759 1171.63 46.9436 1170.7 47.2481C1169.63 47.5995 1168.24 46.7405 1167.41 46.1627C1166.58 45.5875 1165.81 46.941 1166.62 47.511C1168.28 48.6667 1170.9 49.6636 1172.47 47.852C1173.69 46.4438 1173.9 44.1819 1173.85 42.3885C1173.72 37.4481 1171.29 32.8514 1168.31 29.0459C1167.7 28.2546 1166.6 29.3687 1167.21 30.1496V30.1522Z" fill="#7D0B15"/>
<path d="M1227.59 32.7993C1222.42 30.4853 1217.56 27.2707 1213.97 22.8275C1211.75 20.0919 1209.99 16.8382 1209.27 13.3686C1208.42 9.26897 1208.39 4.97676 1208.45 0.806889C1208.46 -0.197837 1206.91 -0.197837 1206.89 0.806889C1206.84 5.11732 1206.89 9.54487 1207.77 13.7824C1208.5 17.2807 1210.25 20.5552 1212.42 23.3611C1216.14 28.1739 1221.3 31.6801 1226.8 34.145C1227.71 34.5511 1228.5 33.2054 1227.59 32.7967L1227.59 32.7993Z" fill="#7D0B15"/>
<path d="M1227.75 32.1746C1223.5 28.4785 1220.07 23.6475 1219.08 18.0044C1218.1 12.3847 1218.27 6.48127 1218.63 0.809515C1218.7 -0.19521 1217.14 -0.190004 1217.07 0.809515C1216.7 6.72855 1216.54 12.8922 1217.64 18.7462C1218.72 24.4882 1222.31 29.5093 1226.65 33.2783C1227.4 33.9342 1228.51 32.8332 1227.75 32.1746Z" fill="#7D0B15"/>
<path d="M1226.64 45.1632C1225.77 45.9701 1223.34 48.1253 1222.06 47.0763C1220.99 46.1939 1221.33 43.7758 1221.42 42.5967C1221.71 38.8251 1222.46 35.0222 1223.44 31.3755C1223.7 30.4047 1222.2 29.9882 1221.94 30.9591C1221.27 33.4423 1220.78 35.9515 1220.38 38.4893C1220.02 40.7825 1219.59 43.1876 1219.87 45.512C1220.06 47.0815 1220.78 48.7318 1222.56 48.8619C1224.5 49.0025 1226.4 47.511 1227.74 46.2668C1228.48 45.5823 1227.38 44.4812 1226.64 45.1632H1226.64Z" fill="#7D0B15"/>
<path d="M1220.59 46.1653C1219.76 46.7483 1218.37 47.6021 1217.3 47.2507C1216.4 46.9566 1216.1 45.7879 1215.92 44.9809C1215.6 43.5572 1215.64 42.0423 1215.87 40.6081C1216.48 36.7505 1218.41 33.1976 1220.79 30.1547C1221.4 29.3739 1220.3 28.2598 1219.69 29.0511C1216.71 32.8566 1214.28 37.4533 1214.15 42.3937C1214.1 44.1402 1214.3 46.3084 1215.42 47.7244C1216.98 49.6844 1219.66 48.7161 1221.37 47.5162C1222.19 46.9462 1221.41 45.5926 1220.59 46.1679L1220.59 46.1653Z" fill="#7D0B15"/>
<path d="M1168.85 64.2452C1168.85 63.191 1168.6 61.7802 1169 60.7911C1169.65 59.1981 1171.64 59.5052 1173.03 59.5052C1174.42 59.5052 1176.19 59.2111 1176.97 60.575C1177.52 61.5329 1177.21 63.1806 1177.21 64.2452C1177.21 65.2499 1178.77 65.2525 1178.77 64.2452C1178.77 62.6704 1179.08 60.7703 1178.07 59.4298C1176.83 57.7691 1174.86 57.9435 1173.03 57.9435C1171.2 57.9435 1169.32 57.7691 1168.05 59.3517C1166.98 60.6896 1167.29 62.6418 1167.29 64.2452C1167.29 65.2499 1168.85 65.2525 1168.85 64.2452Z" fill="#7D0B15"/>
<path d="M1183.69 64.2452C1183.69 63.191 1183.44 61.7802 1183.85 60.7911C1184.5 59.1981 1186.49 59.5052 1187.87 59.5052C1189.26 59.5052 1191.04 59.2111 1191.82 60.575C1192.36 61.5329 1192.06 63.1806 1192.06 64.2452C1192.06 65.2499 1193.61 65.2525 1193.61 64.2452C1193.61 62.6704 1193.92 60.7703 1192.92 59.4298C1191.67 57.7691 1189.71 57.9435 1187.87 57.9435C1186.04 57.9435 1184.17 57.7691 1182.9 59.3517C1181.82 60.6896 1182.14 62.6418 1182.14 64.2452C1182.14 65.2499 1183.69 65.2525 1183.69 64.2452Z" fill="#7D0B15"/>
<path d="M1198.54 64.2452C1198.54 63.191 1198.28 61.7802 1198.69 60.7911C1199.34 59.1981 1201.33 59.5052 1202.72 59.5052C1204.1 59.5052 1205.88 59.2111 1206.66 60.575C1207.2 61.5329 1206.9 63.1806 1206.9 64.2452C1206.9 65.2499 1208.45 65.2525 1208.45 64.2452C1208.45 62.6704 1208.76 60.7703 1207.76 59.4298C1206.51 57.7691 1204.55 57.9435 1202.72 57.9435C1200.88 57.9435 1199.01 57.7691 1197.74 59.3517C1196.66 60.6896 1196.98 62.6418 1196.98 64.2452C1196.98 65.2499 1198.54 65.2525 1198.54 64.2452Z" fill="#7D0B15"/>
<path d="M1213.38 64.2452C1213.38 63.191 1213.13 61.7802 1213.53 60.7911C1214.18 59.1981 1216.17 59.5052 1217.56 59.5052C1218.95 59.5052 1220.72 59.2111 1221.5 60.575C1222.05 61.5329 1221.74 63.1806 1221.74 64.2452C1221.74 65.2499 1223.3 65.2525 1223.3 64.2452C1223.3 62.6704 1223.6 60.7703 1222.6 59.4298C1221.36 57.7691 1219.39 57.9435 1217.56 57.9435C1215.73 57.9435 1213.85 57.7691 1212.58 59.3517C1211.5 60.6896 1211.82 62.6418 1211.82 64.2452C1211.82 65.2499 1213.38 65.2525 1213.38 64.2452Z" fill="#7D0B15"/>
<path d="M1175.84 55.5488C1175.84 54.4946 1175.59 53.0838 1175.99 52.0947C1176.64 50.5017 1178.63 50.8089 1180.02 50.8089C1181.41 50.8089 1183.18 50.5148 1183.96 51.8787C1184.51 52.8366 1184.2 54.4842 1184.2 55.5488C1184.2 56.5535 1185.76 56.5561 1185.76 55.5488C1185.76 53.974 1186.06 52.0739 1185.06 50.7334C1183.82 49.0727 1181.85 49.2471 1180.02 49.2471C1178.19 49.2471 1176.31 49.0727 1175.04 50.6553C1173.96 51.9932 1174.28 53.9454 1174.28 55.5488C1174.28 56.5535 1175.84 56.5561 1175.84 55.5488Z" fill="#7D0B15"/>
<path d="M1191.11 55.5488C1191.11 54.4946 1190.86 53.0838 1191.26 52.0947C1191.92 50.5017 1193.91 50.8089 1195.29 50.8089C1196.68 50.8089 1198.46 50.5148 1199.24 51.8787C1199.78 52.8366 1199.48 54.4842 1199.48 55.5488C1199.48 56.5535 1201.03 56.5561 1201.03 55.5488C1201.03 53.974 1201.34 52.0739 1200.34 50.7334C1199.09 49.0727 1197.13 49.2471 1195.29 49.2471C1193.46 49.2471 1191.59 49.0727 1190.32 50.6553C1189.24 51.9932 1189.56 53.9454 1189.56 55.5488C1189.56 56.5535 1191.11 56.5561 1191.11 55.5488Z" fill="#7D0B15"/>
<path d="M1206.39 55.5488C1206.39 54.4946 1206.14 53.0838 1206.54 52.0947C1207.19 50.5017 1209.18 50.8089 1210.57 50.8089C1211.96 50.8089 1213.73 50.5148 1214.51 51.8787C1215.06 52.8366 1214.75 54.4842 1214.75 55.5488C1214.75 56.5535 1216.31 56.5561 1216.31 55.5488C1216.31 53.974 1216.62 52.0739 1215.61 50.7334C1214.37 49.0727 1212.4 49.2471 1210.57 49.2471C1208.74 49.2471 1206.86 49.0727 1205.59 50.6553C1204.52 51.9932 1204.83 53.9454 1204.83 55.5488C1204.83 56.5535 1206.39 56.5561 1206.39 55.5488Z" fill="#7D0B15"/>
<path d="M1180.13 4.28437C1188.77 7.71241 1199.23 7.71241 1207.87 4.28437C1208.79 3.91996 1208.39 2.40767 1207.46 2.77728C1199.04 6.11682 1188.97 6.11943 1180.55 2.77728C1179.62 2.40767 1179.21 3.91736 1180.13 4.28437Z" fill="#7D0B15"/>
<path d="M1179.83 7.81135C1188.03 13.0536 1199.97 13.0536 1208.17 7.81135C1209.01 7.27254 1208.23 5.92163 1207.38 6.46304C1199.63 11.4216 1188.37 11.4216 1180.62 6.46304C1179.77 5.92163 1178.99 7.27254 1179.83 7.81135H1179.83Z" fill="#7D0B15"/>
</g>
</g>
<g opacity="0.2">
<g clip-path="url(#clip1_1947_2277)">
<path d="M36.0495 93.738H11.0016C9.63382 93.738 8.21188 93.8247 6.88473 93.5013C3.62916 92.7092 1.66282 90.1149 1.64386 87.2675C1.61677 83.3749 1.64386 79.48 1.64386 75.5874C1.64386 73.9469 1.63573 72.3088 1.64386 70.6683C1.65469 68.0412 3.09559 65.6415 5.97198 64.5494C7.4833 63.9752 9.03525 64.0268 10.6332 64.0268H32.5366C33.6985 64.0268 34.8659 64.008 36.0278 64.0268C39.9144 64.0901 43.1429 66.7054 43.2648 70.1082C43.3867 73.5274 43.2702 76.9654 43.2702 80.3869V86.2786C43.2702 88.2588 43.04 90.1337 41.3987 91.6851C40.0038 93.0021 38.1025 93.6958 36.0522 93.7357C35.0094 93.7567 35.004 95.1629 36.0522 95.1418C39.9686 95.0644 43.4815 92.885 44.5649 89.5736C45.0361 88.137 44.898 86.5762 44.898 85.0974V71.4206C44.898 69.4122 44.6515 67.5069 43.2377 65.8126C41.4881 63.7174 38.7525 62.6371 35.8057 62.6183C31.3584 62.5926 26.9084 62.6183 22.4611 62.6183C18.0138 62.6183 13.5448 62.5902 9.08671 62.6183C6.09115 62.6371 3.30685 63.7784 1.58156 65.9368C0.224622 67.6335 0.0187789 69.5083 0.0187789 71.4862V85.1021C0.0187789 86.6348 -0.12477 88.2471 0.403381 89.7282C1.55719 92.9553 4.99693 95.0785 8.86191 95.1465C17.6157 95.3011 26.3911 95.1465 35.1475 95.1465H36.0522C37.0976 95.1465 37.1003 93.7403 36.0522 93.7403L36.0495 93.738Z" fill="#7D0B15"/>
<path d="M44.5596 74.2492C47.6066 73.7875 50.6509 73.3235 53.6979 72.8619C54.979 72.6673 56.2574 72.4377 57.5439 72.2783C58.1831 72.1986 59.1013 72.0533 59.3532 72.6791C59.4561 72.9345 59.3532 73.4032 59.3532 73.668V83.1687C59.3532 84.1014 59.8109 85.4958 58.3565 85.552C57.2054 85.5966 55.8891 85.2052 54.7786 85.013C51.3713 84.4225 47.9641 83.8342 44.5596 83.2437C43.5385 83.0679 43.1024 84.4225 44.1289 84.6006C47.5362 85.1911 50.9434 85.7794 54.3479 86.3699C56.8749 86.8082 60.9783 87.851 60.9783 84.5279V74.1883C60.9783 73.1993 61.2166 71.9643 60.1874 71.2823C58.9415 70.4574 57.1566 70.9214 55.7401 71.137C51.8697 71.7252 47.9993 72.3135 44.1289 72.9017C43.0997 73.0587 43.5358 74.4133 44.5596 74.2586V74.2492Z" fill="#7D0B15"/>
<path d="M16.0422 53.6403C15.9556 56.5486 13.3094 58.9601 9.8859 58.9671C6.53553 58.9741 3.72144 56.5392 3.72956 53.6403C3.73769 50.7366 6.5247 48.3134 9.8859 48.3134C13.2471 48.3134 15.9556 50.7366 16.0422 53.6403C16.0693 54.5425 17.6944 54.5472 17.6673 53.6403C17.5834 50.8304 15.6522 48.3111 12.57 47.3198C9.53109 46.3425 5.99113 47.1674 3.92186 49.3211C-0.609395 54.0363 4.20625 61.2895 11.1968 60.2724C14.9561 59.7264 17.5698 56.8767 17.6673 53.6379C17.6944 52.7333 16.0693 52.7333 16.0422 53.6379V53.6403Z" fill="#7D0B15"/>
<path d="M39.5327 51.182C39.4623 54.4441 37.1547 57.4181 33.5551 58.5195C30.0639 59.5882 26.1123 58.6648 23.6963 56.2416C21.2072 53.7458 20.8579 50.036 22.7971 47.2097C24.6957 44.4443 28.4984 42.9304 32.163 43.521C36.4424 44.2123 39.4515 47.4581 39.5327 51.182C39.5517 52.0866 41.1767 52.0889 41.1578 51.182C41.0738 47.3339 38.3654 43.8772 34.1537 42.5414C29.9691 41.2149 25.1345 42.382 22.3204 45.3583C19.4928 48.3486 19.1271 52.6982 21.4808 55.9932C23.8047 59.2437 28.2628 60.9052 32.5909 60.1975C37.5772 59.3819 41.0603 55.4964 41.1551 51.182C41.174 50.2774 39.549 50.2774 39.53 51.182H39.5327Z" fill="#7D0B15"/>
<path d="M16.3457 94.495C13.8566 98.3126 11.3702 102.13 8.88114 105.948C8.36653 106.738 9.76952 107.448 10.2841 106.658C12.7732 102.84 15.2596 99.0227 17.7486 95.2051C18.2633 94.4153 16.8603 93.7052 16.3457 94.495Z" fill="#7D0B15"/>
<path d="M27.1634 95.2051C29.6524 99.0227 32.1388 102.84 34.6279 106.658C35.1425 107.445 36.5455 106.738 36.0309 105.948C33.5418 102.13 31.0554 98.3126 28.5664 94.495C28.0517 93.7075 26.6488 94.4153 27.1634 95.2051Z" fill="#7D0B15"/>
<path d="M8.66427 79.4753H22.6751C23.7206 79.4753 23.7233 78.0692 22.6751 78.0692H8.66427C7.6188 78.0692 7.61609 79.4753 8.66427 79.4753Z" fill="#7D0B15"/>
<path d="M8.66427 73.0376H22.6751C23.7206 73.0376 23.7233 71.6315 22.6751 71.6315H8.66427C7.6188 71.6315 7.61609 73.0376 8.66427 73.0376Z" fill="#7D0B15"/>
</g>
</g>
<g opacity="0.2">
<g clip-path="url(#clip2_1947_2277)">
<path d="M320.95 413.173C317.581 412.255 315.256 409.089 312.916 406.548C308.754 402.032 306.712 395.622 307.699 389.362C308.121 386.684 308.836 384.031 309.419 381.39C310.021 378.667 310.467 375.836 311.237 373.161C312.301 369.465 315.881 372.371 317.876 373.353C320.803 374.796 323.845 375.981 326.964 376.871C330.08 377.758 333.271 378.358 336.485 378.67C338.168 378.835 339.857 378.918 341.546 378.916C343.129 378.916 345.374 378.299 346.227 380.188C346.681 381.195 346.237 382.408 346.013 383.426C345.659 385.033 345.303 386.637 344.95 388.244C344.335 391.03 343.738 393.825 343.102 396.606C341.754 402.5 338.044 407.51 332.843 410.13C331.263 410.927 329.553 411.457 327.898 412.057C325.584 412.897 323.47 413.717 320.953 413.167C319.958 412.95 319.533 414.562 320.531 414.782C324.373 415.625 328.151 413.817 331.708 412.436C336.954 410.4 341.263 406.155 343.48 400.721C344.746 397.613 345.274 394.124 346 390.843C346.638 387.953 347.38 385.069 347.921 382.157C348.412 379.501 346.636 377.231 344.092 377.178C340.063 377.094 336.186 377.13 332.189 376.386C328.55 375.708 324.977 374.642 321.541 373.208C319.834 372.497 318.167 371.688 316.538 370.793C315.311 370.118 314.195 369.35 312.747 369.638C309.483 370.282 309.293 374.603 308.686 377.356C307.942 380.723 307.187 384.084 306.453 387.454C305.039 393.973 306.419 400.827 310.393 406.065C311.623 407.686 313.098 409.117 314.478 410.59C316.256 412.487 317.995 414.091 320.528 414.782C321.515 415.053 321.937 413.438 320.95 413.167V413.173Z" fill="#7D0B15"/>
<path d="M314.496 397.212C317.652 403.692 327.787 406.202 333.329 401.895C334.141 401.265 333.352 399.811 332.529 400.45C327.655 404.238 318.655 402.099 315.863 396.366C315.396 395.41 314.029 396.255 314.496 397.212Z" fill="#7D0B15"/>
<path d="M323.9 388.09C322.22 384.115 316.831 383.016 313.731 385.716C312.944 386.402 314.069 387.58 314.85 386.899C317.238 384.821 321.307 386.031 322.534 388.935C322.948 389.917 324.312 389.066 323.9 388.09Z" fill="#7D0B15"/>
<path d="M338.801 391.769C337.12 387.794 331.732 386.695 328.632 389.396C327.845 390.082 328.969 391.259 329.751 390.578C332.139 388.5 336.207 389.711 337.434 392.615C337.849 393.596 339.213 392.746 338.801 391.769Z" fill="#7D0B15"/>
<path d="M306.863 394.623C304.09 395.006 301.206 393.962 298.514 393.324C294.662 392.406 291.186 390.459 288.471 387.396C284.669 383.1 283.294 376.919 281.473 371.504C280.869 369.711 280.138 367.917 279.65 366.084C279.352 364.966 279.626 363.778 280.642 363.172C281.764 362.503 283.674 362.704 284.946 362.531C287.608 362.171 290.244 361.616 292.833 360.857C297.957 359.354 302.889 357.066 307.407 354.095C309.135 352.957 312.183 349.911 313.605 353.186C313.821 353.685 313.961 354.24 314.133 354.759C315.149 357.78 316.167 360.804 317.183 363.825C318.265 367.041 319.4 370.132 319.561 373.596C319.611 374.668 321.194 374.676 321.144 373.596C320.985 370.218 319.993 367.197 318.938 364.062C317.917 361.027 316.895 357.989 315.874 354.955C315.083 352.603 314.267 349.869 311.333 350.006C310.251 350.056 309.462 350.653 308.602 351.275C307.293 352.224 305.945 353.111 304.562 353.936C301.871 355.543 299.052 356.904 296.139 358.001C293.297 359.069 290.374 359.892 287.402 360.453C285.859 360.745 284.307 360.966 282.745 361.111C281.621 361.217 280.534 361.208 279.571 361.911C277.09 363.722 278.098 366.458 278.901 368.84C279.924 371.881 280.946 374.919 281.969 377.959C282.84 380.548 283.642 383.145 285.062 385.477C287.806 389.976 292.113 393.307 297.013 394.671C298.411 395.061 299.839 395.351 301.248 395.683C303.129 396.127 304.908 396.568 306.86 396.3C307.858 396.163 307.868 394.487 306.86 394.626L306.863 394.623Z" fill="#7D0B15"/>
<path d="M297.033 387.549C298.767 382.731 304.459 380.33 309.002 380.427C310.021 380.45 310.021 378.776 309.002 378.754C303.685 378.639 297.5 381.565 295.505 387.103C295.144 388.11 296.672 388.545 297.033 387.549Z" fill="#7D0B15"/>
<path d="M288.508 375.8C292.455 376.74 296.738 373.108 296.545 368.779C296.498 367.707 294.914 367.699 294.962 368.779C295.104 371.981 291.917 374.899 288.927 374.185C287.935 373.947 287.51 375.563 288.505 375.8H288.508Z" fill="#7D0B15"/>
<path d="M302.078 366.567C304.466 369.981 309.958 370.291 312.488 366.857C313.108 366.017 311.995 364.823 311.369 365.674C309.527 368.171 305.287 368.355 303.445 365.721C302.846 364.865 301.471 365.699 302.078 366.567Z" fill="#7D0B15"/>
</g>
</g>
<path opacity="0.2" d="M1028 446.397C1021.63 446.397 1015.53 443.927 1011.03 439.53C1006.53 435.133 1004 429.17 1004 422.952L1010.42 423.299C1010.42 427.865 1012.27 432.243 1015.58 435.472C1018.88 438.7 1023.36 440.514 1028.04 440.514C1032.71 440.514 1037.19 438.7 1040.5 435.472C1043.8 432.243 1045.66 427.865 1045.66 423.299L1052 422.952C1052 429.17 1049.47 435.133 1044.97 439.53C1040.47 443.927 1034.37 446.397 1028 446.397ZM1028 446.397V456M1016.42 456H1039.22M1018.21 410.01H1023.46M1018.21 418.679H1023.46M1018.21 427.349H1023.46M1032.16 410.01H1037.41M1032.16 418.679H1037.41M1032.16 427.349H1037.41M1024.73 399.239V405.592M1031.07 399.239V405.592M1025.55 398H1030.21C1034.26 398 1037.55 401.211 1037.55 405.171V428.723C1037.55 432.684 1034.26 435.894 1030.21 435.894H1025.55C1021.5 435.894 1018.21 432.684 1018.21 428.723V405.171C1018.21 401.211 1021.5 398 1025.55 398Z" stroke="#7D0B15" stroke-width="1.5" stroke-linecap="round" stroke-linejoin="round"/>
<defs>
<clipPath id="clip0_1947_2277">
<rect width="68" height="65" fill="white" transform="translate(1160)"/>
</clipPath>
<clipPath id="clip1_1947_2277">
<rect width="61" height="65" fill="white" transform="translate(0 42)"/>
</clipPath>
<clipPath id="clip2_1947_2277">
<rect width="70" height="65" fill="white" transform="translate(278 350)"/>
</clipPath>
</defs>
</svg>
