<svg width="104" height="65" viewBox="0 0 104 65" fill="none" xmlns="http://www.w3.org/2000/svg">
<path fill-rule="evenodd" clip-rule="evenodd" d="M30.3211 0.0263834C29.7033 0.0493081 28.8963 0.108283 28.528 0.157457C28.1597 0.206631 27.7671 0.258139 27.6558 0.271964C27.0776 0.343538 25.9445 0.552309 25.0818 0.746089C24.8591 0.79608 24.5612 0.862576 24.4196 0.893843C24.2781 0.92505 24.0829 0.975859 23.9858 1.00666C23.8887 1.03746 23.6531 1.10565 23.4622 1.15815C23.0319 1.27656 22.5999 1.40898 22.3343 1.504C22.2229 1.54384 21.9887 1.62125 21.8137 1.67608C21.4925 1.77671 21.1775 1.89384 20.8593 2.03098C20.7638 2.0721 20.5686 2.15085 20.4255 2.20597C20.2823 2.2611 20.0741 2.34667 19.9627 2.39619C19.8514 2.44578 19.6822 2.5191 19.5867 2.55929C19.0818 2.77174 17.0009 3.78474 16.7814 3.92497C16.6472 4.01066 15.8376 4.47948 15.7402 4.52789C15.6392 4.57812 15.5461 4.63581 15.075 4.94007C14.3139 5.4317 13.6492 5.89801 12.877 6.48209C12.0351 7.11884 11.4802 7.58748 10.4495 8.53189C9.90834 9.02771 8.8217 10.1379 8.27851 10.7499C8.00809 11.0546 7.77285 11.317 7.75578 11.333C7.71928 11.3673 6.70495 12.659 6.45496 12.9896C5.68669 14.0053 4.58143 15.7149 3.98108 16.8162C3.54981 17.6074 2.94408 18.8645 2.6123 19.657C2.41355 20.1319 2.22782 20.5729 2.19959 20.637C1.8862 21.3494 1.11845 23.7593 0.898708 24.7203C0.410747 26.8547 0.176081 28.4054 0.0644448 30.2327C-0.00566047 31.38 -0.0215668 33.4183 0.0315906 34.4326C0.141434 36.5278 0.612617 39.3891 1.16027 41.2867C1.18809 41.3829 1.2667 41.6586 1.33496 41.8992C1.40327 42.1398 1.48384 42.3822 1.51398 42.4379C1.54411 42.4936 1.56876 42.5815 1.56876 42.6333C1.56876 42.685 1.60549 42.8101 1.65043 42.9112C1.69532 43.0123 1.78723 43.2656 1.85456 43.4741C1.92195 43.6827 1.99957 43.9058 2.0271 43.97C2.05463 44.0341 2.20069 44.3885 2.35172 44.7575C2.5028 45.1264 2.69021 45.5727 2.76824 45.7491C3.04334 46.3709 3.68082 47.6492 3.89606 48.0105C4.01585 48.2116 4.11383 48.3928 4.11383 48.4132C4.11383 48.4666 5.13458 50.1484 5.41234 50.5525C6.05376 51.486 7.06607 52.8179 7.70667 53.5711C8.34346 54.3198 9.60305 55.6297 10.4812 56.4565C10.9093 56.8596 12.0171 57.8149 12.2993 58.0243C12.4261 58.1184 12.5856 58.2497 12.6537 58.3159C13.06 58.7112 15.2767 60.1773 16.6657 60.9695C17.0357 61.1805 19.2996 62.3155 19.3505 62.3155C19.3694 62.3155 19.5198 62.3811 19.6846 62.4613C19.8495 62.5415 20.007 62.6072 20.0346 62.6072C20.0622 62.6072 20.194 62.6561 20.3274 62.7158C20.4609 62.7756 20.7653 62.8957 21.0039 62.9827C21.2425 63.0697 21.5288 63.1762 21.6402 63.2194C21.7515 63.2626 21.9858 63.3427 22.1607 63.3976C22.3357 63.4524 22.57 63.5298 22.6813 63.5695C23.1998 63.7544 24.4745 64.0941 25.3132 64.2708C25.5677 64.3245 25.867 64.3928 25.9784 64.4227C26.0897 64.4525 26.35 64.5029 26.5568 64.5346C26.7636 64.5663 27.18 64.6302 27.4823 64.6765C27.7845 64.7229 28.3051 64.7887 28.6391 64.823C28.9732 64.8572 29.4695 64.9107 29.7421 64.942C30.3882 65.0161 33.7565 65.0154 34.4412 64.941C34.7337 64.9093 35.2462 64.8558 35.5802 64.8221C36.5914 64.7201 37.795 64.5322 38.5881 64.3525C38.8903 64.284 39.2417 64.2076 39.3689 64.1826C39.4962 64.1577 39.8085 64.0798 40.063 64.0095C40.3176 63.9392 40.6169 63.8618 40.7282 63.8375C40.8396 63.8133 41.0218 63.7626 41.1331 63.7248C41.2445 63.6871 41.7299 63.5258 42.2119 63.3664C43.0174 63.1001 43.2041 63.0333 43.5336 62.8936C43.5972 62.8666 43.8836 62.7506 44.1699 62.6356C44.8264 62.372 45.0206 62.2817 46.3679 61.6133C48.2332 60.6879 49.705 59.7847 51.2411 58.6227C51.9176 58.111 52.0194 58.052 52.1088 58.1201C52.1644 58.1626 52.236 58.2258 52.2678 58.2606C52.4 58.405 53.0735 58.8899 53.8874 59.4265C55.2909 60.3519 55.3512 60.3905 55.3936 60.3905C55.4159 60.3905 55.5806 60.48 55.7598 60.5893C56.1973 60.8563 56.507 61.0243 57.5315 61.5502C58.3328 61.9615 58.5777 62.0775 59.2957 62.3853C59.4389 62.4466 59.6081 62.521 59.6717 62.5504C59.7353 62.5799 59.9175 62.653 60.0766 62.713C60.2357 62.7729 60.4179 62.8432 60.4815 62.8691C61.1387 63.1361 62.8943 63.7091 63.6918 63.9168C63.8986 63.9706 64.1518 64.0407 64.2545 64.0726C64.3571 64.1044 64.5654 64.1541 64.7172 64.1831C64.869 64.2121 65.1754 64.2768 65.3981 64.3269C66.0084 64.4641 66.7672 64.5981 67.8854 64.7658C69.2845 64.9756 72.7824 65.0718 74.1902 64.9392C76.3133 64.7392 76.9628 64.6469 78.4706 64.3316C79.3104 64.156 80.5501 63.8492 80.9413 63.7202C81.0458 63.6857 81.4957 63.5375 81.9411 63.3906C82.3865 63.2439 82.8329 63.0863 82.9332 63.0405C83.0334 62.9947 83.1444 62.9572 83.1798 62.9572C83.2152 62.9572 83.2894 62.9315 83.3446 62.9001C83.3999 62.8687 83.7658 62.7102 84.1579 62.5479C84.5499 62.3856 84.9144 62.2291 84.9677 62.2002C85.021 62.1713 85.4941 61.9358 86.019 61.6768C86.544 61.4179 87.1296 61.1144 87.3205 61.0026C87.5114 60.8907 87.7066 60.781 87.7543 60.7587C87.9362 60.6737 89.163 59.9131 89.6763 59.567C90.488 59.0195 91.7412 58.0565 92.6131 57.3099C93.3131 56.7106 94.8744 55.1775 95.6538 54.324C96.2345 53.688 97.5408 52.0497 97.9959 51.3865C98.3919 50.8095 99.0189 49.8581 99.2711 49.4519C99.4109 49.2266 99.558 48.9904 99.598 48.9269C99.6379 48.8635 99.6887 48.7722 99.7107 48.7241C99.7328 48.6759 99.8583 48.4528 99.9897 48.2282C100.214 47.8452 101.063 46.1336 101.35 45.4866C101.607 44.9067 101.708 44.6673 101.754 44.5241C101.78 44.4439 101.856 44.2339 101.923 44.0575C102.092 43.614 102.586 42.1166 102.698 41.7092C102.806 41.3208 102.949 40.7928 103.027 40.4992C103.125 40.1267 103.25 39.5445 103.37 38.8951C103.436 38.5421 103.513 38.1353 103.543 37.9909C103.61 37.6622 103.745 36.7335 103.869 35.7451C103.993 34.7562 104.045 31.3161 103.955 30.0577C103.819 28.1615 103.444 25.9436 102.949 24.1078C102.729 23.2883 102.667 23.0827 102.45 22.4363C101.879 20.7302 101.428 19.6117 100.763 18.2454C100.344 17.3825 100.126 16.9752 99.6646 16.1837C99.5085 15.916 99.3807 15.6852 99.3807 15.671C99.3807 15.6566 99.3317 15.5738 99.2719 15.4869C99.212 15.3999 98.9363 14.9784 98.6591 14.5501C98.3819 14.1219 98.1207 13.7281 98.0787 13.6751C98.0367 13.6221 97.8266 13.3426 97.612 13.0538C96.6172 11.7155 95.8413 10.8033 94.6683 9.59266C93.947 8.84822 92.4684 7.49491 91.919 7.0762C91.7758 6.96712 91.4895 6.74201 91.2827 6.57594C91.0759 6.40993 90.7376 6.15595 90.5308 6.01158C89.9156 5.58213 88.8425 4.85811 88.8211 4.85811C88.8102 4.85811 88.6893 4.78275 88.5526 4.69058C88.4158 4.59842 88.1216 4.42336 87.8989 4.30156C87.6762 4.17971 87.4029 4.02326 87.2916 3.9539C86.9334 3.73072 85.2025 2.89412 84.4573 2.58403C84.0596 2.41848 83.6562 2.24704 83.5607 2.20294C83.2752 2.07111 81.6173 1.50336 81.0156 1.3314C80.8248 1.2768 80.6035 1.20866 80.524 1.1799C80.4445 1.15115 80.2753 1.1025 80.148 1.07176C80.0208 1.04102 79.7214 0.964135 79.4828 0.900903C79.2442 0.837729 78.8928 0.754545 78.7019 0.716104C78.5111 0.677663 78.1727 0.60953 77.95 0.564673C76.9382 0.360859 75.4515 0.160722 74.277 0.0701897C73.2526 -0.00873402 70.5292 -0.0086157 69.505 0.0704247C68.0878 0.179798 66.5882 0.399184 65.1089 0.713537C64.6632 0.80821 63.6349 1.06657 63.3447 1.15669C63.2016 1.20114 62.9282 1.2803 62.7374 1.3325C62.5465 1.38471 62.2992 1.46048 62.1879 1.50085C62.0765 1.54122 61.8423 1.61874 61.6673 1.67317C61.3244 1.7798 61.1918 1.82938 60.4815 2.11649C60.227 2.21939 59.9146 2.34428 59.7874 2.39409C59.6601 2.44391 59.4259 2.54325 59.2668 2.61488C59.1077 2.68646 58.8344 2.80557 58.6595 2.87954C58.1432 3.09787 56.5401 3.93704 55.824 4.36392C55.2946 4.67944 53.8836 5.59275 53.5982 5.80461C53.5664 5.82824 53.2245 6.08193 52.8385 6.3684C52.4524 6.65487 52.119 6.91783 52.0976 6.95283C52.0397 7.04715 51.9807 7.0314 51.8274 6.88073C51.6802 6.73595 51.2707 6.42469 50.7061 6.02832C50.1296 5.62361 48.7179 4.68312 48.6869 4.68312C48.6709 4.68312 48.559 4.61487 48.4383 4.53145C48.3176 4.44804 48.1668 4.35552 48.1032 4.32583C48.0396 4.29614 47.8313 4.18046 47.6404 4.06882C47.2749 3.85491 45.53 2.97864 45.0375 2.7617C44.8784 2.69159 44.6702 2.59954 44.5748 2.55713C44.3688 2.46561 43.5827 2.14484 43.4179 2.08511C43.3543 2.06206 43.055 1.95304 42.7527 1.84285C42.4505 1.73272 42.1251 1.61903 42.0297 1.59027C41.9343 1.56152 41.713 1.49461 41.538 1.44165C40.8164 1.22319 40.6266 1.16754 40.3233 1.08529C38.9676 0.717565 38.6176 0.642898 37.0841 0.393994C35.0895 0.0702495 32.676 -0.0609401 30.3211 0.0263834ZM29.6224 2.26553C27.9603 2.3875 26.3453 2.64568 24.9083 3.01924C23.9734 3.26226 23.2507 3.49086 22.1029 3.90659C21.8007 4.01608 21.4883 4.12785 21.4088 4.15492C20.8127 4.35809 18.4246 5.49504 17.5333 6.00003C16.4287 6.62599 14.8747 7.66337 14.0624 8.3171C14.0145 8.35566 13.7932 8.53037 13.5707 8.70531C13.3482 8.88025 13.0751 9.10553 12.9638 9.20592C12.8524 9.3063 12.475 9.64592 12.125 9.96056C11.0175 10.9564 9.82319 12.2221 8.82084 13.4621C7.83653 14.6798 6.69825 16.381 5.93247 17.7787C5.60803 18.3709 4.63442 20.3544 4.63442 20.4232C4.63442 20.4554 4.59716 20.5561 4.5517 20.6469C4.50618 20.7377 4.38575 21.022 4.28412 21.2787C4.18243 21.5353 4.06351 21.8281 4.01978 21.9291C3.97605 22.0302 3.94031 22.1347 3.94031 22.1612C3.94031 22.1878 3.87772 22.3807 3.80125 22.5899C3.28344 24.0065 2.82701 25.8169 2.52877 27.6369C2.32291 28.8932 2.14568 31.1292 2.14736 32.4493C2.14852 33.3686 2.28704 35.725 2.37716 36.3576C2.616 38.0347 2.84123 39.145 3.2647 40.7325C3.37217 41.1355 3.81386 42.4751 4.04731 43.106C4.56246 44.4985 5.39355 46.2781 6.13977 47.5866C6.62484 48.4371 7.7504 50.166 7.97483 50.4053C8.01463 50.4477 8.04713 50.5005 8.04713 50.5226C8.04713 50.5446 8.10636 50.6281 8.17884 50.7079C8.25126 50.7879 8.43971 51.0238 8.59768 51.2324C9.22203 52.0567 9.96549 52.8881 11.0775 54.0055C12.3328 55.2669 12.9474 55.8064 14.2074 56.7529C15.1734 57.4785 15.0541 57.3918 15.4799 57.6781C15.6708 57.8064 15.84 57.9263 15.8559 57.9445C15.8845 57.9773 16.9416 58.621 17.3887 58.8779C17.7532 59.0873 20.0122 60.2295 20.3965 60.3988C21.5039 60.8863 23.459 61.5753 24.4166 61.8155C24.4961 61.8354 24.7044 61.8919 24.8793 61.941C26.1098 62.2862 28.3355 62.648 30.0563 62.7826C30.9468 62.8523 32.9909 62.8521 34.1053 62.7823C35.4437 62.6985 36.9373 62.5053 37.9229 62.2887C38.1456 62.2398 38.466 62.1744 38.635 62.1434C38.804 62.1125 39.0252 62.0615 39.1267 62.0301C39.2281 61.9987 39.4803 61.9293 39.6871 61.876C39.8939 61.8225 40.168 61.7421 40.2963 61.6972C40.4247 61.6523 40.5735 61.6155 40.627 61.6155C40.6805 61.6155 40.8098 61.5796 40.9143 61.5357C41.1522 61.4356 41.4571 61.3282 41.6826 61.265C41.7781 61.2382 42.0774 61.1322 42.3478 61.0295C42.6182 60.9266 42.9329 60.808 43.0469 60.7659C43.161 60.7238 43.4001 60.6221 43.5783 60.5399C43.7564 60.4578 43.915 60.3905 43.9306 60.3905C43.9668 60.3905 44.7116 60.0448 45.3846 59.7155C46.0285 59.4005 47.2365 58.7438 47.5826 58.5205C47.678 58.4589 47.7896 58.392 47.8305 58.3717C47.9243 58.3252 48.5681 57.9061 49.049 57.5784C49.4727 57.2898 50.7416 56.3433 50.9901 56.1305C51.0826 56.0512 51.3132 55.8421 51.5026 55.6656C51.692 55.4892 51.8841 55.3232 51.9296 55.2968C51.9869 55.2636 52.0786 55.3143 52.2269 55.4614C52.61 55.8413 54.1618 57.0114 55.1311 57.6514C55.4651 57.872 55.7699 58.0798 55.8083 58.1132C55.8467 58.1465 55.8909 58.1739 55.9066 58.1739C55.9222 58.1739 56.047 58.2491 56.1838 58.341C56.3206 58.4329 56.5757 58.5868 56.7507 58.6829C56.9256 58.779 57.2119 58.9366 57.3869 59.0331C57.8956 59.3137 59.2983 60.0211 59.6139 60.1563C59.7729 60.2245 59.9551 60.3036 60.0188 60.3322C60.3533 60.4825 60.6856 60.6193 60.9442 60.7132C61.1033 60.7709 61.2582 60.8401 61.2884 60.8668C61.3187 60.8936 61.3797 60.9155 61.4243 60.9155C61.4688 60.9155 61.5872 60.953 61.6875 60.9988C61.9258 61.1077 63.3267 61.5705 63.8075 61.6992C64.2212 61.8099 64.6379 61.9238 64.9932 62.0231C65.1205 62.0587 65.3548 62.1122 65.5138 62.142C65.6729 62.1719 65.9983 62.236 66.2369 62.2845C67.6344 62.5688 68.7403 62.7021 70.4391 62.7908C72.4271 62.8946 74.8785 62.7667 76.6775 62.4652C77.7444 62.2864 79.0294 62.0023 79.8588 61.7619C80.0497 61.7066 80.2839 61.6402 80.3794 61.6144C80.4748 61.5886 80.631 61.5397 80.7264 61.5058C80.8219 61.4719 81.1082 61.3746 81.3627 61.2896C81.6172 61.2046 82.1508 61.0058 82.5485 60.8478C83.284 60.5556 83.3337 60.5347 83.9945 60.2385C84.5511 59.9891 86.1211 59.1781 86.6553 58.8642C87.3649 58.4471 88.1952 57.9294 88.593 57.6561C89.3589 57.1299 90.6373 56.1445 91.2827 55.583C92.0399 54.9243 91.9192 55.0358 92.5914 54.3744C93.6111 53.3709 94.1577 52.7779 95.0065 51.754C95.4817 51.1807 96.8939 49.1953 97.2113 48.6541C97.2433 48.5996 97.4175 48.3108 97.5983 48.0125C98.0626 47.2467 98.2181 46.9564 98.7481 45.8658C99.4711 44.3779 99.4478 44.4314 99.8165 43.4158C99.8922 43.2073 100.009 42.8923 100.075 42.7158C100.269 42.2015 100.402 41.7949 100.592 41.1409C100.69 40.804 100.794 40.4496 100.824 40.3534C100.854 40.2571 100.932 39.9421 100.998 39.6534C101.064 39.3646 101.131 39.0759 101.148 39.0117C101.164 38.9476 101.218 38.6719 101.267 38.3992C101.316 38.1265 101.394 37.6934 101.441 37.4367C101.615 36.4872 101.695 35.7679 101.786 34.3451C101.866 33.1064 101.87 32.6496 101.813 31.3118C101.777 30.4456 101.709 29.4481 101.663 29.0952C101.486 27.7409 101.392 27.1056 101.345 26.9369C101.318 26.8407 101.279 26.6307 101.258 26.4703C101.238 26.3098 101.198 26.0998 101.171 26.0036C101.143 25.9074 101.067 25.5924 101.001 25.3036C100.758 24.2304 100.419 23.0909 100.075 22.1828C99.8231 21.518 99.777 21.3923 99.7438 21.2787C99.7251 21.2145 99.6748 21.1102 99.632 21.0469C99.5892 20.9837 99.5542 20.9002 99.5542 20.8614C99.5542 20.8227 99.4741 20.612 99.376 20.3932C99.278 20.1744 99.1579 19.9035 99.1091 19.7912C98.9647 19.4589 98.3649 18.2621 98.2319 18.0412C98.1644 17.9289 98.0911 17.7977 98.069 17.7496C98.0469 17.7014 97.9166 17.4696 97.7793 17.2343C97.6421 16.9991 97.5297 16.7946 97.5297 16.7799C97.5297 16.7652 97.4806 16.6821 97.4205 16.5952C97.3604 16.5082 97.1009 16.1156 96.8438 15.7226C96.284 14.8667 96.1534 14.6792 95.9824 14.4856C95.9108 14.4046 95.8523 14.3231 95.8523 14.3044C95.8523 14.2726 95.7492 14.1402 94.9208 13.1078C94.0508 12.0235 92.521 10.4667 91.3142 9.4372C91.1261 9.27679 90.8794 9.06399 90.766 8.9643C90.39 8.63408 88.9831 7.60656 88.233 7.11435C86.4468 5.94234 85.2033 5.27898 83.2426 4.45218C82.8449 4.28447 82.4154 4.10767 82.2882 4.05931C82.1609 4.01095 81.9713 3.93465 81.8669 3.88974C81.7624 3.84488 81.6397 3.80813 81.5941 3.80813C81.5485 3.80813 81.4258 3.77068 81.3213 3.72495C80.9949 3.58197 79.3719 3.11041 78.4995 2.90508C77.1338 2.58356 75.8172 2.38634 74.1902 2.25952C73.2812 2.18865 72.6043 2.17371 71.5005 2.20025C69.0274 2.25964 68.0693 2.35583 65.9766 2.75482C65.5345 2.83911 64.2721 3.14891 63.8942 3.26587C63.3144 3.44536 61.6931 3.98773 61.5805 4.03994C61.5169 4.0694 61.3217 4.15031 61.1467 4.21972C60.9717 4.28908 60.7505 4.38019 60.655 4.42219C60.5596 4.46413 60.2733 4.58453 60.0188 4.68977C59.2972 4.98796 57.2477 6.03812 56.5936 6.44487C54.8247 7.54473 54.1949 7.9975 52.6927 9.24978C52.0985 9.74508 51.9925 9.81234 51.892 9.75809C51.8283 9.72373 51.7762 9.67543 51.7762 9.65082C51.7762 9.57172 50.0205 8.19613 49.2328 7.65807C49.1624 7.60994 48.9562 7.46557 48.7747 7.33724C48.5931 7.20891 48.3938 7.07299 48.3317 7.03519C46.6909 6.03561 46.8559 6.1332 46.3679 5.87374C44.976 5.13368 44.4627 4.89527 42.666 4.15445C42.2437 3.98039 40.9509 3.54359 40.3523 3.37279C40.1614 3.31837 39.9401 3.2503 39.8606 3.22154C39.7811 3.19278 39.5989 3.14069 39.4557 3.10581C39.3125 3.07098 39.0392 3.00308 38.8484 2.95502C38.1151 2.77045 37.1175 2.58519 36.043 2.43411C34.2817 2.18649 31.6435 2.11719 29.6224 2.26553ZM54.8708 10.0906C54.3718 10.5496 54.0411 10.8446 53.8387 11.0118C53.7221 11.1081 53.6274 11.239 53.6278 11.3035C53.6281 11.3707 53.8323 11.6313 54.1079 11.9163C54.6578 12.485 55.4976 13.4624 55.912 14.0163C56.0681 14.2248 56.2112 14.4086 56.2301 14.4246C56.4704 14.6289 57.9626 16.9091 58.5968 18.0412C58.8746 18.5372 59.7894 20.4175 59.959 20.8412C60.0424 21.0497 60.1323 21.2728 60.1587 21.337C60.1852 21.4012 60.2391 21.5324 60.2787 21.6287C60.3182 21.7249 60.3716 21.8693 60.3972 21.9495C60.4229 22.0297 60.4993 22.2397 60.5671 22.4162C60.8228 23.0823 61.1255 24.0244 61.2606 24.5745C61.2882 24.6867 61.3743 25.028 61.452 25.3328C61.6315 26.0369 61.7537 26.6161 61.8705 27.3161C61.9214 27.6209 61.9882 28.0146 62.019 28.1911C62.0899 28.5978 62.1703 29.3026 62.2519 30.2327C62.3352 31.1822 62.3359 34.034 62.2531 34.9285C62.056 37.0567 61.5987 39.5675 61.1497 40.9862C61.1177 41.0873 61.0093 41.4325 60.9087 41.7533C60.8081 42.0742 60.6904 42.4194 60.6471 42.5205C60.6037 42.6216 60.5683 42.7322 60.5683 42.7664C60.5683 42.8006 60.5318 42.9147 60.4874 43.0201C60.4428 43.1254 60.3617 43.3298 60.3069 43.4741C60.1944 43.7708 60.1619 43.8514 59.9888 44.2616C59.7739 44.7711 59.6947 44.9422 59.2597 45.8366C59.0257 46.3178 58.7434 46.8691 58.6326 47.0616C58.5217 47.2541 58.4073 47.4641 58.3783 47.5282C58.3128 47.673 57.7933 48.5275 57.5107 48.9552C56.5047 50.4775 55.0113 52.3711 53.9563 53.4619C53.5947 53.8358 53.5816 53.8592 53.6744 53.9638C53.8225 54.1308 55.1763 55.199 55.2398 55.199C55.3017 55.199 56.4289 53.9974 56.9635 53.3615C57.7044 52.4802 59.0501 50.5991 59.7326 49.4907C59.8581 49.2867 60.0056 49.0504 60.0603 48.9657C60.115 48.8809 60.1984 48.7328 60.2456 48.6366C60.2929 48.5403 60.4099 48.3303 60.5056 48.1699C60.6807 47.8761 61.783 45.6698 61.783 45.6128C61.783 45.596 61.8571 45.4164 61.9478 45.2136C62.0384 45.0109 62.1464 44.7531 62.1878 44.6408C62.2589 44.448 62.3162 44.3015 62.4678 43.926C62.5438 43.7376 63.0743 42.1186 63.1987 41.695C63.4268 40.919 63.6004 40.2531 63.7158 39.7117C63.9258 38.7265 63.9786 38.4531 64.0652 37.9034C64.1158 37.5826 64.1825 37.1626 64.2135 36.9701C64.283 36.5392 64.3691 35.7046 64.4513 34.666C64.5256 33.7263 64.4835 29.7987 64.3931 29.241C64.3592 29.0325 64.3043 28.6388 64.2711 28.3661C64.1718 27.5523 63.9773 26.4637 63.776 25.5953C63.7239 25.3707 63.6609 25.0951 63.636 24.9828C63.6111 24.8705 63.5324 24.5686 63.461 24.312C63.3895 24.0553 63.3123 23.7666 63.2892 23.6703C63.2662 23.5741 63.2171 23.4034 63.18 23.2911C63.1429 23.1789 63.0611 22.9249 62.9981 22.7269C62.8582 22.2864 62.2422 20.6177 62.0494 20.1567C61.7315 19.3966 61.1107 18.1021 60.7273 17.3996C60.631 17.2231 60.4761 16.9394 60.3831 16.7692C59.5574 15.2571 58.3409 13.4723 57.0953 11.9455C56.427 11.1262 55.2539 9.87137 55.16 9.8754C55.1282 9.87674 54.998 9.97363 54.8708 10.0906ZM48.5211 10.0879C48.4503 10.1717 48.366 10.2695 48.3337 10.3054C48.3015 10.3412 48.1323 10.5403 47.9578 10.7477C47.7832 10.9552 47.592 11.1783 47.5328 11.2435C47.4736 11.3088 47.2785 11.5459 47.0992 11.7705C46.9199 11.9951 46.7583 12.192 46.74 12.208C46.6508 12.2862 45.4363 13.9501 45.0369 14.5413C44.6389 15.1305 43.6204 16.7859 43.6204 16.8436C43.6204 16.8553 43.5081 17.0574 43.3709 17.2927C43.0706 17.8075 42.3185 19.3555 42.0011 20.112C41.7923 20.6097 41.772 20.6612 41.4593 21.4828C41.3057 21.8863 40.9596 22.9343 40.8041 23.4661C40.7174 23.763 40.6754 23.9036 40.5075 24.4578C40.4736 24.5701 40.3916 24.8982 40.3255 25.1869C40.2593 25.4757 40.1892 25.7776 40.1697 25.8578C40.0603 26.3075 39.8196 27.7973 39.7127 28.6869C39.5396 30.1274 39.4968 30.8901 39.4969 32.5368C39.497 34.6135 39.59 35.8592 39.8868 37.7576C40.0844 39.0218 40.4338 40.622 40.6636 41.3158C40.6902 41.3961 40.7537 41.6061 40.8047 41.7825C41.1112 42.8425 41.5392 44.0583 41.8727 44.8158C41.9665 45.029 42.0851 45.3064 42.2093 45.6033C42.4045 46.0701 43.3081 47.9051 43.5252 48.2757C43.6603 48.5062 43.7893 48.7343 43.8119 48.7824C43.8345 48.8305 43.9044 48.9486 43.9672 49.0449C44.03 49.1411 44.1078 49.2724 44.1401 49.3366C44.2048 49.465 44.5902 50.0595 45.0363 50.719C45.5808 51.5241 46.6721 52.973 47.1199 53.4852C47.6831 54.1295 48.0586 54.544 48.3817 54.8781C48.7188 55.2266 48.7867 55.2733 48.8448 55.197C48.8823 55.1478 49.2123 54.857 49.5782 54.5507C49.944 54.2445 50.274 53.9562 50.3113 53.9103C50.3666 53.8423 50.291 53.7339 49.9064 53.33C49.6464 53.0569 49.2906 52.6635 49.116 52.4558C48.9413 52.2481 48.7379 52.0126 48.6638 51.9323C48.4739 51.7265 47.2316 50.0698 46.8486 49.5115C46.5028 49.0075 45.6868 47.6628 45.3265 47.0033C45.1026 46.5935 44.3704 45.1142 44.2293 44.7866C44.1023 44.492 43.6142 43.2842 43.522 43.0367C43.4743 42.9083 43.3988 42.7171 43.3542 42.6118C43.3098 42.5064 43.2733 42.3813 43.2733 42.3339C43.2733 42.2864 43.2489 42.202 43.2191 42.1463C43.1653 42.0458 42.7924 40.8327 42.6948 40.4409C42.6668 40.3286 42.6064 40.1054 42.5606 39.945C42.5146 39.7846 42.4205 39.3909 42.3514 39.0701C42.2822 38.7492 42.202 38.3817 42.1731 38.2534C42.086 37.8662 41.9546 37.0679 41.8609 36.3576C41.7039 35.1673 41.6323 34.0237 41.6342 32.741C41.6375 30.6052 41.8241 28.6714 42.2081 26.7911C42.4488 25.6127 42.478 25.4848 42.6677 24.7786C42.7946 24.3058 43.2758 22.7795 43.3664 22.562C43.4065 22.4657 43.561 22.072 43.7096 21.687C43.8583 21.302 44.0552 20.8229 44.1472 20.6223C44.2392 20.4217 44.3145 20.2408 44.3145 20.2204C44.3145 20.1782 45.0753 18.647 45.3428 18.151C45.6402 17.5994 46.4442 16.2973 46.9052 15.6204C47.8232 14.2727 48.695 13.166 49.8517 11.8804C50.1148 11.5879 50.3301 11.3221 50.3301 11.2896C50.3301 11.2571 50.2808 11.1946 50.2205 11.1505C50.0086 10.9958 48.9701 10.1453 48.913 10.0797C48.7839 9.93151 48.6508 9.93426 48.5211 10.0879Z" fill="#A4895D"/>
</svg>
