<svg width="79" height="65" viewBox="0 0 79 65" fill="none" xmlns="http://www.w3.org/2000/svg">
<path d="M59.5127 13.2786C59.405 13.2821 59.2973 13.283 59.1896 13.2812C59.0818 13.2795 58.9742 13.275 58.8667 13.2678C58.7593 13.2607 58.652 13.2509 58.5451 13.2385C58.438 13.226 58.3313 13.2108 58.2251 13.193C58.1188 13.1752 58.013 13.1548 57.9077 13.1317C57.8025 13.1086 57.6979 13.083 57.5938 13.0548C57.4897 13.0265 57.3865 12.9956 57.284 12.9622C57.1814 12.9288 57.0798 12.8928 56.9791 12.8543C56.8783 12.8158 56.7785 12.7748 56.6797 12.7314C56.5809 12.6879 56.4832 12.642 56.3866 12.5936C56.2901 12.5453 56.1948 12.4947 56.1006 12.4416C56.0066 12.3885 55.9138 12.3331 55.8224 12.2754C55.7311 12.2176 55.6412 12.1577 55.5527 12.0955C55.4642 12.0334 55.3773 11.969 55.292 11.9025C55.2067 11.8359 55.123 11.7673 55.0409 11.6966C54.959 11.6259 54.8787 11.5533 54.8002 11.4786C54.7218 11.404 54.6452 11.3274 54.5705 11.2489C54.4957 11.1703 54.4229 11.09 54.352 11.008C54.2812 10.9259 54.2124 10.8421 54.1457 10.7565C54.079 10.6709 54.0144 10.5837 53.9518 10.495C53.8892 10.4062 53.8289 10.3159 53.7708 10.2242C53.7127 10.1324 53.6568 10.0392 53.6033 9.94473C53.5496 9.85013 53.4983 9.7543 53.4494 9.65722C53.4005 9.56001 53.354 9.4617 53.3098 9.36229C53.2658 9.26287 53.2241 9.16243 53.1848 9.06096C53.1456 8.95948 53.1088 8.85704 53.0746 8.75364C53.0403 8.65024 53.0086 8.54609 52.9794 8.44117C52.9502 8.33626 52.9235 8.23073 52.8995 8.12458C52.8754 8.01829 52.854 7.91145 52.8351 7.80407C52.8162 7.69682 52.7999 7.58915 52.7864 7.48108C52.7726 7.37287 52.7616 7.26445 52.7533 7.15582C52.745 7.04706 52.7393 6.93823 52.7362 6.82933C52.7332 6.72043 52.7328 6.61146 52.735 6.50242C52.7373 6.39339 52.7422 6.28455 52.7497 6.17593C52.7573 6.06717 52.7675 5.95868 52.7802 5.85047C52.7932 5.74225 52.8086 5.63438 52.8267 5.52686C52.8448 5.41947 52.8654 5.31257 52.8887 5.20614C52.9119 5.09972 52.9377 4.99391 52.9661 4.88872C52.9947 4.78353 53.0257 4.67917 53.0591 4.57563C53.0926 4.47196 53.1287 4.36925 53.1671 4.2675C53.2056 4.16575 53.2465 4.06496 53.29 3.96513C53.3334 3.86531 53.3792 3.76672 53.4274 3.66937C53.4756 3.57188 53.5262 3.47563 53.579 3.38062C53.6319 3.28561 53.6871 3.19204 53.7446 3.09991C53.802 3.00765 53.8617 2.9169 53.9235 2.82766C53.9853 2.73843 54.0493 2.65077 54.1155 2.5647C54.1816 2.47862 54.2497 2.39426 54.32 2.31163C54.3902 2.22899 54.4624 2.14814 54.5366 2.06908C54.6107 1.99002 54.6867 1.91288 54.7647 1.83766C54.8426 1.76231 54.9223 1.68903 55.0038 1.6178C55.0852 1.54644 55.1684 1.47721 55.2533 1.41011C55.3381 1.34287 55.4245 1.27783 55.5126 1.21499C55.6006 1.15216 55.6901 1.09159 55.781 1.03329C55.8719 0.974852 55.9642 0.918751 56.058 0.864989C56.1516 0.811089 56.2465 0.759663 56.3427 0.710713C56.4389 0.661626 56.5363 0.614946 56.6348 0.570671C56.7333 0.526533 56.8328 0.484802 56.9332 0.445477C57.0338 0.406289 57.1351 0.369584 57.2373 0.33536C57.3397 0.301164 57.4427 0.269531 57.5465 0.240463C57.6504 0.211396 57.7549 0.184935 57.86 0.161079C57.9651 0.137209 58.0707 0.115979 58.1768 0.0973888C58.283 0.078785 58.3896 0.0628412 58.4964 0.0495587C58.6033 0.0362625 58.7105 0.02564 58.818 0.0176925C58.9254 0.00973125 59.0329 0.00445848 59.1407 0.00187347C59.2478 -0.000697776 59.3548 -0.000622433 59.4619 0.00210007C59.569 0.00482257 59.6759 0.0101991 59.7827 0.0182291C59.8895 0.0262591 59.9961 0.0369218 60.1023 0.0502181C60.2086 0.0635143 60.3145 0.079438 60.4201 0.0979867C60.5256 0.116535 60.6305 0.13769 60.735 0.16145C60.8395 0.185196 60.9434 0.211513 61.0467 0.240402C61.1498 0.269305 61.2523 0.300737 61.354 0.334699C61.4557 0.368676 61.5565 0.40512 61.6565 0.444032C61.7564 0.483082 61.8553 0.524539 61.9533 0.568402C62.0513 0.612264 62.1481 0.658532 62.2437 0.707207C62.3394 0.755882 62.4339 0.806827 62.5271 0.86004C62.6203 0.91339 62.7121 0.969008 62.8026 1.0269C62.8933 1.08478 62.9824 1.14494 63.0701 1.20736C63.1576 1.26965 63.2436 1.33407 63.3281 1.40062C63.4126 1.46717 63.4955 1.53578 63.5768 1.60646C63.6579 1.67713 63.7373 1.7498 63.8151 1.82446C63.8928 1.89899 63.9686 1.97544 64.0425 2.05381C64.1164 2.13219 64.1885 2.21235 64.2586 2.2943C64.3287 2.37625 64.3968 2.45985 64.4628 2.5451C64.5289 2.63049 64.5929 2.71739 64.6548 2.8058C64.7167 2.89422 64.7763 2.98414 64.8338 3.07558C64.8913 3.16702 64.9465 3.25983 64.9995 3.35401C65.0525 3.4482 65.1032 3.54363 65.1515 3.64029C65.1999 3.73695 65.246 3.83478 65.2897 3.93378C65.3334 4.03265 65.3746 4.13261 65.4135 4.23367C65.4523 4.33473 65.4887 4.43662 65.5225 4.53933C65.5564 4.64218 65.5877 4.74579 65.6167 4.85015C65.6455 4.95451 65.6719 5.0595 65.6958 5.1651C65.7196 5.27083 65.7408 5.37705 65.7594 5.48375C65.7781 5.59045 65.7942 5.69757 65.8077 5.80509C65.8211 5.91262 65.832 6.02035 65.8403 6.12828C65.8486 6.23636 65.8542 6.34457 65.8572 6.45292C65.8602 6.56127 65.8606 6.66962 65.8584 6.77797C65.8563 6.88632 65.8514 6.99453 65.8439 7.10261C65.8365 7.21068 65.8264 7.31855 65.8138 7.42622C65.8011 7.53374 65.7859 7.64099 65.7681 7.74797C65.7502 7.8548 65.7297 7.96109 65.7068 8.06683C65.6838 8.1727 65.6583 8.27796 65.6301 8.3826C65.602 8.4871 65.5714 8.59091 65.5384 8.69404C65.5053 8.79702 65.4697 8.89919 65.4316 9.00052C65.3936 9.10186 65.3531 9.20217 65.3101 9.30144C65.2673 9.40072 65.2221 9.49889 65.1744 9.59597C65.1267 9.69304 65.0767 9.78888 65.0244 9.88348C64.9722 9.97794 64.9177 10.0712 64.8609 10.1632C64.8041 10.255 64.7451 10.3454 64.6838 10.4344C64.6226 10.5233 64.5594 10.6107 64.494 10.6965C64.4286 10.7823 64.3612 10.8665 64.2918 10.949C64.2222 11.0315 64.1508 11.1122 64.0774 11.1911C64.004 11.27 63.9288 11.3471 63.8517 11.4223C63.7746 11.4975 63.6957 11.5707 63.6151 11.642C63.5344 11.7133 63.452 11.7826 63.3681 11.8499C63.2841 11.9171 63.1985 11.9822 63.1114 12.0452C63.0242 12.1082 62.9355 12.1689 62.8454 12.2275C62.7554 12.2861 62.6639 12.3425 62.5711 12.3966C62.4783 12.4507 62.3843 12.5024 62.289 12.5517C62.1936 12.6011 62.0971 12.6481 61.9996 12.6928C61.902 12.7375 61.8034 12.7797 61.7038 12.8194C61.6042 12.8592 61.5037 12.8965 61.4021 12.9312C61.3008 12.9659 61.1986 12.9981 61.0956 13.0278C60.9926 13.0575 60.8889 13.0846 60.7845 13.1092C60.6802 13.1338 60.5754 13.1558 60.47 13.1752C60.3647 13.1946 60.2589 13.2113 60.1527 13.2254C60.0466 13.2395 59.9401 13.2511 59.8333 13.26C59.7266 13.2688 59.6197 13.275 59.5127 13.2786ZM59.2558 1.86448C59.1785 1.86516 59.1013 1.86771 59.0241 1.87211C58.9469 1.87665 58.8699 1.88311 58.7932 1.8915C58.7162 1.89975 58.6396 1.90999 58.5632 1.92223C58.4869 1.93433 58.4109 1.94835 58.3354 1.9643C58.2597 1.98025 58.1844 1.99806 58.1095 2.01772C58.0348 2.03738 57.9605 2.0589 57.8867 2.08228C57.8129 2.10565 57.7398 2.13082 57.6672 2.15777C57.5947 2.18485 57.5228 2.21366 57.4518 2.24418C57.3806 2.27471 57.3102 2.30702 57.2406 2.34112C57.171 2.37522 57.1023 2.41104 57.0345 2.44858C56.9667 2.48611 56.8999 2.5253 56.834 2.56614C56.7681 2.60698 56.7032 2.6494 56.6393 2.6934C56.5754 2.7374 56.5127 2.78305 56.451 2.83035C56.3893 2.87751 56.3288 2.92618 56.2696 2.97637C56.2103 3.02656 56.1523 3.07819 56.0955 3.13126C56.0387 3.18434 55.9832 3.23879 55.9292 3.29461C55.8751 3.35044 55.8224 3.40757 55.771 3.46601C55.7196 3.52445 55.6697 3.58412 55.6212 3.64503C55.5728 3.70608 55.5259 3.76823 55.4805 3.83148C55.435 3.89473 55.3911 3.95908 55.3489 4.02453C55.3066 4.08998 55.2659 4.15647 55.2268 4.22398C55.1878 4.29149 55.1504 4.3599 55.1147 4.4292C55.0789 4.49863 55.0449 4.56883 55.0126 4.63978C54.9802 4.71087 54.9496 4.78271 54.9206 4.85531C54.8918 4.92777 54.8648 5.00099 54.8395 5.07497C54.8142 5.14894 54.7908 5.22347 54.7692 5.29854C54.7475 5.37362 54.7276 5.44917 54.7097 5.52521C54.6917 5.60125 54.6756 5.6777 54.6612 5.75456C54.6469 5.83142 54.6345 5.90863 54.6241 5.98618C54.6136 6.06359 54.605 6.14128 54.5982 6.21924C54.5914 6.29707 54.5866 6.3751 54.5837 6.45333C54.5807 6.53143 54.5796 6.60961 54.5804 6.68784C54.5813 6.76608 54.584 6.84425 54.5886 6.92235C54.5933 7.00031 54.5999 7.0782 54.6084 7.15603C54.6168 7.23372 54.6271 7.3112 54.6391 7.38847C54.6514 7.46575 54.6654 7.54261 54.6813 7.61906C54.6974 7.69565 54.7152 7.77175 54.7347 7.84738C54.7543 7.923 54.7758 7.99815 54.7992 8.07281C54.8224 8.14734 54.8475 8.22131 54.8744 8.29473C54.9013 8.36802 54.9299 8.44062 54.9602 8.51253C54.9906 8.58445 55.0228 8.65554 55.0566 8.7258C55.0906 8.7962 55.1262 8.86563 55.1634 8.93411C55.2006 9.00272 55.2395 9.0703 55.28 9.13686C55.3205 9.2034 55.3626 9.26899 55.4063 9.33362C55.45 9.3981 55.4952 9.46149 55.5421 9.52378C55.5889 9.58593 55.6371 9.64698 55.6868 9.70693C55.7365 9.76674 55.7877 9.82532 55.8403 9.88265C55.8929 9.93999 55.9468 9.99595 56.0021 10.0505C56.0576 10.1051 56.1143 10.1583 56.1721 10.2102C56.23 10.262 56.2891 10.3123 56.3495 10.3612C56.4098 10.4101 56.4713 10.4575 56.5339 10.5033C56.5966 10.549 56.6603 10.5933 56.7251 10.6359C56.7899 10.6785 56.8558 10.7195 56.9226 10.7588C56.9893 10.7983 57.057 10.8359 57.1256 10.8718C57.1943 10.9079 57.2638 10.9422 57.3342 10.9747C57.4044 11.0072 57.4754 11.0379 57.5472 11.0669C57.6189 11.096 57.6914 11.1232 57.7646 11.1486C57.8377 11.1741 57.9114 11.1976 57.9856 11.2194C58.0598 11.2411 58.1345 11.261 58.2098 11.279C58.2851 11.297 58.3607 11.3131 58.4367 11.3272C58.5126 11.3415 58.5889 11.3539 58.6656 11.3644C58.7422 11.3748 58.819 11.3833 58.8959 11.3899C58.9729 11.3965 59.0501 11.4012 59.1274 11.404C59.2046 11.4068 59.2819 11.4077 59.3592 11.4066C59.4362 11.4055 59.5132 11.4026 59.5901 11.3978C59.667 11.393 59.7437 11.3862 59.8202 11.3773C59.8969 11.3687 59.9732 11.3582 60.0491 11.3458C60.1252 11.3333 60.201 11.3189 60.2764 11.3027C60.3517 11.2865 60.4266 11.2684 60.501 11.2484C60.5755 11.2285 60.6495 11.2068 60.723 11.1833C60.7964 11.1596 60.8691 11.1342 60.9413 11.107C61.0136 11.0797 61.0851 11.0508 61.1559 11.0201C61.2267 10.9893 61.2967 10.9568 61.3659 10.9226C61.4352 10.8883 61.5035 10.8524 61.5709 10.8147C61.6385 10.7772 61.705 10.7379 61.7705 10.6969C61.8361 10.6561 61.9006 10.6136 61.9641 10.5695C62.0277 10.5253 62.0901 10.4796 62.1514 10.4323C62.2127 10.3851 62.2728 10.3365 62.3318 10.2863C62.3908 10.2361 62.4485 10.1845 62.5049 10.1314C62.5614 10.0783 62.6165 10.0239 62.6702 9.96804C62.724 9.91222 62.7764 9.85515 62.8275 9.79685C62.8786 9.73842 62.9282 9.67874 62.9763 9.61783C63.0244 9.55705 63.0711 9.49504 63.1163 9.43179C63.1614 9.36868 63.205 9.30447 63.247 9.23915C63.2891 9.17384 63.3295 9.1075 63.3683 9.04012C63.4071 8.97275 63.4444 8.90448 63.48 8.83532C63.5154 8.76615 63.5492 8.69617 63.5813 8.62536C63.6135 8.55441 63.6439 8.48277 63.6726 8.41044C63.7011 8.33812 63.728 8.2651 63.7531 8.1914C63.7782 8.1177 63.8016 8.04339 63.8232 7.96845C63.8447 7.89365 63.8643 7.8183 63.8821 7.7424C63.9 7.66663 63.9161 7.59046 63.9302 7.51387C63.9445 7.43715 63.9568 7.36015 63.9673 7.28287C63.9776 7.20574 63.9862 7.12832 63.993 7.05063C63.9997 6.97295 64.0045 6.89519 64.0075 6.81737C64.0103 6.7394 64.0113 6.66144 64.0105 6.58348C64.0097 6.50552 64.007 6.42762 64.0024 6.3498C63.9977 6.27197 63.9912 6.19428 63.9828 6.11673C63.9745 6.03932 63.9643 5.96212 63.952 5.88512C63.9399 5.80812 63.926 5.73146 63.9102 5.65515C63.8943 5.57884 63.8767 5.503 63.8572 5.42765C63.8377 5.35217 63.8163 5.27723 63.7932 5.20284C63.7701 5.12845 63.7452 5.05475 63.7184 4.98174C63.6917 4.90859 63.6632 4.83613 63.633 4.76435C63.6029 4.69272 63.5709 4.62183 63.5372 4.55171C63.5035 4.48158 63.4682 4.41228 63.4312 4.34381C63.3943 4.27547 63.3556 4.2081 63.3153 4.14168C63.275 4.07513 63.2332 4.00968 63.1897 3.94533C63.1464 3.88098 63.1014 3.81773 63.0548 3.75558C63.0083 3.69343 62.9603 3.63245 62.9109 3.57264C62.8614 3.51283 62.8105 3.45432 62.7582 3.39712C62.7059 3.33978 62.6523 3.28382 62.5974 3.22923C62.5424 3.17465 62.486 3.1215 62.4284 3.0698C62.3708 3.01797 62.312 2.96757 62.2521 2.91862C62.192 2.86981 62.1308 2.82244 62.0685 2.77652C62.0062 2.73073 61.9429 2.68645 61.8785 2.64369C61.8139 2.60106 61.7484 2.56002 61.682 2.52056C61.6155 2.4811 61.5482 2.44328 61.48 2.40712C61.4117 2.3711 61.3425 2.33672 61.2725 2.304C61.2027 2.27127 61.132 2.24033 61.0605 2.21118C60.9891 2.18203 60.917 2.1546 60.8443 2.12889C60.7714 2.10332 60.6981 2.07953 60.6241 2.05753C60.5502 2.03567 60.4758 2.01559 60.4009 1.9973C60.3261 1.97902 60.2508 1.96258 60.1751 1.94801C60.0994 1.93343 60.0234 1.92078 59.947 1.91006C59.8706 1.89933 59.7941 1.89046 59.7175 1.88345C59.6407 1.87644 59.5638 1.87135 59.4868 1.86819C59.4099 1.86503 59.3329 1.86379 59.2558 1.86448Z" fill="#A4895D"/>
<path d="M44.6916 18.0359C41.4413 18.288 41.6003 17.7243 39.5563 19.8926L35.756 23.8914C35.1286 24.5415 34.469 25.3551 33.7218 25.86C30.4145 28.095 26.5713 23.7 29.2145 20.5002C30.1458 19.373 36.6709 12.2622 37.9463 11.7115C39.1678 11.1839 42.276 11.0407 43.7546 10.8898L49.021 10.3418C51.1366 10.0811 52.3659 10.8155 54.1271 11.7783C55.8782 12.7357 58.2304 13.6238 59.0783 15.6187C60.0667 17.9435 63.3903 20.9034 65.1157 23.0068C67.0196 22.0803 73.7335 17.92 75.3845 17.8557C78.4301 17.7369 80.1871 21.6201 78.072 23.8103C77.1794 24.7343 73.3729 26.6283 72.0656 27.3741L68.2024 29.5808C63.8513 32.0292 63.1659 31.3391 60.0153 28.1436L57.3103 25.4087C56.0863 27.9993 54.4255 30.6667 53.1013 33.2898C55.0005 34.418 60.243 38.2369 61.3 39.5905C64.5931 43.8077 63.4777 47.3529 62.1818 51.8238L60.1423 58.8479C59.7381 60.2036 59.4313 61.8711 58.8211 63.1207C57.2512 66.3341 52.2729 65.163 52.109 61.6015C52.0446 60.2033 52.52 58.3485 52.7499 56.938C53.3071 53.5212 53.9335 50.1074 54.4013 46.6775C53.3821 46.0767 52.4044 45.3632 51.4199 44.7045L46.2569 41.2508C45.0699 42.8713 43.8224 44.4605 42.5958 46.0511C39.0716 50.621 38.6452 51.0386 33.0485 53.1158L29.0182 54.6408C26.9694 55.4113 22.2345 57.6364 20.197 56.7596C18.214 55.9061 17.4148 52.9326 18.8242 51.2339C19.3448 50.6067 20.2143 50.2505 20.899 49.8488L30.519 44.2396C31.3961 43.7328 32.765 43.3055 33.2939 42.3897C34.4786 40.3384 35.5744 38.2309 36.7576 36.1779L38.6387 32.9169C39.581 31.2495 39.4952 31.4979 39.7919 29.6047C40.2232 26.8523 43.4975 20.8345 44.6916 18.0359ZM49.4159 12.1452L43.2413 12.8238C41.8029 12.9694 39.2492 12.8219 38.1526 13.8026C36.8289 14.9863 35.4857 16.5018 34.2397 17.8004L31.8003 20.3798C31.1366 21.093 30.0054 21.966 30.1464 23.0637C30.3062 24.3059 31.8684 25.048 32.8467 24.2387C33.5393 23.6657 34.127 22.8939 34.7505 22.2395L38.5716 18.2983C41.1802 15.6323 42.1239 16.4662 45.9675 16.0543C47.5934 15.88 49.3294 15.5199 50.786 16.4847C51.7919 17.1509 52.0556 18.5027 50.8306 18.5691C50.2406 18.6011 49.7037 17.918 49.1299 17.7746C48.4399 17.602 47.4934 17.7868 46.7798 17.8445C45.8083 20.1587 44.7578 22.4507 43.6963 24.7236C41.9513 28.4604 39.5229 33.3203 43.2081 36.9662C44.9451 38.6847 50.1252 41.6254 52.3795 43.1454L54.5735 44.5708C56.9803 46.14 56.3342 46.0546 55.8629 48.9404L54.2392 59.2577C53.9812 60.7905 53.4991 63.6073 56.0653 63.169C57.6183 62.9038 57.9275 60.1045 58.2701 58.8547L60.9431 49.5014C61.8713 46.1424 62.1806 43.5086 59.6655 40.5232C58.1209 38.6898 52.8683 35.4783 50.6578 33.8258L55.5551 24.8651C56.8658 22.4905 58.7153 20.3187 57.8725 17.43C57.217 15.1841 55.1308 14.474 53.301 13.4403C52.0416 12.7287 50.9252 11.9542 49.4159 12.1452ZM75.3884 19.8165L75.3172 19.8264C74.3902 19.9642 73.4616 20.5943 72.6412 21.0356L67.8857 23.6272C67.4218 23.8839 65.0539 25.4626 64.5708 25.0856C63.527 24.2709 60.8881 20.9694 59.8021 19.8165C59.5061 21.5682 58.9585 22.2589 58.3653 23.7427C58.6688 24.1275 59.0015 24.4806 59.362 24.8115C60.0459 25.5777 60.7856 26.2989 61.5049 27.0313C64.2474 29.8239 64.0327 29.7012 67.0368 28.0727C68.4531 27.305 75.6271 23.5566 76.5632 22.6939C77.7783 21.5744 77.0414 19.6337 75.3884 19.8165ZM39.8356 34.5341C38.5826 36.6061 37.4084 38.7412 36.2229 40.8534C35.5627 42.0298 34.8838 43.8885 33.6849 44.5851L22.3119 51.1704C21.2909 51.7751 19.6028 52.3533 19.9754 53.8702C20.4821 55.9329 22.8137 54.9071 24.1099 54.4607C27.1414 53.3825 30.1407 52.2219 33.1319 51.0341C34.2238 50.6005 35.4056 50.2854 36.4447 49.7351C39.1503 48.3019 42.5736 42.8594 44.6916 40.3485C41.8484 38.8278 40.8567 37.5787 39.8356 34.5341Z" fill="#A4895D"/>
<path d="M22.1474 28.5899C20.6756 28.6211 8.09657 28.7698 7.58342 28.4136C6.76931 27.8485 7.14747 26.7865 8.20073 26.6844L17.1644 26.6821C18.7001 26.6821 20.2773 26.6052 21.8093 26.6929C23.4334 26.7857 23.4024 28.2769 22.1474 28.5899Z" fill="#A4895D"/>
<path d="M2.14624 34.8752C1.24565 34.9055 -0.869081 34.6054 0.389941 33.2902C0.849898 32.8098 2.18699 32.993 2.778 32.9942L14.7848 32.9971C15.6382 32.9757 17.6618 33.3234 16.5467 34.5244C16.0316 35.079 15.1056 34.8804 14.4401 34.8762L2.14624 34.8752Z" fill="#A4895D"/>
<path d="M23.1845 36.1934C22.5233 35.6555 22.2958 34.5514 23.3582 34.2981C24.2574 34.2781 29.3629 34.2057 29.8073 34.365C30.6564 34.669 30.4379 35.7821 29.593 36.1934C27.8701 36.2977 24.9119 36.3045 23.1845 36.1934Z" fill="#A4895D"/>
<path d="M22.1474 41.6738L14.7782 41.6691C13.8724 41.6637 12.9087 41.765 12.0121 41.6796C10.6338 41.5486 10.7418 39.9077 12.0088 39.7588C13.3005 39.7582 22.0284 39.6348 22.529 39.8859C23.4733 40.3592 22.9697 41.422 22.1474 41.6738Z" fill="#A4895D"/>
</svg>
