<svg width="68" height="68" viewBox="0 0 68 68" fill="none" xmlns="http://www.w3.org/2000/svg">
<g clip-path="url(#clip0_1719_2659)">
<path d="M65.3373 53.3359C64.8346 53.3359 64.4249 52.928 64.4249 52.4275V1.81679H3.575V52.4275C3.575 52.928 3.16536 53.3359 2.66262 53.3359C2.15988 53.3359 1.75024 52.928 1.75024 52.4275V0.908397C1.75024 0.407852 2.15988 0 2.66262 0H65.3373C65.8401 0 66.2497 0.407852 66.2497 0.908397V52.4275C66.2497 52.928 65.8401 53.3359 65.3373 53.3359Z" fill="white"/>
<path d="M22.9769 57.0065C22.4741 57.0065 22.0645 56.5987 22.0645 56.0981V44.7339C22.0645 43.0283 20.668 41.6379 18.955 41.6379H15.9758C14.2628 41.6379 12.8663 43.0283 12.8663 44.7339V56.0981C12.8663 56.5987 12.4566 57.0065 11.9539 57.0065C11.4511 57.0065 11.0415 56.5987 11.0415 56.0981V44.7339C11.0415 42.0273 13.2573 39.8212 15.9758 39.8212H18.955C21.6735 39.8212 23.8893 42.0273 23.8893 44.7339V56.0981C23.8893 56.5987 23.4796 57.0065 22.9769 57.0065Z" fill="white"/>
<path d="M33.9998 57.0065C33.4971 57.0065 33.0875 56.5987 33.0875 56.0981V44.7339C33.0875 43.0283 31.691 41.6379 29.9779 41.6379H26.9987C25.2857 41.6379 23.8892 43.0283 23.8892 44.7339C23.8892 45.2345 23.4796 45.6423 22.9768 45.6423C22.4741 45.6423 22.0645 45.2345 22.0645 44.7339C22.0645 42.0273 24.2802 39.8212 26.9987 39.8212H29.9779C32.6964 39.8212 34.9122 42.0273 34.9122 44.7339V56.0981C34.9122 56.5987 34.5026 57.0065 33.9998 57.0065Z" fill="white"/>
<path d="M45.0228 57.0065C44.52 57.0065 44.1104 56.5987 44.1104 56.0981V44.7339C44.1104 43.0283 42.7139 41.6379 41.0009 41.6379H38.0217C36.3087 41.6379 34.9122 43.0283 34.9122 44.7339C34.9122 45.2345 34.5025 45.6423 33.9998 45.6423C33.497 45.6423 33.0874 45.2345 33.0874 44.7339C33.0874 42.0273 35.3032 39.8212 38.0217 39.8212H41.0009C43.7194 39.8212 45.9352 42.0273 45.9352 44.7339V56.0981C45.9352 56.5987 45.5255 57.0065 45.0228 57.0065Z" fill="white"/>
<path d="M56.0645 57.0065C55.5618 57.0065 55.1522 56.5987 55.1522 56.0981V44.7339C55.1522 43.0283 53.7557 41.6379 52.0426 41.6379H49.0634C47.3504 41.6379 45.9539 43.0283 45.9539 44.7339C45.9539 45.2345 45.5443 45.6423 45.0415 45.6423C44.5388 45.6423 44.1292 45.2345 44.1292 44.7339C44.1292 42.0273 46.3449 39.8212 49.0634 39.8212H52.0426C54.7611 39.8212 56.9769 42.0273 56.9769 44.7339V56.0981C56.9769 56.5987 56.5673 57.0065 56.0645 57.0065Z" fill="white"/>
<path d="M11.9354 68H0.912377C0.409639 68 0 67.5921 0 67.0916V55.7274C0 53.0207 2.21577 50.8146 4.93428 50.8146H7.91347C10.632 50.8146 12.8478 53.0207 12.8478 55.7274V67.0916C12.8478 67.5921 12.4381 68 11.9354 68ZM1.82475 66.1832H11.023V55.7274C11.023 54.0218 9.62651 52.6314 7.91347 52.6314H4.93428C3.22125 52.6314 1.82475 54.0218 1.82475 55.7274V66.1832Z" fill="white"/>
<path d="M22.9769 68H11.9539C11.4511 68 11.0415 67.5921 11.0415 67.0916C11.0415 66.591 11.4511 66.1832 11.9539 66.1832H22.0645V55.7274C22.0645 54.0218 20.668 52.6314 18.955 52.6314H15.9758C14.2628 52.6314 12.8663 54.0218 12.8663 55.7274C12.8663 56.2279 12.4566 56.6358 11.9539 56.6358C11.4511 56.6358 11.0415 56.2279 11.0415 55.7274C11.0415 53.0207 13.2573 50.8146 15.9758 50.8146H18.955C21.6735 50.8146 23.8893 53.0207 23.8893 55.7274V67.0916C23.8893 67.5921 23.4796 68 22.9769 68Z" fill="white"/>
<path d="M34.0001 68H22.9771C22.4743 68 22.0647 67.5921 22.0647 67.0916C22.0647 66.591 22.4743 66.1832 22.9771 66.1832H33.0877V55.7274C33.0877 54.0218 31.6912 52.6314 29.9782 52.6314H26.999C25.2859 52.6314 23.8894 54.0218 23.8894 55.7274C23.8894 56.2279 23.4798 56.6358 22.9771 56.6358C22.4743 56.6358 22.0647 56.2279 22.0647 55.7274C22.0647 53.0207 24.2805 50.8146 26.999 50.8146H29.9782C32.6967 50.8146 34.9125 53.0207 34.9125 55.7274V67.0916C34.9125 67.5921 34.5028 68 34.0001 68Z" fill="white"/>
<path d="M45.023 68H34C33.4973 68 33.0876 67.5921 33.0876 67.0916C33.0876 66.591 33.4973 66.1832 34 66.1832H44.1106V55.7274C44.1106 54.0218 42.7142 52.6314 41.0011 52.6314H38.0219C36.3089 52.6314 34.9124 54.0218 34.9124 55.7274C34.9124 56.2279 34.5028 56.6358 34 56.6358C33.4973 56.6358 33.0876 56.2279 33.0876 55.7274C33.0876 53.0207 35.3034 50.8146 38.0219 50.8146H41.0011C43.7196 50.8146 45.9354 53.0207 45.9354 55.7274V67.0916C45.9354 67.5921 45.5258 68 45.023 68Z" fill="white"/>
<path d="M56.0645 68H45.0415C44.5388 68 44.1292 67.5921 44.1292 67.0916C44.1292 66.591 44.5388 66.1832 45.0415 66.1832H55.1522V55.7274C55.1522 54.0218 53.7557 52.6314 52.0426 52.6314H49.0634C47.3504 52.6314 45.9539 54.0218 45.9539 55.7274C45.9539 56.2279 45.5443 56.6358 45.0415 56.6358C44.5388 56.6358 44.1292 56.2279 44.1292 55.7274C44.1292 53.0207 46.3449 50.8146 49.0634 50.8146H52.0426C54.7611 50.8146 56.9769 53.0207 56.9769 55.7274V67.0916C56.9769 67.5921 56.5673 68 56.0645 68Z" fill="white"/>
<path d="M67.0877 68H56.0647C55.562 68 55.1523 67.5921 55.1523 67.0916C55.1523 66.591 55.562 66.1832 56.0647 66.1832H66.1753V55.7274C66.1753 54.0218 64.7788 52.6314 63.0658 52.6314H60.0866C58.3736 52.6314 56.9771 54.0218 56.9771 55.7274C56.9771 56.2279 56.5675 56.6358 56.0647 56.6358C55.562 56.6358 55.1523 56.2279 55.1523 55.7274C55.1523 53.0207 57.3681 50.8146 60.0866 50.8146H63.0658C65.7843 50.8146 68.0001 53.0207 68.0001 55.7274V67.0916C68.0001 67.5921 67.5905 68 67.0877 68Z" fill="white"/>
<path d="M23.7778 31.7754C23.5357 31.7754 23.275 31.7383 23.033 31.7012C20.7427 31.1821 19.0483 30.4776 17.5773 29.3839C15.194 27.6412 13.4996 25.0087 12.792 21.9498L11.1907 14.9051C11.079 14.4231 11.3955 13.9226 11.8796 13.8113L28.1162 10.1221C28.6189 10.0109 29.1031 10.3261 29.2148 10.8081L30.7602 17.5376C31.7285 21.783 30.5554 26.1767 27.6135 29.2726L26.2356 30.7372C25.6025 31.4046 24.7088 31.7754 23.815 31.7754H23.7778ZM13.183 15.3871L14.5981 21.542C15.194 24.1745 16.6463 26.4362 18.6759 27.9008C19.9421 28.8277 21.4317 29.4395 23.4612 29.9029C23.9826 30.0327 24.5412 29.8473 24.895 29.4766L26.2728 28.012C28.8051 25.3424 29.8106 21.5791 28.9727 17.9269L27.6321 12.0872L13.1644 15.3686L13.183 15.3871Z" fill="white"/>
<path d="M22.8468 18.7612C22.6978 18.7612 22.5675 18.7241 22.4371 18.6685C21.9902 18.446 21.804 17.8899 22.0461 17.4449C22.4557 16.6478 23.1633 16.0731 24.0012 15.8877C24.8205 15.7023 25.7142 15.8877 26.4404 16.4438C26.8501 16.7405 26.9245 17.3152 26.608 17.723C26.3101 18.1123 25.7329 18.205 25.3232 17.8899C25.0253 17.6674 24.7088 17.5747 24.4108 17.6489C24.1129 17.723 23.8522 17.9269 23.6847 18.2606C23.5171 18.5758 23.2005 18.7612 22.8654 18.7612H22.8468Z" fill="white"/>
<path d="M16.9815 20.096C16.8325 20.096 16.7022 20.0589 16.5718 20.0033C16.125 19.7808 15.9388 19.2246 16.1808 18.7797C16.5905 17.964 17.298 17.4079 18.1359 17.2225C18.9738 17.0185 19.8303 17.2225 20.5751 17.7786C20.9848 18.0752 21.0593 18.6499 20.7427 19.0578C20.4448 19.4656 19.8676 19.5398 19.4579 19.2246C19.16 19.0022 18.8435 18.9095 18.5269 18.9836C18.229 19.0578 17.9683 19.2617 17.8008 19.5954C17.6332 19.9106 17.3166 20.096 16.9815 20.096Z" fill="white"/>
<path d="M21.8599 25.843C20.9475 25.843 20.0165 25.6205 19.1973 25.157C18.7504 24.8975 18.6014 24.3599 18.8621 23.9149C19.1042 23.47 19.6814 23.3402 20.1096 23.5812C21.7296 24.5082 23.8895 24.0076 24.9508 22.4875C25.2487 22.0611 25.8073 21.9684 26.217 22.2465C26.6266 22.5245 26.7383 23.0992 26.459 23.5071C25.4163 25.0087 23.6474 25.843 21.8785 25.843H21.8599Z" fill="white"/>
<path d="M40.7033 29.5322C40.3123 29.5322 39.9399 29.5322 39.5488 29.4766L37.5379 29.2912C36.3648 29.1799 35.3221 28.4569 34.8194 27.4002C33.8139 25.2868 33.3298 23.5256 33.2739 21.6903C33.1808 18.7426 34.2049 15.795 36.1973 13.3664L40.7591 7.74918C41.0757 7.35987 41.6529 7.30425 42.0439 7.61941L54.9848 18.0567C55.171 18.205 55.3013 18.4275 55.3199 18.6685C55.3386 18.9095 55.2827 19.1505 55.1151 19.3359L50.758 24.6936C48.2444 27.771 44.5576 29.5322 40.6847 29.5322H40.7033ZM41.6157 9.60305L37.6124 14.5158C35.8993 16.6107 35.0242 19.132 35.0987 21.6347C35.1545 23.229 35.5642 24.7121 36.4766 26.6216C36.7 27.1036 37.1841 27.4373 37.7055 27.4744L39.7164 27.6598C43.3846 27.9935 46.9782 26.4547 49.3429 23.5442L53.1228 18.8909L41.597 9.60305H41.6157Z" fill="white"/>
<path d="M48.0395 21.542C47.5368 21.542 47.1272 21.1527 47.1272 20.6521C47.1272 20.2814 46.9782 19.9847 46.7548 19.7808C46.5127 19.5769 46.1775 19.5213 45.8238 19.5954C45.3396 19.7067 44.8555 19.373 44.7438 18.8724C44.6507 18.3719 44.9673 17.9084 45.47 17.8157C46.3451 17.6303 47.2389 17.8528 47.9092 18.3719C48.5609 18.9095 48.9519 19.7252 48.9705 20.6336C48.9705 21.1341 48.5795 21.542 48.0768 21.5605L48.0395 21.542Z" fill="white"/>
<path d="M43.3659 17.7601C42.8632 17.7601 42.4536 17.3708 42.4536 16.8702C42.4536 16.4995 42.3046 16.2028 42.0812 15.9989C41.8391 15.795 41.5039 15.7394 41.1502 15.8135C40.666 15.9062 40.1819 15.5911 40.0702 15.0905C39.9771 14.59 40.2936 14.1265 40.7964 14.0153C41.6715 13.8484 42.5653 14.0523 43.2356 14.5714C43.8873 15.1091 44.2783 15.9248 44.2969 16.8146C44.2969 17.3152 43.9059 17.723 43.4032 17.7415L43.3659 17.7601Z" fill="white"/>
<path d="M42.528 25.9357C42.0625 25.9357 41.6715 25.5834 41.6157 25.12C41.4295 23.3032 39.7909 21.8571 37.9662 21.8571C37.9289 21.8571 37.8917 21.8571 37.8731 21.8571C37.3703 21.8571 36.9793 21.4678 36.9607 20.9673C36.9607 20.4667 37.3517 20.0403 37.8544 20.0403C40.6847 20.0403 43.1425 22.1908 43.4218 24.9346C43.4777 25.4351 43.1053 25.88 42.6025 25.9357C42.5653 25.9357 42.5467 25.9357 42.5094 25.9357H42.528Z" fill="white"/>
</g>
<defs>
<clipPath id="clip0_1719_2659">
<rect width="68" height="68" fill="white"/>
</clipPath>
</defs>
</svg>
