<svg width="70" height="65" viewBox="0 0 70 65" fill="none" xmlns="http://www.w3.org/2000/svg">
<path d="M13.7563 43.8168C10.3999 43.8168 7.66044 41.1129 7.66044 37.8003C7.66044 34.4876 10.3999 31.7837 13.7563 31.7837C17.1126 31.7837 19.8522 34.4876 19.8522 37.8003C19.8522 41.1129 17.1126 43.8168 13.7563 43.8168ZM13.7563 33.5386C11.3796 33.5386 9.4384 35.4545 9.4384 37.8003C9.4384 40.146 11.3796 42.062 13.7563 42.062C16.133 42.062 18.0742 40.146 18.0742 37.8003C18.0742 35.4545 16.133 33.5386 13.7563 33.5386Z" fill="#A4895D"/>
<path d="M22.1018 48.938C21.612 48.938 21.2128 48.5441 21.2128 48.0606V46.8072C21.2128 45.1598 19.8522 43.8168 18.1831 43.8168H9.32954C7.66044 43.8168 6.29976 45.1598 6.29976 46.8072V48.0606C6.29976 48.5441 5.90062 48.938 5.41078 48.938C4.92093 48.938 4.5218 48.5441 4.5218 48.0606V46.8072C4.5218 44.1928 6.68075 42.062 9.32954 42.062H18.1831C20.8318 42.062 22.9908 44.1928 22.9908 46.8072V48.0606C22.9908 48.5441 22.5917 48.938 22.1018 48.938Z" fill="#A4895D"/>
<path d="M2.88898 65C2.39913 65 2 64.6061 2 64.1226V50.6033C2 48.7231 3.56025 47.1832 5.4652 47.1832H22.0655C23.9705 47.1832 25.5307 48.7231 25.5307 50.6033V64.1226C25.5307 64.6061 25.1316 65 24.6418 65H2.88898ZM3.77796 63.2452H23.7346V50.6033C23.7346 49.6901 22.9727 48.938 22.0474 48.938H5.4652C4.53994 48.938 3.77796 49.6901 3.77796 50.6033V63.2452Z" fill="#A4895D"/>
<path d="M18.818 57.8196H8.7127C7.56973 57.8196 6.64446 56.9063 6.64446 55.7782V53.3788C6.64446 52.2507 7.56973 51.3375 8.7127 51.3375H18.818C19.961 51.3375 20.8863 52.2507 20.8863 53.3788V55.7782C20.8863 56.9063 19.961 57.8196 18.818 57.8196ZM8.7127 53.1102C8.54942 53.1102 8.42242 53.2355 8.42242 53.3967V55.7961C8.42242 55.9573 8.54942 56.0826 8.7127 56.0826H18.818C18.9813 56.0826 19.1083 55.9573 19.1083 55.7961V53.3967C19.1083 53.2355 18.9813 53.1102 18.818 53.1102H8.7127Z" fill="#A4895D"/>
<path d="M35.5091 43.8168C32.1527 43.8168 29.4132 41.1129 29.4132 37.8003C29.4132 34.4876 32.1527 31.7837 35.5091 31.7837C38.8654 31.7837 41.6049 34.4876 41.6049 37.8003C41.6049 41.1129 38.8654 43.8168 35.5091 43.8168ZM35.5091 33.5386C33.1324 33.5386 31.1912 35.4545 31.1912 37.8003C31.1912 40.146 33.1324 42.062 35.5091 42.062C37.8857 42.062 39.827 40.146 39.827 37.8003C39.827 35.4545 37.8857 33.5386 35.5091 33.5386Z" fill="#A4895D"/>
<path d="M43.8546 48.938C43.3647 48.938 42.9656 48.5441 42.9656 48.0606V46.8072C42.9656 45.1598 41.6049 43.8168 39.9358 43.8168H31.0823C29.4132 43.8168 28.0525 45.1598 28.0525 46.8072V48.0606C28.0525 48.5441 27.6534 48.938 27.1636 48.938C26.6737 48.938 26.2746 48.5441 26.2746 48.0606V46.8072C26.2746 44.1928 28.4335 42.062 31.0823 42.062H39.9358C42.5846 42.062 44.7436 44.1928 44.7436 46.8072V48.0606C44.7436 48.5441 44.3444 48.938 43.8546 48.938Z" fill="#A4895D"/>
<path d="M46.3764 65H24.6418C24.1519 65 23.7528 64.6061 23.7528 64.1226C23.7528 63.6391 24.1519 63.2452 24.6418 63.2452H45.4874V50.6033C45.4874 49.6901 44.7254 48.938 43.8002 48.938H27.1998C26.2746 48.938 25.5126 49.6901 25.5126 50.6033C25.5126 51.0868 25.1135 51.4807 24.6236 51.4807C24.1338 51.4807 23.7346 51.0868 23.7346 50.6033C23.7346 48.7231 25.2949 47.1832 27.1998 47.1832H43.8002C45.7051 47.1832 47.2654 48.7231 47.2654 50.6033V64.1226C47.2654 64.6061 46.8662 65 46.3764 65Z" fill="#A4895D"/>
<path d="M40.5527 57.8196H30.4473C29.3044 57.8196 28.3791 56.9063 28.3791 55.7782V53.3788C28.3791 52.2507 29.3044 51.3375 30.4473 51.3375H40.5527C41.6956 51.3375 42.6209 52.2507 42.6209 53.3788V55.7782C42.6209 56.9063 41.6956 57.8196 40.5527 57.8196ZM30.4473 53.1102C30.2841 53.1102 30.1571 53.2355 30.1571 53.3967V55.7961C30.1571 55.9573 30.2841 56.0826 30.4473 56.0826H40.5527C40.716 56.0826 40.8429 55.9573 40.8429 55.7961V53.3967C40.8429 53.2355 40.716 53.1102 40.5527 53.1102H30.4473Z" fill="#A4895D"/>
<path d="M57.2437 43.8168C53.8874 43.8168 51.1479 41.1129 51.1479 37.8003C51.1479 34.4876 53.8874 31.7837 57.2437 31.7837C60.6001 31.7837 63.3396 34.4876 63.3396 37.8003C63.3396 41.1129 60.6001 43.8168 57.2437 43.8168ZM57.2437 33.5386C54.867 33.5386 52.9258 35.4545 52.9258 37.8003C52.9258 40.146 54.867 42.062 57.2437 42.062C59.6204 42.062 61.5616 40.146 61.5616 37.8003C61.5616 35.4545 59.6204 33.5386 57.2437 33.5386Z" fill="#A4895D"/>
<path d="M65.5892 48.938C65.0994 48.938 64.7002 48.5441 64.7002 48.0606V46.8072C64.7002 45.1598 63.3396 43.8168 61.6705 43.8168H52.817C51.1478 43.8168 49.7872 45.1598 49.7872 46.8072V48.0606C49.7872 48.5441 49.388 48.938 48.8982 48.938C48.4083 48.938 48.0092 48.5441 48.0092 48.0606V46.8072C48.0092 44.1928 50.1682 42.062 52.817 42.062H61.6705C64.3193 42.062 66.4782 44.1928 66.4782 46.8072V48.0606C66.4782 48.5441 66.0791 48.938 65.5892 48.938Z" fill="#A4895D"/>
<path d="M68.111 65H46.3764C45.8865 65 45.4874 64.6061 45.4874 64.1226C45.4874 63.6391 45.8865 63.2452 46.3764 63.2452H67.222V50.6033C67.222 49.6901 66.4601 48.938 65.5348 48.938H48.9345C48.0092 48.938 47.2472 49.6901 47.2472 50.6033C47.2472 51.0868 46.8481 51.4807 46.3582 51.4807C45.8684 51.4807 45.4693 51.0868 45.4693 50.6033C45.4693 48.7231 47.0295 47.1832 48.9345 47.1832H65.5348C67.4398 47.1832 69 48.7231 69 50.6033V64.1226C69 64.6061 68.6009 65 68.111 65Z" fill="#A4895D"/>
<path d="M62.2873 57.8196H52.182C51.039 57.8196 50.1137 56.9063 50.1137 55.7782V53.3788C50.1137 52.2507 51.039 51.3375 52.182 51.3375H62.2873C63.4303 51.3375 64.3555 52.2507 64.3555 53.3788V55.7782C64.3555 56.9063 63.4303 57.8196 62.2873 57.8196ZM52.182 53.1102C52.0187 53.1102 51.8917 53.2355 51.8917 53.3967V55.7961C51.8917 55.9573 52.0187 56.0826 52.182 56.0826H62.2873C62.4506 56.0826 62.5776 55.9573 62.5776 55.7961V53.3967C62.5776 53.2355 62.4506 53.1102 62.2873 53.1102H52.182Z" fill="#A4895D"/>
<path d="M63.775 31.8733H7.22502C6.73517 31.8733 6.33604 31.4793 6.33604 30.9959V0.877411C6.33604 0.393939 6.73517 0 7.22502 0H63.775C64.2648 0 64.664 0.393939 64.664 0.877411V30.9959C64.664 31.4793 64.2648 31.8733 63.775 31.8733ZM8.114 30.1185H62.886V1.75482H8.114V30.1185Z" fill="#A4895D"/>
<path d="M26.964 9.25758C24.1156 9.25758 21.7934 6.96557 21.7934 4.15427V1.00275L22.6824 0.877411L23.5714 0.913223V4.15427C23.5714 5.99862 25.0953 7.50276 26.9458 7.50276C28.7964 7.50276 30.3385 5.99862 30.3385 4.15427V1.00275C30.3385 0.519284 30.7376 0.0716253 31.2275 0.0716253C31.7173 0.0716253 32.1164 0.411846 32.1164 0.895317V4.17218C32.1164 6.98347 29.7942 9.27548 26.9458 9.27548L26.964 9.25758Z" fill="#A4895D"/>
<path d="M35.5091 9.25758C32.6607 9.25758 30.3385 6.96557 30.3385 4.15427C30.3385 3.6708 30.7376 3.27686 31.2275 3.27686C31.7173 3.27686 32.1164 3.6708 32.1164 4.15427C32.1164 5.99862 33.6404 7.50276 35.5091 7.50276C37.3777 7.50276 38.8836 5.99862 38.8836 4.15427V1.00275C38.8836 0.519284 39.2827 0.0716253 39.7725 0.0716253C40.2624 0.0716253 40.6615 0.411846 40.6615 0.895317V4.17218C40.6615 6.98347 38.3393 9.27548 35.4909 9.27548L35.5091 9.25758Z" fill="#A4895D"/>
<path d="M44.3082 9.25758C44.1993 9.25758 44.0904 9.25758 43.9816 9.25758C42.4395 9.15014 40.9881 8.43388 40.0084 7.32369C39.192 6.37466 38.7929 5.22865 38.8836 4.10055C38.9198 3.61708 39.3916 3.27686 39.8451 3.29477C40.335 3.33058 40.6978 3.76033 40.6615 4.2438C40.6071 4.90634 40.8611 5.60468 41.3691 6.17769C42.0403 6.94766 43.0382 7.43113 44.1086 7.50276C44.925 7.57438 45.687 7.26997 46.3038 6.69697C47.0114 6.05234 47.4286 5.12121 47.4286 4.15427V1.00275C47.4286 0.519284 47.8096 0.0716253 48.2995 0.0716253C48.7893 0.0716253 49.1885 0.376033 49.2066 0.859504V4.19008C49.2066 5.6405 48.5898 7.03719 47.5194 8.02204C46.6122 8.84573 45.4874 9.29339 44.3082 9.29339V9.25758Z" fill="#A4895D"/>
<path d="M18.2193 31.8733C18.2193 31.8733 18.1649 31.8733 18.1468 31.8733C17.6569 31.8375 17.2941 31.4077 17.3304 30.9242C17.7476 25.5702 14.609 15.4532 14.5908 15.3457C14.482 14.9876 14.5908 14.6116 14.8993 14.3788C17.8565 12.1763 20.9044 3.70661 21.8297 0.626722C21.9748 0.161157 22.4647 -0.0895317 22.9364 0.0358127C23.4081 0.179063 23.6802 0.662534 23.5351 1.1281C23.3899 1.57576 20.2513 11.9077 16.4414 15.3815C17.1126 17.6377 19.4893 26.0716 19.0902 31.0496C19.0539 31.5152 18.6729 31.8554 18.2012 31.8554L18.2193 31.8733Z" fill="#A4895D"/>
<path d="M15.4254 15.9545H7.22502C6.73517 15.9545 6.33604 15.5606 6.33604 15.0771C6.33604 14.5937 6.73517 14.1997 7.22502 14.1997H15.4254C15.9152 14.1997 16.3144 14.5937 16.3144 15.0771C16.3144 15.5606 15.9152 15.9545 15.4254 15.9545Z" fill="#A4895D"/>
<path d="M12.4138 31.8733C12.323 31.8733 12.2142 31.8733 12.1235 31.8196C11.6518 31.6584 11.4159 31.157 11.5792 30.7094C12.2323 28.865 11.3796 20.2163 10.6902 15.2025C10.6721 15.0234 10.6902 14.8444 10.7809 14.6832C13.339 9.65152 13.4116 0.949036 13.4116 0.877411C13.4116 0.393939 13.8107 0 14.3006 0C14.7904 0 15.1895 0.393939 15.1895 0.877411C15.1895 1.23554 15.117 9.81267 12.4863 15.2204C12.7947 17.4587 14.2099 28.5606 13.2664 31.2645C13.1395 31.6226 12.7947 31.8554 12.4319 31.8554L12.4138 31.8733Z" fill="#A4895D"/>
<path d="M52.7988 31.8733C52.3453 31.8733 51.9461 31.5152 51.9098 31.0675C51.5107 26.0716 53.8874 17.6556 54.5586 15.3995C50.7487 11.9256 47.6101 1.61157 47.4649 1.14601C47.3198 0.680441 47.5919 0.19697 48.0636 0.053719C48.5353 -0.0716253 49.0252 0.179063 49.1703 0.644628C50.0956 3.72452 53.1617 12.1942 56.1007 14.3967C56.391 14.6116 56.518 15.0055 56.4092 15.3636C56.3729 15.4711 53.2342 25.5882 53.6696 30.9422C53.7059 31.4256 53.3431 31.8554 52.8532 31.8912C52.8351 31.8912 52.7988 31.8912 52.7807 31.8912L52.7988 31.8733Z" fill="#A4895D"/>
<path d="M63.775 15.9545H55.5746C55.0848 15.9545 54.6856 15.5606 54.6856 15.0771C54.6856 14.5937 55.0848 14.1997 55.5746 14.1997H63.775C64.2648 14.1997 64.664 14.5937 64.664 15.0771C64.664 15.5606 64.2648 15.9545 63.775 15.9545Z" fill="#A4895D"/>
<path d="M58.5862 31.8733C58.2234 31.8733 57.8787 31.6405 57.7517 31.2824C56.8083 28.5785 58.2234 17.4587 58.5318 15.2383C55.9012 9.83058 55.8286 1.25344 55.8286 0.895317C55.8286 0.411846 56.2277 0.0179063 56.7176 0.0179063C57.2074 0.0179063 57.6066 0.411846 57.6066 0.895317C57.6066 0.984848 57.6791 9.68733 60.2372 14.7011C60.3098 14.8623 60.3461 15.0413 60.3279 15.2204C59.6022 20.4311 58.7858 28.865 59.4389 30.7273C59.6022 31.1928 59.3482 31.6942 58.8947 31.8375C58.804 31.8733 58.6951 31.8912 58.6044 31.8912L58.5862 31.8733Z" fill="#A4895D"/>
</svg>
