<svg width="57" height="54" viewBox="0 0 57 54" fill="none" xmlns="http://www.w3.org/2000/svg">
<path d="M28.25 11.2143C43.5431 11.2143 55.25 26.7466 55.25 26.7466C55.25 26.7466 43.5431 42.2788 28.25 42.2788M28.25 11.2143C12.9569 11.2143 1.25 26.7466 1.25 26.7466C1.25 26.7466 12.9569 42.2788 28.25 42.2788M28.25 11.2143C19.6318 11.2143 12.6454 18.1683 12.6454 26.7466C12.6454 35.3248 19.6318 42.2788 28.25 42.2788M28.25 11.2143C36.8682 11.2143 43.8546 18.1683 43.8546 26.7466C43.8546 35.3248 36.8682 42.2788 28.25 42.2788M18.2877 24.5552C19.16 20.6343 22.3169 17.554 26.2908 16.7753M23.2862 26.0023L27.0523 29.751L33.2138 23.6181M28.25 5.76358V1.25M10.9769 11.0214L8.62308 8.68535M45.5092 11.0352L47.8631 8.69913M19.5754 7.10732L18.0938 3.50334M37.1254 7.15555L38.6623 3.51024M28.2362 47.7295V52.25M45.5092 42.4717L47.8631 44.8147M10.9769 42.4648L8.62308 44.8009M36.9177 46.3927L38.3923 49.9967M19.3608 46.3444L17.8308 49.9898" stroke="#A4895D" stroke-width="2.5" stroke-linecap="round" stroke-linejoin="round"/>
</svg>
