<svg width="24" height="17" viewBox="0 0 24 17" fill="none" xmlns="http://www.w3.org/2000/svg">
<path d="M11.8927 0H12.0242C13.2384 0.00443152 19.3909 0.048747 21.0497 0.494853C21.5512 0.631002 22.0082 0.896382 22.375 1.26447C22.7418 1.63256 23.0055 2.09047 23.1399 2.59244C23.2891 3.15376 23.394 3.89678 23.4649 4.66344L23.4797 4.81706L23.5122 5.20113L23.524 5.35475C23.62 6.70489 23.6318 7.96935 23.6333 8.24558V8.35637C23.6318 8.64294 23.6185 9.99308 23.5122 11.3993L23.5004 11.5545L23.4871 11.7081C23.4132 12.553 23.3039 13.3921 23.1399 14.0095C23.0055 14.5115 22.7418 14.9694 22.375 15.3375C22.0082 15.7056 21.5512 15.9709 21.0497 16.1071C19.3362 16.568 12.8233 16.6005 11.9208 16.602H11.711C11.2546 16.602 9.36676 16.5931 7.38735 16.5251L7.13623 16.5163L7.00771 16.5104L6.75512 16.5L6.50252 16.4897C4.86286 16.4173 3.30148 16.3006 2.5821 16.1056C2.08079 15.9696 1.62393 15.7044 1.25715 15.3366C0.890371 14.9688 0.626504 14.5112 0.491899 14.0095C0.327933 13.3935 0.218622 12.553 0.144763 11.7081L0.132946 11.553L0.121128 11.3993C0.0478064 10.3984 0.00740849 9.39539 0 8.39182L0 8.21013C0.00295435 7.89254 0.0147717 6.795 0.0945391 5.58371L0.104879 5.43157L0.109311 5.35475L0.121128 5.20113L0.153626 4.81706L0.168398 4.66344C0.239302 3.89678 0.344181 3.15229 0.493376 2.59244C0.627755 2.09047 0.891522 1.63256 1.25832 1.26447C1.62511 0.896382 2.08209 0.631002 2.58358 0.494853C3.30296 0.302821 4.86433 0.184647 6.504 0.110788L6.75512 0.100448L7.00919 0.091585L7.13623 0.0871534L7.38882 0.0768133C8.79466 0.0316168 10.2011 0.00650216 11.6076 0.00147724L11.8927 0ZM9.45391 4.74173V11.8587L15.5945 8.30171L9.45391 4.74173Z" fill="#A4895D"/>
</svg>
